<mxfile host="app.diagrams.net" modified="2022-03-27T13:16:58.579Z" agent="5.0 (X11; Linux x86_64) AppleWebKit/537.36 (KHTML, like Gecko) Chrome/98.0.4758.141 Safari/537.36" etag="NR22mBfn0PmvWMGtpxQY" version="17.2.4" type="github" pages="5">
  <diagram id="wkifLEeL6s2k6wNWj1AL" name="Signals">
    <mxGraphModel dx="946" dy="549" grid="1" gridSize="10" guides="1" tooltips="1" connect="1" arrows="1" fold="1" page="1" pageScale="1" pageWidth="826" pageHeight="1169" math="0" shadow="0">
      <root>
        <mxCell id="Tvwaqk257zbarVCUoJn4-0" />
        <mxCell id="Tvwaqk257zbarVCUoJn4-1" parent="Tvwaqk257zbarVCUoJn4-0" />
        <mxCell id="y0exCxsh5PRNmsqIgSbH-0" value="" style="group" parent="Tvwaqk257zbarVCUoJn4-1" vertex="1" connectable="0">
          <mxGeometry x="110" y="210" width="310" height="810" as="geometry" />
        </mxCell>
        <mxCell id="Tvwaqk257zbarVCUoJn4-162" value="Time" style="text;html=1;align=center;verticalAlign=middle;resizable=0;points=[];autosize=1;" parent="y0exCxsh5PRNmsqIgSbH-0" vertex="1">
          <mxGeometry x="263.2753623188406" y="114.45652173913044" width="40" height="20" as="geometry" />
        </mxCell>
        <mxCell id="NTuUF_2zJ3j__ovih33A-5" value="" style="group" parent="y0exCxsh5PRNmsqIgSbH-0" vertex="1" connectable="0">
          <mxGeometry x="17.971014492753625" width="287.536231884058" height="123.26086956521739" as="geometry" />
        </mxCell>
        <mxCell id="Tvwaqk257zbarVCUoJn4-43" value="" style="endArrow=classic;html=1;" parent="NTuUF_2zJ3j__ovih33A-5" edge="1">
          <mxGeometry width="50" height="50" relative="1" as="geometry">
            <mxPoint x="8.985507246376812" y="123.26086956521739" as="sourcePoint" />
            <mxPoint x="8.985507246376812" as="targetPoint" />
          </mxGeometry>
        </mxCell>
        <mxCell id="Tvwaqk257zbarVCUoJn4-44" value="" style="endArrow=classic;html=1;" parent="NTuUF_2zJ3j__ovih33A-5" edge="1">
          <mxGeometry width="50" height="50" relative="1" as="geometry">
            <mxPoint y="116.41304347826087" as="sourcePoint" />
            <mxPoint x="287.536231884058" y="116.41304347826087" as="targetPoint" />
          </mxGeometry>
        </mxCell>
        <mxCell id="Tvwaqk257zbarVCUoJn4-114" value="" style="group" parent="NTuUF_2zJ3j__ovih33A-5" vertex="1" connectable="0">
          <mxGeometry x="179.71014492753622" y="6.8478260869565215" width="44.3255072463768" height="109.56521739130434" as="geometry" />
        </mxCell>
        <mxCell id="Tvwaqk257zbarVCUoJn4-75" value="" style="endArrow=classic;html=1;strokeColor=#FF8000;" parent="Tvwaqk257zbarVCUoJn4-114" edge="1">
          <mxGeometry y="6.8478260869565215" width="44.927536231884055" height="47.078804347826086" as="geometry">
            <mxPoint y="109.56521739130434" as="sourcePoint" />
            <mxPoint y="6.8478260869565215" as="targetPoint" />
          </mxGeometry>
        </mxCell>
        <mxCell id="Tvwaqk257zbarVCUoJn4-76" value="" style="endArrow=classic;html=1;strokeColor=#FF8000;" parent="Tvwaqk257zbarVCUoJn4-114" edge="1">
          <mxGeometry y="13.695652173913043" width="44.927536231884055" height="47.078804347826086" as="geometry">
            <mxPoint x="8.985507246376812" y="109.56521739130434" as="sourcePoint" />
            <mxPoint x="8.985507246376812" y="13.695652173913043" as="targetPoint" />
            <Array as="points">
              <mxPoint x="8.985507246376812" y="13.695652173913043" />
            </Array>
          </mxGeometry>
        </mxCell>
        <mxCell id="Tvwaqk257zbarVCUoJn4-77" value="" style="endArrow=classic;html=1;strokeColor=#FF8000;" parent="Tvwaqk257zbarVCUoJn4-114" edge="1">
          <mxGeometry y="27.391304347826086" width="44.927536231884055" height="47.078804347826086" as="geometry">
            <mxPoint x="17.971014492753625" y="109.56521739130434" as="sourcePoint" />
            <mxPoint x="17.971014492753625" y="27.391304347826086" as="targetPoint" />
          </mxGeometry>
        </mxCell>
        <mxCell id="Tvwaqk257zbarVCUoJn4-78" value="" style="endArrow=classic;html=1;strokeColor=#FF8000;" parent="Tvwaqk257zbarVCUoJn4-114" edge="1">
          <mxGeometry y="6.8478260869565215" width="44.927536231884055" height="47.078804347826086" as="geometry">
            <mxPoint x="26.956521739130434" y="109.56521739130434" as="sourcePoint" />
            <mxPoint x="26.956521739130434" y="6.8478260869565215" as="targetPoint" />
          </mxGeometry>
        </mxCell>
        <mxCell id="Tvwaqk257zbarVCUoJn4-79" value="" style="endArrow=classic;html=1;strokeColor=#FF8000;" parent="Tvwaqk257zbarVCUoJn4-114" edge="1">
          <mxGeometry width="44.927536231884055" height="47.078804347826086" as="geometry">
            <mxPoint x="35.94202898550725" y="109.56521739130434" as="sourcePoint" />
            <mxPoint x="35.94202898550725" as="targetPoint" />
          </mxGeometry>
        </mxCell>
        <mxCell id="Tvwaqk257zbarVCUoJn4-80" value="" style="endArrow=classic;html=1;strokeColor=#FF8000;" parent="Tvwaqk257zbarVCUoJn4-114" edge="1">
          <mxGeometry x="-0.6020289855072607" y="20.543478260869566" width="44.927536231884055" height="47.078804347826086" as="geometry">
            <mxPoint x="44.02898550724638" y="109.56521739130434" as="sourcePoint" />
            <mxPoint x="44.3255072463768" y="20.543478260869566" as="targetPoint" />
          </mxGeometry>
        </mxCell>
        <mxCell id="Tvwaqk257zbarVCUoJn4-115" value="" style="group" parent="NTuUF_2zJ3j__ovih33A-5" vertex="1" connectable="0">
          <mxGeometry x="125.79710144927537" y="20.543478260869566" width="44.927536231884055" height="95.8695652173913" as="geometry" />
        </mxCell>
        <mxCell id="Tvwaqk257zbarVCUoJn4-83" value="" style="endArrow=classic;html=1;" parent="Tvwaqk257zbarVCUoJn4-115" edge="1">
          <mxGeometry y="41.086956521739125" width="44.927536231884055" height="34.23913043478261" as="geometry">
            <mxPoint y="95.8695652173913" as="sourcePoint" />
            <mxPoint y="41.086956521739125" as="targetPoint" />
          </mxGeometry>
        </mxCell>
        <mxCell id="Tvwaqk257zbarVCUoJn4-84" value="" style="endArrow=classic;html=1;" parent="Tvwaqk257zbarVCUoJn4-115" edge="1">
          <mxGeometry y="6.847826086956521" width="44.927536231884055" height="34.23913043478261" as="geometry">
            <mxPoint x="8.98550724637681" y="95.8695652173913" as="sourcePoint" />
            <mxPoint x="8.98550724637681" y="6.847826086956521" as="targetPoint" />
            <Array as="points">
              <mxPoint x="8.98550724637681" y="6.847826086956521" />
            </Array>
          </mxGeometry>
        </mxCell>
        <mxCell id="Tvwaqk257zbarVCUoJn4-85" value="" style="endArrow=classic;html=1;" parent="Tvwaqk257zbarVCUoJn4-115" edge="1">
          <mxGeometry y="20.543478260869563" width="44.927536231884055" height="34.23913043478261" as="geometry">
            <mxPoint x="17.97101449275362" y="95.8695652173913" as="sourcePoint" />
            <mxPoint x="17.97101449275362" y="20.543478260869563" as="targetPoint" />
          </mxGeometry>
        </mxCell>
        <mxCell id="Tvwaqk257zbarVCUoJn4-86" value="" style="endArrow=classic;html=1;" parent="Tvwaqk257zbarVCUoJn4-115" edge="1">
          <mxGeometry width="44.927536231884055" height="34.23913043478261" as="geometry">
            <mxPoint x="26.95652173913043" y="95.8695652173913" as="sourcePoint" />
            <mxPoint x="26.95652173913043" as="targetPoint" />
          </mxGeometry>
        </mxCell>
        <mxCell id="Tvwaqk257zbarVCUoJn4-87" value="" style="endArrow=classic;html=1;" parent="Tvwaqk257zbarVCUoJn4-115" edge="1">
          <mxGeometry y="13.695652173913041" width="44.927536231884055" height="34.23913043478261" as="geometry">
            <mxPoint x="35.94202898550724" y="95.8695652173913" as="sourcePoint" />
            <mxPoint x="35.94202898550724" y="13.695652173913041" as="targetPoint" />
          </mxGeometry>
        </mxCell>
        <mxCell id="Tvwaqk257zbarVCUoJn4-88" value="" style="endArrow=classic;html=1;" parent="Tvwaqk257zbarVCUoJn4-115" edge="1">
          <mxGeometry y="30.815217391304344" width="44.927536231884055" height="34.23913043478261" as="geometry">
            <mxPoint x="44.927536231884055" y="95.8695652173913" as="sourcePoint" />
            <mxPoint x="44.927536231884055" y="30.815217391304344" as="targetPoint" />
          </mxGeometry>
        </mxCell>
        <mxCell id="Tvwaqk257zbarVCUoJn4-116" value="" style="group" parent="NTuUF_2zJ3j__ovih33A-5" vertex="1" connectable="0">
          <mxGeometry x="71.8840579710145" y="13.695652173913043" width="44.927536231884055" height="102.71739130434783" as="geometry" />
        </mxCell>
        <mxCell id="Tvwaqk257zbarVCUoJn4-60" value="" style="endArrow=classic;html=1;startSize=6;strokeColor=#FF8000;arcSize=20;" parent="Tvwaqk257zbarVCUoJn4-116" edge="1">
          <mxGeometry y="27.391304347826086" width="44.927536231884055" height="47.078804347826086" as="geometry">
            <mxPoint y="102.71739130434783" as="sourcePoint" />
            <mxPoint y="6.8478260869565215" as="targetPoint" />
          </mxGeometry>
        </mxCell>
        <mxCell id="Tvwaqk257zbarVCUoJn4-61" value="" style="endArrow=classic;html=1;strokeColor=#FF8000;" parent="Tvwaqk257zbarVCUoJn4-116" edge="1">
          <mxGeometry y="27.391304347826086" width="44.927536231884055" height="47.078804347826086" as="geometry">
            <mxPoint x="8.98550724637681" y="102.71739130434783" as="sourcePoint" />
            <mxPoint x="8.98550724637681" y="27.391304347826086" as="targetPoint" />
            <Array as="points">
              <mxPoint x="8.98550724637681" y="27.391304347826086" />
            </Array>
          </mxGeometry>
        </mxCell>
        <mxCell id="Tvwaqk257zbarVCUoJn4-62" value="" style="endArrow=classic;html=1;strokeColor=#FF8000;" parent="Tvwaqk257zbarVCUoJn4-116" edge="1">
          <mxGeometry y="27.391304347826086" width="44.927536231884055" height="47.078804347826086" as="geometry">
            <mxPoint x="17.97101449275362" y="102.71739130434783" as="sourcePoint" />
            <mxPoint x="17.97101449275362" y="13.695652173913043" as="targetPoint" />
          </mxGeometry>
        </mxCell>
        <mxCell id="Tvwaqk257zbarVCUoJn4-63" value="" style="endArrow=classic;html=1;strokeColor=#FF8000;" parent="Tvwaqk257zbarVCUoJn4-116" edge="1">
          <mxGeometry y="27.391304347826086" width="44.927536231884055" height="47.078804347826086" as="geometry">
            <mxPoint x="26.95652173913043" y="102.71739130434783" as="sourcePoint" />
            <mxPoint x="26.95652173913043" y="27.391304347826086" as="targetPoint" />
          </mxGeometry>
        </mxCell>
        <mxCell id="Tvwaqk257zbarVCUoJn4-64" value="" style="endArrow=classic;html=1;strokeColor=#FF8000;" parent="Tvwaqk257zbarVCUoJn4-116" edge="1">
          <mxGeometry y="27.391304347826086" width="44.927536231884055" height="47.078804347826086" as="geometry">
            <mxPoint x="35.94202898550724" y="102.71739130434783" as="sourcePoint" />
            <mxPoint x="35.94202898550724" as="targetPoint" />
          </mxGeometry>
        </mxCell>
        <mxCell id="Tvwaqk257zbarVCUoJn4-65" value="" style="endArrow=classic;html=1;strokeColor=#FF8000;" parent="Tvwaqk257zbarVCUoJn4-116" edge="1">
          <mxGeometry y="27.391304347826086" width="44.927536231884055" height="47.078804347826086" as="geometry">
            <mxPoint x="44.927536231884055" y="102.71739130434783" as="sourcePoint" />
            <mxPoint x="44.927536231884055" y="20.543478260869566" as="targetPoint" />
          </mxGeometry>
        </mxCell>
        <mxCell id="Tvwaqk257zbarVCUoJn4-117" value="" style="group" parent="NTuUF_2zJ3j__ovih33A-5" vertex="1" connectable="0">
          <mxGeometry x="17.971014492753625" y="20.543478260869566" width="44.927536231884055" height="95.8695652173913" as="geometry" />
        </mxCell>
        <mxCell id="Tvwaqk257zbarVCUoJn4-46" value="" style="endArrow=classic;html=1;" parent="Tvwaqk257zbarVCUoJn4-117" edge="1">
          <mxGeometry y="41.086956521739125" width="44.927536231884055" height="34.23913043478261" as="geometry">
            <mxPoint y="95.8695652173913" as="sourcePoint" />
            <mxPoint y="13.695652173913041" as="targetPoint" />
          </mxGeometry>
        </mxCell>
        <mxCell id="Tvwaqk257zbarVCUoJn4-47" value="" style="endArrow=classic;html=1;" parent="Tvwaqk257zbarVCUoJn4-117" edge="1">
          <mxGeometry y="41.086956521739125" width="44.927536231884055" height="34.23913043478261" as="geometry">
            <mxPoint x="8.98550724637681" y="95.8695652173913" as="sourcePoint" />
            <mxPoint x="8.98550724637681" y="41.086956521739125" as="targetPoint" />
            <Array as="points">
              <mxPoint x="8.98550724637681" y="41.086956521739125" />
            </Array>
          </mxGeometry>
        </mxCell>
        <mxCell id="Tvwaqk257zbarVCUoJn4-48" value="" style="endArrow=classic;html=1;" parent="Tvwaqk257zbarVCUoJn4-117" edge="1">
          <mxGeometry y="41.086956521739125" width="44.927536231884055" height="34.23913043478261" as="geometry">
            <mxPoint x="17.97101449275362" y="95.8695652173913" as="sourcePoint" />
            <mxPoint x="17.97101449275362" as="targetPoint" />
          </mxGeometry>
        </mxCell>
        <mxCell id="Tvwaqk257zbarVCUoJn4-49" value="" style="endArrow=classic;html=1;" parent="Tvwaqk257zbarVCUoJn4-117" edge="1">
          <mxGeometry y="41.086956521739125" width="44.927536231884055" height="34.23913043478261" as="geometry">
            <mxPoint x="26.95652173913043" y="95.8695652173913" as="sourcePoint" />
            <mxPoint x="26.95652173913043" y="27.391304347826082" as="targetPoint" />
          </mxGeometry>
        </mxCell>
        <mxCell id="Tvwaqk257zbarVCUoJn4-50" value="" style="endArrow=classic;html=1;" parent="Tvwaqk257zbarVCUoJn4-117" edge="1">
          <mxGeometry y="41.086956521739125" width="44.927536231884055" height="34.23913043478261" as="geometry">
            <mxPoint x="35.94202898550724" y="95.8695652173913" as="sourcePoint" />
            <mxPoint x="35.94202898550724" y="13.695652173913041" as="targetPoint" />
          </mxGeometry>
        </mxCell>
        <mxCell id="Tvwaqk257zbarVCUoJn4-51" value="" style="endArrow=classic;html=1;" parent="Tvwaqk257zbarVCUoJn4-117" edge="1">
          <mxGeometry y="41.086956521739125" width="44.927536231884055" height="34.23913043478261" as="geometry">
            <mxPoint x="44.927536231884055" y="95.8695652173913" as="sourcePoint" />
            <mxPoint x="44.927536231884055" y="34.23913043478261" as="targetPoint" />
          </mxGeometry>
        </mxCell>
        <mxCell id="NTuUF_2zJ3j__ovih33A-6" value="" style="group" parent="y0exCxsh5PRNmsqIgSbH-0" vertex="1" connectable="0">
          <mxGeometry x="122.20289855072464" y="140.8695652173913" width="31.449275362318843" height="61.630434782608695" as="geometry" />
        </mxCell>
        <mxCell id="Tvwaqk257zbarVCUoJn4-157" value="" style="endArrow=none;dashed=1;html=1;dashPattern=1 3;strokeWidth=2;startArrow=none;startFill=0;" parent="NTuUF_2zJ3j__ovih33A-6" source="Tvwaqk257zbarVCUoJn4-154" edge="1">
          <mxGeometry width="50" height="50" relative="1" as="geometry">
            <mxPoint x="16.6231884057971" y="79.23913043478261" as="sourcePoint" />
            <mxPoint x="17.07246376811594" as="targetPoint" />
          </mxGeometry>
        </mxCell>
        <mxCell id="Tvwaqk257zbarVCUoJn4-154" value="Multiply" style="verticalLabelPosition=middle;shadow=0;dashed=0;align=left;html=1;verticalAlign=middle;shape=mxgraph.electrical.abstract.multiplier;strokeColor=#000000;labelPosition=right;labelBackgroundColor=none;" parent="NTuUF_2zJ3j__ovih33A-6" vertex="1">
          <mxGeometry x="3.5942028985507246" y="17.608695652173914" width="26.956521739130434" height="26.41304347826087" as="geometry" />
        </mxCell>
        <mxCell id="Tvwaqk257zbarVCUoJn4-161" value="" style="endArrow=none;dashed=1;html=1;dashPattern=1 3;strokeWidth=2;startArrow=classic;startFill=1;" parent="NTuUF_2zJ3j__ovih33A-6" target="Tvwaqk257zbarVCUoJn4-154" edge="1">
          <mxGeometry width="50" height="50" relative="1" as="geometry">
            <mxPoint x="17.07246376811594" y="61.630434782608695" as="sourcePoint" />
            <mxPoint x="16.6231884057971" y="-17.608695652173914" as="targetPoint" />
          </mxGeometry>
        </mxCell>
        <mxCell id="NTuUF_2zJ3j__ovih33A-7" value="" style="group" parent="y0exCxsh5PRNmsqIgSbH-0" vertex="1" connectable="0">
          <mxGeometry y="220.1086956521739" width="310" height="105.65217391304348" as="geometry" />
        </mxCell>
        <mxCell id="Tvwaqk257zbarVCUoJn4-146" value="" style="pointerEvents=1;verticalLabelPosition=bottom;shadow=0;dashed=0;align=center;html=1;verticalAlign=top;shape=mxgraph.electrical.waveforms.square_wave;fillColor=none;flipH=1;" parent="NTuUF_2zJ3j__ovih33A-7" vertex="1">
          <mxGeometry x="31.449275362318843" y="17.608695652173914" width="107.82608695652173" height="70.43478260869566" as="geometry" />
        </mxCell>
        <mxCell id="Tvwaqk257zbarVCUoJn4-149" value="" style="pointerEvents=1;verticalLabelPosition=bottom;shadow=0;dashed=0;align=center;html=1;verticalAlign=top;shape=mxgraph.electrical.waveforms.square_wave;fillColor=none;flipH=1;" parent="NTuUF_2zJ3j__ovih33A-7" vertex="1">
          <mxGeometry x="138.67333333333335" y="17.608695652173914" width="107.82608695652173" height="70.43478260869566" as="geometry" />
        </mxCell>
        <mxCell id="Tvwaqk257zbarVCUoJn4-150" value="" style="endArrow=classic;html=1;" parent="NTuUF_2zJ3j__ovih33A-7" edge="1">
          <mxGeometry width="50" height="50" relative="1" as="geometry">
            <mxPoint x="31.449275362318843" y="105.65217391304348" as="sourcePoint" />
            <mxPoint x="31.449275362318843" as="targetPoint" />
          </mxGeometry>
        </mxCell>
        <mxCell id="Tvwaqk257zbarVCUoJn4-151" value="" style="endArrow=classic;html=1;" parent="NTuUF_2zJ3j__ovih33A-7" edge="1">
          <mxGeometry width="50" height="50" relative="1" as="geometry">
            <mxPoint x="22.463768115942027" y="52.38586956521739" as="sourcePoint" />
            <mxPoint x="310" y="52.38586956521739" as="targetPoint" />
          </mxGeometry>
        </mxCell>
        <mxCell id="Tvwaqk257zbarVCUoJn4-152" value="-1&amp;nbsp; &amp;nbsp;--" style="text;html=1;align=center;verticalAlign=middle;resizable=0;points=[];autosize=1;" parent="NTuUF_2zJ3j__ovih33A-7" vertex="1">
          <mxGeometry x="4.492753623188406" y="79.23913043478261" width="40" height="20" as="geometry" />
        </mxCell>
        <mxCell id="Tvwaqk257zbarVCUoJn4-153" value="+1&amp;nbsp; &amp;nbsp;--" style="text;html=1;align=center;verticalAlign=middle;resizable=0;points=[];autosize=1;" parent="NTuUF_2zJ3j__ovih33A-7" vertex="1">
          <mxGeometry y="8.804347826086957" width="50" height="20" as="geometry" />
        </mxCell>
        <mxCell id="NTuUF_2zJ3j__ovih33A-9" value="" style="group" parent="y0exCxsh5PRNmsqIgSbH-0" vertex="1" connectable="0">
          <mxGeometry x="17.971014492753625" y="413.804347826087" width="287.536231884058" height="167.2826086956522" as="geometry" />
        </mxCell>
        <mxCell id="Tvwaqk257zbarVCUoJn4-2" value="" style="endArrow=classic;html=1;" parent="NTuUF_2zJ3j__ovih33A-9" edge="1">
          <mxGeometry width="50" height="50" relative="1" as="geometry">
            <mxPoint x="8.985507246376812" y="139.40217391304347" as="sourcePoint" />
            <mxPoint x="8.985507246376812" y="16.72826086956522" as="targetPoint" />
          </mxGeometry>
        </mxCell>
        <mxCell id="Tvwaqk257zbarVCUoJn4-3" value="" style="endArrow=classic;html=1;" parent="NTuUF_2zJ3j__ovih33A-9" edge="1">
          <mxGeometry width="50" height="50" relative="1" as="geometry">
            <mxPoint y="89.21739130434783" as="sourcePoint" />
            <mxPoint x="287.536231884058" y="89.21739130434783" as="targetPoint" />
          </mxGeometry>
        </mxCell>
        <mxCell id="Tvwaqk257zbarVCUoJn4-118" value="" style="group" parent="NTuUF_2zJ3j__ovih33A-9" vertex="1" connectable="0">
          <mxGeometry x="71.8840579710145" y="5.576086956521739" width="44.927536231884055" height="83.6413043478261" as="geometry" />
        </mxCell>
        <mxCell id="Tvwaqk257zbarVCUoJn4-119" value="" style="endArrow=classic;html=1;startSize=6;strokeColor=#FF8000;arcSize=20;" parent="Tvwaqk257zbarVCUoJn4-118" edge="1">
          <mxGeometry y="22.304347826086957" width="44.927536231884055" height="38.33559782608695" as="geometry">
            <mxPoint y="83.6413043478261" as="sourcePoint" />
            <mxPoint y="5.576086956521739" as="targetPoint" />
          </mxGeometry>
        </mxCell>
        <mxCell id="Tvwaqk257zbarVCUoJn4-120" value="" style="endArrow=classic;html=1;strokeColor=#FF8000;" parent="Tvwaqk257zbarVCUoJn4-118" edge="1">
          <mxGeometry y="22.304347826086957" width="44.927536231884055" height="38.33559782608695" as="geometry">
            <mxPoint x="8.98550724637681" y="83.6413043478261" as="sourcePoint" />
            <mxPoint x="8.98550724637681" y="22.304347826086957" as="targetPoint" />
            <Array as="points">
              <mxPoint x="8.98550724637681" y="22.304347826086957" />
            </Array>
          </mxGeometry>
        </mxCell>
        <mxCell id="Tvwaqk257zbarVCUoJn4-121" value="" style="endArrow=classic;html=1;strokeColor=#FF8000;" parent="Tvwaqk257zbarVCUoJn4-118" edge="1">
          <mxGeometry y="22.304347826086957" width="44.927536231884055" height="38.33559782608695" as="geometry">
            <mxPoint x="17.97101449275362" y="83.6413043478261" as="sourcePoint" />
            <mxPoint x="17.97101449275362" y="11.152173913043478" as="targetPoint" />
          </mxGeometry>
        </mxCell>
        <mxCell id="Tvwaqk257zbarVCUoJn4-122" value="" style="endArrow=classic;html=1;strokeColor=#FF8000;" parent="Tvwaqk257zbarVCUoJn4-118" edge="1">
          <mxGeometry y="22.304347826086957" width="44.927536231884055" height="38.33559782608695" as="geometry">
            <mxPoint x="26.95652173913043" y="83.6413043478261" as="sourcePoint" />
            <mxPoint x="26.95652173913043" y="22.304347826086957" as="targetPoint" />
          </mxGeometry>
        </mxCell>
        <mxCell id="Tvwaqk257zbarVCUoJn4-123" value="" style="endArrow=classic;html=1;strokeColor=#FF8000;" parent="Tvwaqk257zbarVCUoJn4-118" edge="1">
          <mxGeometry y="22.304347826086957" width="44.927536231884055" height="38.33559782608695" as="geometry">
            <mxPoint x="35.94202898550724" y="83.6413043478261" as="sourcePoint" />
            <mxPoint x="35.94202898550724" as="targetPoint" />
          </mxGeometry>
        </mxCell>
        <mxCell id="Tvwaqk257zbarVCUoJn4-124" value="" style="endArrow=classic;html=1;strokeColor=#FF8000;" parent="Tvwaqk257zbarVCUoJn4-118" edge="1">
          <mxGeometry y="22.304347826086957" width="44.927536231884055" height="38.33559782608695" as="geometry">
            <mxPoint x="44.927536231884055" y="83.6413043478261" as="sourcePoint" />
            <mxPoint x="44.927536231884055" y="16.72826086956522" as="targetPoint" />
          </mxGeometry>
        </mxCell>
        <mxCell id="Tvwaqk257zbarVCUoJn4-125" value="" style="group" parent="NTuUF_2zJ3j__ovih33A-9" vertex="1" connectable="0">
          <mxGeometry x="179.71014492753622" width="44.3255072463768" height="89.21739130434783" as="geometry" />
        </mxCell>
        <mxCell id="Tvwaqk257zbarVCUoJn4-126" value="" style="endArrow=classic;html=1;strokeColor=#FF8000;" parent="Tvwaqk257zbarVCUoJn4-125" edge="1">
          <mxGeometry y="5.576086956521739" width="44.927536231884055" height="38.33559782608695" as="geometry">
            <mxPoint y="89.21739130434783" as="sourcePoint" />
            <mxPoint y="5.576086956521739" as="targetPoint" />
          </mxGeometry>
        </mxCell>
        <mxCell id="Tvwaqk257zbarVCUoJn4-127" value="" style="endArrow=classic;html=1;strokeColor=#FF8000;" parent="Tvwaqk257zbarVCUoJn4-125" edge="1">
          <mxGeometry y="11.152173913043478" width="44.927536231884055" height="38.33559782608695" as="geometry">
            <mxPoint x="8.985507246376812" y="89.21739130434783" as="sourcePoint" />
            <mxPoint x="8.985507246376812" y="11.152173913043478" as="targetPoint" />
            <Array as="points">
              <mxPoint x="8.985507246376812" y="11.152173913043478" />
            </Array>
          </mxGeometry>
        </mxCell>
        <mxCell id="Tvwaqk257zbarVCUoJn4-128" value="" style="endArrow=classic;html=1;strokeColor=#FF8000;" parent="Tvwaqk257zbarVCUoJn4-125" edge="1">
          <mxGeometry y="22.304347826086957" width="44.927536231884055" height="38.33559782608695" as="geometry">
            <mxPoint x="17.971014492753625" y="89.21739130434783" as="sourcePoint" />
            <mxPoint x="17.971014492753625" y="22.304347826086957" as="targetPoint" />
          </mxGeometry>
        </mxCell>
        <mxCell id="Tvwaqk257zbarVCUoJn4-129" value="" style="endArrow=classic;html=1;strokeColor=#FF8000;" parent="Tvwaqk257zbarVCUoJn4-125" edge="1">
          <mxGeometry y="5.576086956521739" width="44.927536231884055" height="38.33559782608695" as="geometry">
            <mxPoint x="26.956521739130434" y="89.21739130434783" as="sourcePoint" />
            <mxPoint x="26.956521739130434" y="5.576086956521739" as="targetPoint" />
          </mxGeometry>
        </mxCell>
        <mxCell id="Tvwaqk257zbarVCUoJn4-130" value="" style="endArrow=classic;html=1;strokeColor=#FF8000;" parent="Tvwaqk257zbarVCUoJn4-125" edge="1">
          <mxGeometry width="44.927536231884055" height="38.33559782608695" as="geometry">
            <mxPoint x="35.94202898550725" y="89.21739130434783" as="sourcePoint" />
            <mxPoint x="35.94202898550725" as="targetPoint" />
          </mxGeometry>
        </mxCell>
        <mxCell id="Tvwaqk257zbarVCUoJn4-131" value="" style="endArrow=classic;html=1;strokeColor=#FF8000;" parent="Tvwaqk257zbarVCUoJn4-125" edge="1">
          <mxGeometry x="-0.6020289855072607" y="16.72826086956522" width="44.927536231884055" height="38.33559782608695" as="geometry">
            <mxPoint x="44.02898550724638" y="89.21739130434783" as="sourcePoint" />
            <mxPoint x="44.3255072463768" y="16.72826086956522" as="targetPoint" />
          </mxGeometry>
        </mxCell>
        <mxCell id="Tvwaqk257zbarVCUoJn4-133" value="" style="endArrow=classic;html=1;" parent="NTuUF_2zJ3j__ovih33A-9" edge="1">
          <mxGeometry x="17.971014492753625" y="111.52173913043478" width="44.927536231884055" height="27.880434782608695" as="geometry">
            <mxPoint x="17.971014492753625" y="89.21739130434783" as="sourcePoint" />
            <mxPoint x="17.971014492753625" y="156.1304347826087" as="targetPoint" />
          </mxGeometry>
        </mxCell>
        <mxCell id="Tvwaqk257zbarVCUoJn4-134" value="" style="endArrow=classic;html=1;" parent="NTuUF_2zJ3j__ovih33A-9" edge="1">
          <mxGeometry x="17.971014492753625" y="89.21739130434783" width="44.927536231884055" height="27.880434782608695" as="geometry">
            <mxPoint x="26.956521739130434" y="89.21739130434783" as="sourcePoint" />
            <mxPoint x="26.956521739130434" y="133.82608695652175" as="targetPoint" />
            <Array as="points">
              <mxPoint x="26.956521739130434" y="89.21739130434783" />
            </Array>
          </mxGeometry>
        </mxCell>
        <mxCell id="Tvwaqk257zbarVCUoJn4-135" value="" style="endArrow=classic;html=1;" parent="NTuUF_2zJ3j__ovih33A-9" edge="1">
          <mxGeometry x="17.971014492753625" y="122.67391304347825" width="44.927536231884055" height="27.880434782608695" as="geometry">
            <mxPoint x="35.94202898550725" y="89.21739130434783" as="sourcePoint" />
            <mxPoint x="35.94202898550725" y="167.2826086956522" as="targetPoint" />
          </mxGeometry>
        </mxCell>
        <mxCell id="Tvwaqk257zbarVCUoJn4-136" value="" style="endArrow=classic;html=1;" parent="NTuUF_2zJ3j__ovih33A-9" edge="1">
          <mxGeometry x="17.971014492753625" y="100.36956521739131" width="44.927536231884055" height="27.880434782608695" as="geometry">
            <mxPoint x="44.927536231884055" y="89.21739130434783" as="sourcePoint" />
            <mxPoint x="44.927536231884055" y="144.97826086956522" as="targetPoint" />
          </mxGeometry>
        </mxCell>
        <mxCell id="Tvwaqk257zbarVCUoJn4-137" value="" style="endArrow=classic;html=1;" parent="NTuUF_2zJ3j__ovih33A-9" edge="1">
          <mxGeometry x="17.971014492753625" y="111.52173913043478" width="44.927536231884055" height="27.880434782608695" as="geometry">
            <mxPoint x="53.91304347826087" y="89.21739130434783" as="sourcePoint" />
            <mxPoint x="53.91304347826087" y="156.1304347826087" as="targetPoint" />
          </mxGeometry>
        </mxCell>
        <mxCell id="Tvwaqk257zbarVCUoJn4-138" value="" style="endArrow=classic;html=1;" parent="NTuUF_2zJ3j__ovih33A-9" edge="1">
          <mxGeometry x="17.971014492753625" y="94.79347826086956" width="44.927536231884055" height="27.880434782608695" as="geometry">
            <mxPoint x="62.89855072463769" y="89.21739130434783" as="sourcePoint" />
            <mxPoint x="62.89855072463769" y="139.40217391304347" as="targetPoint" />
          </mxGeometry>
        </mxCell>
        <mxCell id="Tvwaqk257zbarVCUoJn4-140" value="" style="endArrow=classic;html=1;" parent="NTuUF_2zJ3j__ovih33A-9" edge="1">
          <mxGeometry x="125.79710144927537" y="89.21739130434783" width="44.927536231884055" height="27.880434782608695" as="geometry">
            <mxPoint x="125.79710144927537" y="89.21739130434783" as="sourcePoint" />
            <mxPoint x="125.79710144927537" y="133.82608695652175" as="targetPoint" />
          </mxGeometry>
        </mxCell>
        <mxCell id="Tvwaqk257zbarVCUoJn4-141" value="" style="endArrow=classic;html=1;" parent="NTuUF_2zJ3j__ovih33A-9" edge="1">
          <mxGeometry x="125.79710144927537" y="89.21739130434783" width="44.927536231884055" height="27.880434782608695" as="geometry">
            <mxPoint x="134.78260869565216" y="89.21739130434783" as="sourcePoint" />
            <mxPoint x="134.78260869565216" y="161.70652173913044" as="targetPoint" />
            <Array as="points">
              <mxPoint x="134.78260869565216" y="89.21739130434783" />
            </Array>
          </mxGeometry>
        </mxCell>
        <mxCell id="Tvwaqk257zbarVCUoJn4-142" value="" style="endArrow=classic;html=1;" parent="NTuUF_2zJ3j__ovih33A-9" edge="1">
          <mxGeometry x="125.79710144927537" y="89.21739130434783" width="44.927536231884055" height="27.880434782608695" as="geometry">
            <mxPoint x="143.768115942029" y="89.21739130434783" as="sourcePoint" />
            <mxPoint x="143.768115942029" y="150.55434782608697" as="targetPoint" />
          </mxGeometry>
        </mxCell>
        <mxCell id="Tvwaqk257zbarVCUoJn4-143" value="" style="endArrow=classic;html=1;" parent="NTuUF_2zJ3j__ovih33A-9" edge="1">
          <mxGeometry x="125.79710144927537" y="89.21739130434783" width="44.927536231884055" height="27.880434782608695" as="geometry">
            <mxPoint x="152.75362318840578" y="89.21739130434783" as="sourcePoint" />
            <mxPoint x="152.75362318840578" y="167.2826086956522" as="targetPoint" />
          </mxGeometry>
        </mxCell>
        <mxCell id="Tvwaqk257zbarVCUoJn4-144" value="" style="endArrow=classic;html=1;" parent="NTuUF_2zJ3j__ovih33A-9" edge="1">
          <mxGeometry x="125.79710144927537" y="89.21739130434783" width="44.927536231884055" height="27.880434782608695" as="geometry">
            <mxPoint x="161.73913043478262" y="89.21739130434783" as="sourcePoint" />
            <mxPoint x="161.73913043478262" y="156.1304347826087" as="targetPoint" />
          </mxGeometry>
        </mxCell>
        <mxCell id="Tvwaqk257zbarVCUoJn4-145" value="" style="endArrow=classic;html=1;" parent="NTuUF_2zJ3j__ovih33A-9" edge="1">
          <mxGeometry x="125.79710144927537" y="89.21739130434783" width="44.927536231884055" height="27.880434782608695" as="geometry">
            <mxPoint x="170.72463768115944" y="89.21739130434783" as="sourcePoint" />
            <mxPoint x="170.72463768115944" y="142.19021739130434" as="targetPoint" />
          </mxGeometry>
        </mxCell>
        <mxCell id="NTuUF_2zJ3j__ovih33A-10" value="" style="group" parent="y0exCxsh5PRNmsqIgSbH-0" vertex="1" connectable="0">
          <mxGeometry x="98.84057971014492" y="607.5" width="35.94202898550725" height="88.04347826086956" as="geometry" />
        </mxCell>
        <mxCell id="iKZNlaza2PBG03GFL4CP-10" value="" style="endArrow=none;dashed=1;html=1;dashPattern=1 3;strokeWidth=2;startArrow=none;startFill=0;" parent="NTuUF_2zJ3j__ovih33A-10" edge="1">
          <mxGeometry width="50" height="50" relative="1" as="geometry">
            <mxPoint x="17.81609195402295" y="33.45652173913044" as="sourcePoint" />
            <mxPoint x="17.52173913043478" as="targetPoint" />
          </mxGeometry>
        </mxCell>
        <mxCell id="iKZNlaza2PBG03GFL4CP-12" value="" style="endArrow=none;dashed=1;html=1;dashPattern=1 3;strokeWidth=2;startArrow=classic;startFill=1;" parent="NTuUF_2zJ3j__ovih33A-10" edge="1">
          <mxGeometry width="50" height="50" relative="1" as="geometry">
            <mxPoint x="17.971014492753625" y="88.04347826086956" as="sourcePoint" />
            <mxPoint x="17.971014492753625" y="61.630434782608695" as="targetPoint" />
          </mxGeometry>
        </mxCell>
        <mxCell id="NTuUF_2zJ3j__ovih33A-0" value="Low pass filter" style="verticalLabelPosition=middle;shadow=0;dashed=0;align=left;html=1;verticalAlign=middle;shape=mxgraph.electrical.logic_gates.lowpass_filter;fillColor=#fff2cc;strokeColor=#d6b656;labelPosition=right;" parent="NTuUF_2zJ3j__ovih33A-10" vertex="1">
          <mxGeometry y="26.41304347826087" width="35.94202898550725" height="31.695652173913043" as="geometry" />
        </mxCell>
        <mxCell id="NTuUF_2zJ3j__ovih33A-11" value="" style="group" parent="y0exCxsh5PRNmsqIgSbH-0" vertex="1" connectable="0">
          <mxGeometry x="17.971014492753625" y="713.1521739130435" width="287.536231884058" height="96.84782608695653" as="geometry" />
        </mxCell>
        <mxCell id="iKZNlaza2PBG03GFL4CP-4" value="" style="endArrow=classic;html=1;" parent="NTuUF_2zJ3j__ovih33A-11" edge="1">
          <mxGeometry width="50" height="50" relative="1" as="geometry">
            <mxPoint x="8.985507246376812" y="70.43478260869566" as="sourcePoint" />
            <mxPoint x="8.985507246376812" as="targetPoint" />
          </mxGeometry>
        </mxCell>
        <mxCell id="iKZNlaza2PBG03GFL4CP-5" value="" style="endArrow=classic;html=1;" parent="NTuUF_2zJ3j__ovih33A-11" edge="1">
          <mxGeometry width="50" height="50" relative="1" as="geometry">
            <mxPoint y="52.38586956521739" as="sourcePoint" />
            <mxPoint x="287.536231884058" y="52.38586956521739" as="targetPoint" />
          </mxGeometry>
        </mxCell>
        <mxCell id="iKZNlaza2PBG03GFL4CP-8" value="" style="rounded=0;whiteSpace=wrap;html=1;fillColor=#ffe6cc;strokeColor=#d79b00;dashed=1;" parent="NTuUF_2zJ3j__ovih33A-11" vertex="1">
          <mxGeometry x="58.405797101449274" y="35.21739130434783" width="62.89855072463769" height="17.608695652173914" as="geometry" />
        </mxCell>
        <mxCell id="iKZNlaza2PBG03GFL4CP-9" value="" style="rounded=0;whiteSpace=wrap;html=1;fillColor=#ffe6cc;strokeColor=#d79b00;dashed=1;" parent="NTuUF_2zJ3j__ovih33A-11" vertex="1">
          <mxGeometry x="184.20289855072463" y="26.41304347826087" width="62.89855072463769" height="26.41304347826087" as="geometry" />
        </mxCell>
        <mxCell id="NTuUF_2zJ3j__ovih33A-3" value="" style="curved=1;endArrow=none;html=1;endFill=0;fillColor=#ffe6cc;strokeWidth=2;strokeColor=#FFB366;" parent="NTuUF_2zJ3j__ovih33A-11" edge="1">
          <mxGeometry width="50" height="50" relative="1" as="geometry">
            <mxPoint x="26.057971014492754" y="52.82608695652174" as="sourcePoint" />
            <mxPoint x="278.5507246376812" y="52.82608695652174" as="targetPoint" />
            <Array as="points">
              <mxPoint x="62.89855072463769" y="52.82608695652174" />
              <mxPoint x="89.85507246376811" y="35.21739130434783" />
              <mxPoint x="116.81159420289855" y="35.21739130434783" />
              <mxPoint x="134.78260869565216" y="52.82608695652174" />
              <mxPoint x="196.78260869565216" y="52.82608695652174" />
              <mxPoint x="232.72463768115944" y="17.608695652173914" />
            </Array>
          </mxGeometry>
        </mxCell>
        <mxCell id="NTuUF_2zJ3j__ovih33A-4" value="Detector signal with noise canceled" style="text;html=1;align=center;verticalAlign=middle;resizable=0;points=[];autosize=1;" parent="NTuUF_2zJ3j__ovih33A-11" vertex="1">
          <mxGeometry x="2.026521739130434" y="66.84913043478261" width="200" height="20" as="geometry" />
        </mxCell>
        <mxCell id="Tvwaqk257zbarVCUoJn4-160" value="" style="endArrow=none;dashed=1;html=1;dashPattern=1 3;strokeWidth=2;endFill=0;startArrow=classic;startFill=1;" parent="y0exCxsh5PRNmsqIgSbH-0" edge="1">
          <mxGeometry x="121.30434782608695" y="318.7173913043478" width="44.927536231884055" height="44.02173913043478" as="geometry">
            <mxPoint x="134.78260869565216" y="380.34782608695656" as="sourcePoint" />
            <mxPoint x="134.78260869565216" y="334.5652173913044" as="targetPoint" />
          </mxGeometry>
        </mxCell>
        <mxCell id="y0exCxsh5PRNmsqIgSbH-1" value="" style="group" parent="Tvwaqk257zbarVCUoJn4-1" vertex="1" connectable="0">
          <mxGeometry x="100" y="59.998695652173865" width="310" height="105.65217391304348" as="geometry" />
        </mxCell>
        <mxCell id="y0exCxsh5PRNmsqIgSbH-4" value="" style="endArrow=classic;html=1;exitX=0.675;exitY=0.609;exitDx=0;exitDy=0;exitPerimeter=0;" parent="y0exCxsh5PRNmsqIgSbH-1" source="y0exCxsh5PRNmsqIgSbH-6" edge="1">
          <mxGeometry width="50" height="50" relative="1" as="geometry">
            <mxPoint x="31.449275362318843" y="105.65217391304348" as="sourcePoint" />
            <mxPoint x="31" y="-29.998695652173865" as="targetPoint" />
          </mxGeometry>
        </mxCell>
        <mxCell id="y0exCxsh5PRNmsqIgSbH-6" value="0&amp;nbsp; &amp;nbsp;--" style="text;html=1;align=center;verticalAlign=middle;resizable=0;points=[];autosize=1;" parent="y0exCxsh5PRNmsqIgSbH-1" vertex="1">
          <mxGeometry x="4.002753623188406" y="37.82913043478261" width="40" height="20" as="geometry" />
        </mxCell>
        <mxCell id="y0exCxsh5PRNmsqIgSbH-11" value="Time" style="text;html=1;align=center;verticalAlign=middle;resizable=0;points=[];autosize=1;" parent="y0exCxsh5PRNmsqIgSbH-1" vertex="1">
          <mxGeometry x="269.99536231884065" y="49.997826086956564" width="40" height="20" as="geometry" />
        </mxCell>
        <mxCell id="y0exCxsh5PRNmsqIgSbH-14" value="" style="rounded=0;whiteSpace=wrap;html=1;fillColor=#ffe6cc;strokeColor=#d79b00;" parent="y0exCxsh5PRNmsqIgSbH-1" vertex="1">
          <mxGeometry x="90" y="-10" width="60" height="60" as="geometry" />
        </mxCell>
        <mxCell id="y0exCxsh5PRNmsqIgSbH-15" value="" style="rounded=0;whiteSpace=wrap;html=1;fillColor=#ffe6cc;strokeColor=#d79b00;" parent="y0exCxsh5PRNmsqIgSbH-1" vertex="1">
          <mxGeometry x="210" y="-10" width="60" height="60" as="geometry" />
        </mxCell>
        <mxCell id="y0exCxsh5PRNmsqIgSbH-5" value="" style="endArrow=classic;html=1;" parent="y0exCxsh5PRNmsqIgSbH-1" edge="1">
          <mxGeometry width="50" height="50" relative="1" as="geometry">
            <mxPoint x="22.463768115942027" y="49.99586956521739" as="sourcePoint" />
            <mxPoint x="310" y="49.99586956521739" as="targetPoint" />
          </mxGeometry>
        </mxCell>
        <mxCell id="y0exCxsh5PRNmsqIgSbH-10" style="edgeStyle=orthogonalEdgeStyle;rounded=0;orthogonalLoop=1;jettySize=auto;html=1;" parent="Tvwaqk257zbarVCUoJn4-1" source="y0exCxsh5PRNmsqIgSbH-9" edge="1">
          <mxGeometry relative="1" as="geometry">
            <mxPoint x="380" y="50" as="targetPoint" />
          </mxGeometry>
        </mxCell>
        <mxCell id="y0exCxsh5PRNmsqIgSbH-9" value="Excitation signal" style="text;html=1;align=center;verticalAlign=middle;resizable=0;points=[];autosize=1;" parent="Tvwaqk257zbarVCUoJn4-1" vertex="1">
          <mxGeometry x="410" y="40" width="100" height="20" as="geometry" />
        </mxCell>
        <mxCell id="y0exCxsh5PRNmsqIgSbH-13" value="Time" style="text;html=1;align=center;verticalAlign=middle;resizable=0;points=[];autosize=1;" parent="Tvwaqk257zbarVCUoJn4-1" vertex="1">
          <mxGeometry x="403.2753623188406" y="354.45652173913044" width="40" height="20" as="geometry" />
        </mxCell>
        <mxCell id="y0exCxsh5PRNmsqIgSbH-16" value="Exitation response from target" style="text;html=1;align=center;verticalAlign=middle;resizable=0;points=[];autosize=1;" parent="Tvwaqk257zbarVCUoJn4-1" vertex="1">
          <mxGeometry x="323" y="170" width="180" height="20" as="geometry" />
        </mxCell>
        <mxCell id="y0exCxsh5PRNmsqIgSbH-18" value="" style="endArrow=classic;html=1;" parent="Tvwaqk257zbarVCUoJn4-1" source="y0exCxsh5PRNmsqIgSbH-16" edge="1">
          <mxGeometry width="50" height="50" relative="1" as="geometry">
            <mxPoint x="321" y="184" as="sourcePoint" />
            <mxPoint x="230" y="220" as="targetPoint" />
          </mxGeometry>
        </mxCell>
        <mxCell id="y0exCxsh5PRNmsqIgSbH-19" value="" style="endArrow=classic;html=1;" parent="Tvwaqk257zbarVCUoJn4-1" edge="1">
          <mxGeometry width="50" height="50" relative="1" as="geometry">
            <mxPoint x="360" y="190" as="sourcePoint" />
            <mxPoint x="350" y="210" as="targetPoint" />
          </mxGeometry>
        </mxCell>
        <mxCell id="y0exCxsh5PRNmsqIgSbH-20" value="l" style="verticalLabelPosition=bottom;shadow=0;dashed=0;align=center;html=1;verticalAlign=top;shape=mxgraph.electrical.opto_electronics.led_2;pointerEvents=1;fillColor=#e51400;strokeColor=#B20000;fontColor=#ffffff;" parent="Tvwaqk257zbarVCUoJn4-1" vertex="1">
          <mxGeometry x="590" y="60" width="50" height="30" as="geometry" />
        </mxCell>
        <mxCell id="y0exCxsh5PRNmsqIgSbH-21" value="" style="endArrow=classic;html=1;strokeWidth=2;dashed=1;dashPattern=1 1;" parent="Tvwaqk257zbarVCUoJn4-1" edge="1">
          <mxGeometry width="50" height="50" relative="1" as="geometry">
            <mxPoint x="480" y="80" as="sourcePoint" />
            <mxPoint x="570" y="80" as="targetPoint" />
          </mxGeometry>
        </mxCell>
        <mxCell id="y0exCxsh5PRNmsqIgSbH-22" value="Photodiode" style="verticalLabelPosition=bottom;shadow=0;dashed=0;align=center;html=1;verticalAlign=top;shape=mxgraph.electrical.opto_electronics.light-activated_scr;pointerEvents=1;direction=west;fillColor=#f5f5f5;strokeColor=#666666;fontColor=#333333;" parent="Tvwaqk257zbarVCUoJn4-1" vertex="1">
          <mxGeometry x="580" y="266" width="60" height="30" as="geometry" />
        </mxCell>
        <mxCell id="y0exCxsh5PRNmsqIgSbH-23" value="" style="endArrow=classic;html=1;strokeWidth=2;dashed=1;dashPattern=1 1;entryX=0.417;entryY=1.067;entryDx=0;entryDy=0;entryPerimeter=0;exitX=0.58;exitY=1.25;exitDx=0;exitDy=0;exitPerimeter=0;" parent="Tvwaqk257zbarVCUoJn4-1" source="y0exCxsh5PRNmsqIgSbH-25" target="y0exCxsh5PRNmsqIgSbH-22" edge="1">
          <mxGeometry width="50" height="50" relative="1" as="geometry">
            <mxPoint x="610" y="130" as="sourcePoint" />
            <mxPoint x="610" y="250" as="targetPoint" />
            <Array as="points">
              <mxPoint x="640" y="190" />
            </Array>
          </mxGeometry>
        </mxCell>
        <mxCell id="y0exCxsh5PRNmsqIgSbH-24" value="" style="endArrow=classic;html=1;strokeWidth=2;dashed=1;dashPattern=1 1;" parent="Tvwaqk257zbarVCUoJn4-1" edge="1">
          <mxGeometry width="50" height="50" relative="1" as="geometry">
            <mxPoint x="560" y="280" as="sourcePoint" />
            <mxPoint x="440" y="280" as="targetPoint" />
          </mxGeometry>
        </mxCell>
        <mxCell id="y0exCxsh5PRNmsqIgSbH-25" value="Laser" style="text;html=1;align=center;verticalAlign=middle;resizable=0;points=[];autosize=1;" parent="Tvwaqk257zbarVCUoJn4-1" vertex="1">
          <mxGeometry x="585" y="100" width="50" height="20" as="geometry" />
        </mxCell>
        <mxCell id="N-g_dXSmnqfDv4EDwXa6-0" value="Target" style="rounded=0;whiteSpace=wrap;html=1;fillColor=#B3B3B3;strokeColor=#666666;fontColor=#333333;" parent="Tvwaqk257zbarVCUoJn4-1" vertex="1">
          <mxGeometry x="640" y="180" width="40" height="20" as="geometry" />
        </mxCell>
      </root>
    </mxGraphModel>
  </diagram>
  <diagram name="Signals_alt" id="PIcYj_YCfkB4LgekO1x9">
    <mxGraphModel dx="1455" dy="845" grid="1" gridSize="10" guides="1" tooltips="1" connect="1" arrows="1" fold="1" page="1" pageScale="1" pageWidth="1169" pageHeight="1654" math="0" shadow="0">
      <root>
        <mxCell id="gkb846epzkZJU-U5lEdZ-0" />
        <mxCell id="gkb846epzkZJU-U5lEdZ-1" parent="gkb846epzkZJU-U5lEdZ-0" />
        <mxCell id="gkb846epzkZJU-U5lEdZ-95" value="Excitation signal" style="text;html=1;align=center;verticalAlign=middle;resizable=0;points=[];autosize=1;" parent="gkb846epzkZJU-U5lEdZ-1" vertex="1">
          <mxGeometry x="158.39" y="30" width="100" height="20" as="geometry" />
        </mxCell>
        <mxCell id="gkb846epzkZJU-U5lEdZ-96" value="Time" style="text;html=1;align=center;verticalAlign=middle;resizable=0;points=[];autosize=1;" parent="gkb846epzkZJU-U5lEdZ-1" vertex="1">
          <mxGeometry x="403.2753623188406" y="354.45652173913044" width="40" height="20" as="geometry" />
        </mxCell>
        <mxCell id="gkb846epzkZJU-U5lEdZ-97" value="Ovesampled response from target" style="text;html=1;align=center;verticalAlign=middle;resizable=0;points=[];autosize=1;" parent="gkb846epzkZJU-U5lEdZ-1" vertex="1">
          <mxGeometry x="313" y="170" width="200" height="20" as="geometry" />
        </mxCell>
        <mxCell id="gkb846epzkZJU-U5lEdZ-98" value="" style="endArrow=classic;html=1;" parent="gkb846epzkZJU-U5lEdZ-1" source="gkb846epzkZJU-U5lEdZ-97" edge="1">
          <mxGeometry width="50" height="50" relative="1" as="geometry">
            <mxPoint x="321" y="184" as="sourcePoint" />
            <mxPoint x="230" y="220" as="targetPoint" />
          </mxGeometry>
        </mxCell>
        <mxCell id="gkb846epzkZJU-U5lEdZ-99" value="" style="endArrow=classic;html=1;" parent="gkb846epzkZJU-U5lEdZ-1" edge="1">
          <mxGeometry width="50" height="50" relative="1" as="geometry">
            <mxPoint x="360" y="190" as="sourcePoint" />
            <mxPoint x="350" y="210" as="targetPoint" />
          </mxGeometry>
        </mxCell>
        <mxCell id="gkb846epzkZJU-U5lEdZ-100" value="l" style="verticalLabelPosition=bottom;shadow=0;dashed=0;align=center;html=1;verticalAlign=top;shape=mxgraph.electrical.opto_electronics.led_2;pointerEvents=1;fillColor=#e51400;strokeColor=#B20000;fontColor=#ffffff;" parent="gkb846epzkZJU-U5lEdZ-1" vertex="1">
          <mxGeometry x="663" y="40" width="50" height="30" as="geometry" />
        </mxCell>
        <mxCell id="gkb846epzkZJU-U5lEdZ-101" value="" style="endArrow=classic;html=1;strokeWidth=2;dashed=1;dashPattern=1 1;" parent="gkb846epzkZJU-U5lEdZ-1" edge="1">
          <mxGeometry width="50" height="50" relative="1" as="geometry">
            <mxPoint x="600" y="60" as="sourcePoint" />
            <mxPoint x="643" y="60" as="targetPoint" />
          </mxGeometry>
        </mxCell>
        <mxCell id="gkb846epzkZJU-U5lEdZ-102" value="Photodiode&lt;br&gt;Sensing variation in reflection&lt;br&gt;from moving target" style="verticalLabelPosition=bottom;shadow=0;dashed=0;align=center;html=1;verticalAlign=top;shape=mxgraph.electrical.opto_electronics.light-activated_scr;pointerEvents=1;direction=west;fillColor=#f5f5f5;strokeColor=#666666;fontColor=#333333;" parent="gkb846epzkZJU-U5lEdZ-1" vertex="1">
          <mxGeometry x="653" y="246" width="60" height="30" as="geometry" />
        </mxCell>
        <mxCell id="gkb846epzkZJU-U5lEdZ-103" value="" style="endArrow=classic;html=1;strokeWidth=2;dashed=1;dashPattern=1 1;entryX=0.417;entryY=1.067;entryDx=0;entryDy=0;entryPerimeter=0;exitX=0.58;exitY=1.25;exitDx=0;exitDy=0;exitPerimeter=0;fillColor=#ffe6cc;strokeColor=#CC6600;" parent="gkb846epzkZJU-U5lEdZ-1" source="gkb846epzkZJU-U5lEdZ-105" target="gkb846epzkZJU-U5lEdZ-102" edge="1">
          <mxGeometry width="50" height="50" relative="1" as="geometry">
            <mxPoint x="683" y="110" as="sourcePoint" />
            <mxPoint x="683" y="230" as="targetPoint" />
            <Array as="points">
              <mxPoint x="713" y="170" />
            </Array>
          </mxGeometry>
        </mxCell>
        <mxCell id="gkb846epzkZJU-U5lEdZ-104" value="" style="endArrow=classic;html=1;strokeWidth=2;dashed=1;dashPattern=1 1;" parent="gkb846epzkZJU-U5lEdZ-1" edge="1">
          <mxGeometry width="50" height="50" relative="1" as="geometry">
            <mxPoint x="633" y="260" as="sourcePoint" />
            <mxPoint x="590" y="260" as="targetPoint" />
          </mxGeometry>
        </mxCell>
        <mxCell id="gkb846epzkZJU-U5lEdZ-105" value="Laser" style="text;html=1;align=center;verticalAlign=middle;resizable=0;points=[];autosize=1;" parent="gkb846epzkZJU-U5lEdZ-1" vertex="1">
          <mxGeometry x="658" y="80" width="50" height="20" as="geometry" />
        </mxCell>
        <mxCell id="fDZu1O72IuAWzoKW4UvB-2" style="rounded=0;orthogonalLoop=1;jettySize=auto;html=1;endArrow=block;endFill=1;strokeColor=#000000;strokeWidth=1;dashed=1;" edge="1" parent="gkb846epzkZJU-U5lEdZ-1">
          <mxGeometry relative="1" as="geometry">
            <mxPoint x="730" y="220" as="targetPoint" />
            <mxPoint x="730" y="130" as="sourcePoint" />
          </mxGeometry>
        </mxCell>
        <mxCell id="gkb846epzkZJU-U5lEdZ-106" value="Moving&lt;br&gt;target" style="rounded=0;whiteSpace=wrap;html=1;fillColor=#B3B3B3;strokeColor=#666666;fontColor=#333333;" parent="gkb846epzkZJU-U5lEdZ-1" vertex="1">
          <mxGeometry x="713" y="149" width="47" height="30" as="geometry" />
        </mxCell>
        <mxCell id="6Qe2QqncxI4OXolVs0ZS-1" value="-" style="rounded=0;orthogonalLoop=1;jettySize=auto;html=1;fontSize=32;" parent="gkb846epzkZJU-U5lEdZ-1" source="gkb846epzkZJU-U5lEdZ-243" target="fDZu1O72IuAWzoKW4UvB-69" edge="1">
          <mxGeometry relative="1" as="geometry">
            <mxPoint x="207.5" y="723" as="targetPoint" />
          </mxGeometry>
        </mxCell>
        <mxCell id="gkb846epzkZJU-U5lEdZ-243" value="&lt;b&gt;&lt;font style=&quot;font-size: 14px&quot;&gt;AWG&lt;/font&gt;&lt;/b&gt;" style="rounded=0;whiteSpace=wrap;html=1;fillColor=#d5e8d4;strokeColor=#82b366;" parent="gkb846epzkZJU-U5lEdZ-1" vertex="1">
          <mxGeometry x="112.48" y="623" width="50" height="30" as="geometry" />
        </mxCell>
        <mxCell id="fDZu1O72IuAWzoKW4UvB-78" style="edgeStyle=none;rounded=0;orthogonalLoop=1;jettySize=auto;html=1;entryX=0.5;entryY=0;entryDx=0;entryDy=0;endArrow=block;endFill=1;strokeColor=#000000;strokeWidth=1;" edge="1" parent="gkb846epzkZJU-U5lEdZ-1" source="gkb846epzkZJU-U5lEdZ-244" target="fDZu1O72IuAWzoKW4UvB-76">
          <mxGeometry relative="1" as="geometry" />
        </mxCell>
        <mxCell id="gkb846epzkZJU-U5lEdZ-244" value="&lt;b&gt;&lt;font style=&quot;font-size: 14px&quot;&gt;AWG&lt;/font&gt;&lt;/b&gt;" style="rounded=0;whiteSpace=wrap;html=1;fillColor=#d5e8d4;strokeColor=#82b366;" parent="gkb846epzkZJU-U5lEdZ-1" vertex="1">
          <mxGeometry x="587.5" y="623" width="50" height="30" as="geometry" />
        </mxCell>
        <mxCell id="gkb846epzkZJU-U5lEdZ-245" value="" style="shape=curlyBracket;whiteSpace=wrap;html=1;rounded=1;flipH=1;fontSize=14;direction=north;" parent="gkb846epzkZJU-U5lEdZ-1" vertex="1">
          <mxGeometry x="54.980000000000004" y="576.33" width="165" height="40" as="geometry" />
        </mxCell>
        <mxCell id="gkb846epzkZJU-U5lEdZ-246" value="" style="shape=curlyBracket;whiteSpace=wrap;html=1;rounded=1;flipH=1;fontSize=14;direction=north;" parent="gkb846epzkZJU-U5lEdZ-1" vertex="1">
          <mxGeometry x="530" y="579.33" width="165" height="40" as="geometry" />
        </mxCell>
        <mxCell id="fDZu1O72IuAWzoKW4UvB-4" value="" style="group" vertex="1" connectable="0" parent="gkb846epzkZJU-U5lEdZ-1">
          <mxGeometry x="342.99811594202896" y="250.00347826086957" width="44.927536231884055" height="95.8695652173913" as="geometry" />
        </mxCell>
        <mxCell id="fDZu1O72IuAWzoKW4UvB-5" value="" style="endArrow=classic;html=1;" edge="1" parent="fDZu1O72IuAWzoKW4UvB-4">
          <mxGeometry y="41.086956521739125" width="44.927536231884055" height="34.23913043478261" as="geometry">
            <mxPoint y="95.8695652173913" as="sourcePoint" />
            <mxPoint y="41.086956521739125" as="targetPoint" />
          </mxGeometry>
        </mxCell>
        <mxCell id="fDZu1O72IuAWzoKW4UvB-6" value="" style="endArrow=classic;html=1;" edge="1" parent="fDZu1O72IuAWzoKW4UvB-4">
          <mxGeometry y="6.847826086956521" width="44.927536231884055" height="34.23913043478261" as="geometry">
            <mxPoint x="8.98550724637681" y="95.8695652173913" as="sourcePoint" />
            <mxPoint x="8.98550724637681" y="6.847826086956521" as="targetPoint" />
            <Array as="points">
              <mxPoint x="8.98550724637681" y="6.847826086956521" />
            </Array>
          </mxGeometry>
        </mxCell>
        <mxCell id="fDZu1O72IuAWzoKW4UvB-7" value="" style="endArrow=classic;html=1;" edge="1" parent="fDZu1O72IuAWzoKW4UvB-4">
          <mxGeometry y="20.543478260869563" width="44.927536231884055" height="34.23913043478261" as="geometry">
            <mxPoint x="17.97101449275362" y="95.8695652173913" as="sourcePoint" />
            <mxPoint x="17.97101449275362" y="20.543478260869563" as="targetPoint" />
          </mxGeometry>
        </mxCell>
        <mxCell id="fDZu1O72IuAWzoKW4UvB-8" value="" style="endArrow=classic;html=1;" edge="1" parent="fDZu1O72IuAWzoKW4UvB-4">
          <mxGeometry width="44.927536231884055" height="34.23913043478261" as="geometry">
            <mxPoint x="26.95652173913043" y="95.8695652173913" as="sourcePoint" />
            <mxPoint x="26.95652173913043" as="targetPoint" />
          </mxGeometry>
        </mxCell>
        <mxCell id="fDZu1O72IuAWzoKW4UvB-9" value="" style="endArrow=classic;html=1;" edge="1" parent="fDZu1O72IuAWzoKW4UvB-4">
          <mxGeometry y="13.695652173913041" width="44.927536231884055" height="34.23913043478261" as="geometry">
            <mxPoint x="35.94202898550724" y="95.8695652173913" as="sourcePoint" />
            <mxPoint x="35.94202898550724" y="13.695652173913041" as="targetPoint" />
          </mxGeometry>
        </mxCell>
        <mxCell id="fDZu1O72IuAWzoKW4UvB-10" value="" style="endArrow=classic;html=1;" edge="1" parent="fDZu1O72IuAWzoKW4UvB-4">
          <mxGeometry y="30.815217391304344" width="44.927536231884055" height="34.23913043478261" as="geometry">
            <mxPoint x="44.927536231884055" y="95.8695652173913" as="sourcePoint" />
            <mxPoint x="44.927536231884055" y="30.815217391304344" as="targetPoint" />
          </mxGeometry>
        </mxCell>
        <mxCell id="fDZu1O72IuAWzoKW4UvB-11" value="" style="group" vertex="1" connectable="0" parent="gkb846epzkZJU-U5lEdZ-1">
          <mxGeometry x="398" y="220" width="44.33" height="126.56" as="geometry" />
        </mxCell>
        <mxCell id="fDZu1O72IuAWzoKW4UvB-12" value="" style="endArrow=classic;html=1;strokeColor=#FF8000;" edge="1" parent="fDZu1O72IuAWzoKW4UvB-11">
          <mxGeometry y="7.91" width="44.932090006081495" height="54.38125" as="geometry">
            <mxPoint y="126.56" as="sourcePoint" />
            <mxPoint y="7.91" as="targetPoint" />
          </mxGeometry>
        </mxCell>
        <mxCell id="fDZu1O72IuAWzoKW4UvB-13" value="" style="endArrow=classic;html=1;strokeColor=#FF8000;" edge="1" parent="fDZu1O72IuAWzoKW4UvB-11">
          <mxGeometry y="15.82" width="44.932090006081495" height="54.38125" as="geometry">
            <mxPoint x="8.9864180012163" y="126.56" as="sourcePoint" />
            <mxPoint x="8.9864180012163" y="15.82" as="targetPoint" />
            <Array as="points">
              <mxPoint x="8.9864180012163" y="15.82" />
            </Array>
          </mxGeometry>
        </mxCell>
        <mxCell id="fDZu1O72IuAWzoKW4UvB-14" value="" style="endArrow=classic;html=1;strokeColor=#FF8000;" edge="1" parent="fDZu1O72IuAWzoKW4UvB-11">
          <mxGeometry y="31.64" width="44.932090006081495" height="54.38125" as="geometry">
            <mxPoint x="17.9728360024326" y="126.56" as="sourcePoint" />
            <mxPoint x="17.9728360024326" y="31.64" as="targetPoint" />
          </mxGeometry>
        </mxCell>
        <mxCell id="fDZu1O72IuAWzoKW4UvB-15" value="" style="endArrow=classic;html=1;strokeColor=#FF8000;" edge="1" parent="fDZu1O72IuAWzoKW4UvB-11">
          <mxGeometry y="7.91" width="44.932090006081495" height="54.38125" as="geometry">
            <mxPoint x="26.959254003648898" y="126.56" as="sourcePoint" />
            <mxPoint x="26.959254003648898" y="7.91" as="targetPoint" />
          </mxGeometry>
        </mxCell>
        <mxCell id="fDZu1O72IuAWzoKW4UvB-16" value="" style="endArrow=classic;html=1;strokeColor=#FF8000;" edge="1" parent="fDZu1O72IuAWzoKW4UvB-11">
          <mxGeometry width="44.932090006081495" height="54.38125" as="geometry">
            <mxPoint x="35.9456720048652" y="126.56" as="sourcePoint" />
            <mxPoint x="35.9456720048652" as="targetPoint" />
          </mxGeometry>
        </mxCell>
        <mxCell id="fDZu1O72IuAWzoKW4UvB-17" value="" style="endArrow=classic;html=1;strokeColor=#FF8000;" edge="1" parent="fDZu1O72IuAWzoKW4UvB-11">
          <mxGeometry x="-0.6020900060815064" y="23.730000000000004" width="44.932090006081495" height="54.38125" as="geometry">
            <mxPoint x="44.03344820595988" y="126.56" as="sourcePoint" />
            <mxPoint x="44.33" y="23.730000000000004" as="targetPoint" />
          </mxGeometry>
        </mxCell>
        <mxCell id="fDZu1O72IuAWzoKW4UvB-18" value="" style="group" vertex="1" connectable="0" parent="gkb846epzkZJU-U5lEdZ-1">
          <mxGeometry x="449.99811594202896" y="250.00347826086954" width="44.927536231884055" height="95.8695652173913" as="geometry" />
        </mxCell>
        <mxCell id="fDZu1O72IuAWzoKW4UvB-19" value="" style="endArrow=classic;html=1;" edge="1" parent="fDZu1O72IuAWzoKW4UvB-18">
          <mxGeometry y="41.086956521739125" width="44.927536231884055" height="34.23913043478261" as="geometry">
            <mxPoint y="95.8695652173913" as="sourcePoint" />
            <mxPoint y="41.086956521739125" as="targetPoint" />
          </mxGeometry>
        </mxCell>
        <mxCell id="fDZu1O72IuAWzoKW4UvB-20" value="" style="endArrow=classic;html=1;" edge="1" parent="fDZu1O72IuAWzoKW4UvB-18">
          <mxGeometry y="6.847826086956521" width="44.927536231884055" height="34.23913043478261" as="geometry">
            <mxPoint x="8.98550724637681" y="95.8695652173913" as="sourcePoint" />
            <mxPoint x="8.98550724637681" y="6.847826086956521" as="targetPoint" />
            <Array as="points">
              <mxPoint x="8.98550724637681" y="6.847826086956521" />
            </Array>
          </mxGeometry>
        </mxCell>
        <mxCell id="fDZu1O72IuAWzoKW4UvB-21" value="" style="endArrow=classic;html=1;" edge="1" parent="fDZu1O72IuAWzoKW4UvB-18">
          <mxGeometry y="20.543478260869563" width="44.927536231884055" height="34.23913043478261" as="geometry">
            <mxPoint x="17.97101449275362" y="95.8695652173913" as="sourcePoint" />
            <mxPoint x="17.97101449275362" y="20.543478260869563" as="targetPoint" />
          </mxGeometry>
        </mxCell>
        <mxCell id="fDZu1O72IuAWzoKW4UvB-22" value="" style="endArrow=classic;html=1;" edge="1" parent="fDZu1O72IuAWzoKW4UvB-18">
          <mxGeometry width="44.927536231884055" height="34.23913043478261" as="geometry">
            <mxPoint x="26.95652173913043" y="95.8695652173913" as="sourcePoint" />
            <mxPoint x="26.95652173913043" as="targetPoint" />
          </mxGeometry>
        </mxCell>
        <mxCell id="fDZu1O72IuAWzoKW4UvB-23" value="" style="endArrow=classic;html=1;" edge="1" parent="fDZu1O72IuAWzoKW4UvB-18">
          <mxGeometry y="13.695652173913041" width="44.927536231884055" height="34.23913043478261" as="geometry">
            <mxPoint x="35.94202898550724" y="95.8695652173913" as="sourcePoint" />
            <mxPoint x="35.94202898550724" y="13.695652173913041" as="targetPoint" />
          </mxGeometry>
        </mxCell>
        <mxCell id="fDZu1O72IuAWzoKW4UvB-24" value="" style="endArrow=classic;html=1;" edge="1" parent="fDZu1O72IuAWzoKW4UvB-18">
          <mxGeometry y="30.815217391304344" width="44.927536231884055" height="34.23913043478261" as="geometry">
            <mxPoint x="44.927536231884055" y="95.8695652173913" as="sourcePoint" />
            <mxPoint x="44.927536231884055" y="30.815217391304344" as="targetPoint" />
          </mxGeometry>
        </mxCell>
        <mxCell id="fDZu1O72IuAWzoKW4UvB-25" value="" style="group" vertex="1" connectable="0" parent="gkb846epzkZJU-U5lEdZ-1">
          <mxGeometry x="502" y="220" width="44.93" height="125.71" as="geometry" />
        </mxCell>
        <mxCell id="fDZu1O72IuAWzoKW4UvB-26" value="" style="endArrow=classic;html=1;startSize=6;strokeColor=#FF8000;arcSize=20;" edge="1" parent="fDZu1O72IuAWzoKW4UvB-25">
          <mxGeometry y="33.522666666666666" width="44.93" height="57.617083333333326" as="geometry">
            <mxPoint y="125.71" as="sourcePoint" />
            <mxPoint y="8.380666666666666" as="targetPoint" />
          </mxGeometry>
        </mxCell>
        <mxCell id="fDZu1O72IuAWzoKW4UvB-27" value="" style="endArrow=classic;html=1;strokeColor=#FF8000;" edge="1" parent="fDZu1O72IuAWzoKW4UvB-25">
          <mxGeometry y="33.522666666666666" width="44.93" height="57.617083333333326" as="geometry">
            <mxPoint x="8.985999999999999" y="125.71" as="sourcePoint" />
            <mxPoint x="8.985999999999999" y="33.522666666666666" as="targetPoint" />
            <Array as="points">
              <mxPoint x="8.985999999999999" y="33.522666666666666" />
            </Array>
          </mxGeometry>
        </mxCell>
        <mxCell id="fDZu1O72IuAWzoKW4UvB-28" value="" style="endArrow=classic;html=1;strokeColor=#FF8000;" edge="1" parent="fDZu1O72IuAWzoKW4UvB-25">
          <mxGeometry y="33.522666666666666" width="44.93" height="57.617083333333326" as="geometry">
            <mxPoint x="17.971999999999998" y="125.71" as="sourcePoint" />
            <mxPoint x="17.971999999999998" y="16.761333333333333" as="targetPoint" />
          </mxGeometry>
        </mxCell>
        <mxCell id="fDZu1O72IuAWzoKW4UvB-29" value="" style="endArrow=classic;html=1;strokeColor=#FF8000;" edge="1" parent="fDZu1O72IuAWzoKW4UvB-25">
          <mxGeometry y="33.522666666666666" width="44.93" height="57.617083333333326" as="geometry">
            <mxPoint x="26.958" y="125.71" as="sourcePoint" />
            <mxPoint x="26.958" y="33.522666666666666" as="targetPoint" />
          </mxGeometry>
        </mxCell>
        <mxCell id="fDZu1O72IuAWzoKW4UvB-30" value="" style="endArrow=classic;html=1;strokeColor=#FF8000;" edge="1" parent="fDZu1O72IuAWzoKW4UvB-25">
          <mxGeometry y="33.522666666666666" width="44.93" height="57.617083333333326" as="geometry">
            <mxPoint x="35.943999999999996" y="125.71" as="sourcePoint" />
            <mxPoint x="35.943999999999996" as="targetPoint" />
          </mxGeometry>
        </mxCell>
        <mxCell id="fDZu1O72IuAWzoKW4UvB-31" value="" style="endArrow=classic;html=1;strokeColor=#FF8000;" edge="1" parent="fDZu1O72IuAWzoKW4UvB-25">
          <mxGeometry y="33.522666666666666" width="44.93" height="57.617083333333326" as="geometry">
            <mxPoint x="44.93" y="125.71" as="sourcePoint" />
            <mxPoint x="44.93" y="25.142" as="targetPoint" />
          </mxGeometry>
        </mxCell>
        <mxCell id="fDZu1O72IuAWzoKW4UvB-32" value="" style="group" vertex="1" connectable="0" parent="gkb846epzkZJU-U5lEdZ-1">
          <mxGeometry x="264.0020289855072" y="473.00347826086966" width="44.927536231884055" height="95.8695652173913" as="geometry" />
        </mxCell>
        <mxCell id="fDZu1O72IuAWzoKW4UvB-33" value="" style="endArrow=oval;html=1;strokeWidth=0;endFill=1;" edge="1" parent="fDZu1O72IuAWzoKW4UvB-32">
          <mxGeometry y="41.086956521739125" width="44.927536231884055" height="34.23913043478261" as="geometry">
            <mxPoint y="95.8695652173913" as="sourcePoint" />
            <mxPoint y="13.69565217391304" as="targetPoint" />
          </mxGeometry>
        </mxCell>
        <mxCell id="fDZu1O72IuAWzoKW4UvB-34" value="" style="endArrow=oval;html=1;strokeWidth=0;endFill=1;" edge="1" parent="fDZu1O72IuAWzoKW4UvB-32">
          <mxGeometry y="41.086956521739125" width="44.927536231884055" height="34.23913043478261" as="geometry">
            <mxPoint x="8.985507246376812" y="95.8695652173913" as="sourcePoint" />
            <mxPoint x="8.985507246376812" y="41.086956521739125" as="targetPoint" />
            <Array as="points">
              <mxPoint x="8.985507246376812" y="41.086956521739125" />
            </Array>
          </mxGeometry>
        </mxCell>
        <mxCell id="fDZu1O72IuAWzoKW4UvB-35" value="" style="endArrow=oval;html=1;strokeWidth=0;endFill=1;" edge="1" parent="fDZu1O72IuAWzoKW4UvB-32">
          <mxGeometry y="41.086956521739125" width="44.927536231884055" height="34.23913043478261" as="geometry">
            <mxPoint x="17.971014492753625" y="95.8695652173913" as="sourcePoint" />
            <mxPoint x="17.971014492753625" as="targetPoint" />
          </mxGeometry>
        </mxCell>
        <mxCell id="fDZu1O72IuAWzoKW4UvB-36" value="" style="endArrow=oval;html=1;strokeWidth=0;endFill=1;" edge="1" parent="fDZu1O72IuAWzoKW4UvB-32">
          <mxGeometry y="41.086956521739125" width="44.927536231884055" height="34.23913043478261" as="geometry">
            <mxPoint x="26.95652173913043" y="95.8695652173913" as="sourcePoint" />
            <mxPoint x="26.95652173913043" y="27.39130434782608" as="targetPoint" />
          </mxGeometry>
        </mxCell>
        <mxCell id="fDZu1O72IuAWzoKW4UvB-37" value="" style="endArrow=oval;html=1;strokeWidth=0;endFill=1;" edge="1" parent="fDZu1O72IuAWzoKW4UvB-32">
          <mxGeometry y="41.086956521739125" width="44.927536231884055" height="34.23913043478261" as="geometry">
            <mxPoint x="35.94202898550724" y="95.8695652173913" as="sourcePoint" />
            <mxPoint x="35.94202898550724" y="13.69565217391304" as="targetPoint" />
          </mxGeometry>
        </mxCell>
        <mxCell id="fDZu1O72IuAWzoKW4UvB-38" value="" style="endArrow=oval;html=1;strokeWidth=0;endFill=1;" edge="1" parent="fDZu1O72IuAWzoKW4UvB-32">
          <mxGeometry y="41.086956521739125" width="44.927536231884055" height="34.23913043478261" as="geometry">
            <mxPoint x="44.927536231884055" y="95.8695652173913" as="sourcePoint" />
            <mxPoint x="44.927536231884055" y="34.23913043478261" as="targetPoint" />
          </mxGeometry>
        </mxCell>
        <mxCell id="gkb846epzkZJU-U5lEdZ-212" value="" style="endArrow=classic;html=1;" parent="gkb846epzkZJU-U5lEdZ-1" edge="1">
          <mxGeometry width="50" height="50" relative="1" as="geometry">
            <mxPoint x="55.98652173913041" y="576.2608695652174" as="sourcePoint" />
            <mxPoint x="55.98652173913041" y="453" as="targetPoint" />
          </mxGeometry>
        </mxCell>
        <mxCell id="gkb846epzkZJU-U5lEdZ-213" value="" style="endArrow=classic;html=1;" parent="gkb846epzkZJU-U5lEdZ-1" edge="1">
          <mxGeometry width="50" height="50" relative="1" as="geometry">
            <mxPoint x="47.0010144927536" y="569.4130434782609" as="sourcePoint" />
            <mxPoint x="430" y="569" as="targetPoint" />
          </mxGeometry>
        </mxCell>
        <mxCell id="1DkLUWoMOWOepLX1xLoQ-3" value="" style="group" vertex="1" connectable="0" parent="gkb846epzkZJU-U5lEdZ-1">
          <mxGeometry x="64.97202898550722" y="473.5434782608696" width="44.927536231884055" height="95.8695652173913" as="geometry" />
        </mxCell>
        <mxCell id="gkb846epzkZJU-U5lEdZ-236" value="" style="endArrow=oval;html=1;strokeWidth=0;endFill=1;" parent="1DkLUWoMOWOepLX1xLoQ-3" edge="1">
          <mxGeometry y="41.086956521739125" width="44.927536231884055" height="34.23913043478261" as="geometry">
            <mxPoint y="95.8695652173913" as="sourcePoint" />
            <mxPoint y="13.69565217391304" as="targetPoint" />
          </mxGeometry>
        </mxCell>
        <mxCell id="gkb846epzkZJU-U5lEdZ-237" value="" style="endArrow=oval;html=1;strokeWidth=0;endFill=1;" parent="1DkLUWoMOWOepLX1xLoQ-3" edge="1">
          <mxGeometry y="41.086956521739125" width="44.927536231884055" height="34.23913043478261" as="geometry">
            <mxPoint x="8.985507246376812" y="95.8695652173913" as="sourcePoint" />
            <mxPoint x="8.985507246376812" y="41.086956521739125" as="targetPoint" />
            <Array as="points">
              <mxPoint x="8.985507246376812" y="41.086956521739125" />
            </Array>
          </mxGeometry>
        </mxCell>
        <mxCell id="gkb846epzkZJU-U5lEdZ-238" value="" style="endArrow=oval;html=1;strokeWidth=0;endFill=1;" parent="1DkLUWoMOWOepLX1xLoQ-3" edge="1">
          <mxGeometry y="41.086956521739125" width="44.927536231884055" height="34.23913043478261" as="geometry">
            <mxPoint x="17.971014492753625" y="95.8695652173913" as="sourcePoint" />
            <mxPoint x="17.971014492753625" as="targetPoint" />
          </mxGeometry>
        </mxCell>
        <mxCell id="gkb846epzkZJU-U5lEdZ-239" value="" style="endArrow=oval;html=1;strokeWidth=0;endFill=1;" parent="1DkLUWoMOWOepLX1xLoQ-3" edge="1">
          <mxGeometry y="41.086956521739125" width="44.927536231884055" height="34.23913043478261" as="geometry">
            <mxPoint x="26.95652173913043" y="95.8695652173913" as="sourcePoint" />
            <mxPoint x="26.95652173913043" y="27.39130434782608" as="targetPoint" />
          </mxGeometry>
        </mxCell>
        <mxCell id="gkb846epzkZJU-U5lEdZ-240" value="" style="endArrow=oval;html=1;strokeWidth=0;endFill=1;" parent="1DkLUWoMOWOepLX1xLoQ-3" edge="1">
          <mxGeometry y="41.086956521739125" width="44.927536231884055" height="34.23913043478261" as="geometry">
            <mxPoint x="35.94202898550724" y="95.8695652173913" as="sourcePoint" />
            <mxPoint x="35.94202898550724" y="13.69565217391304" as="targetPoint" />
          </mxGeometry>
        </mxCell>
        <mxCell id="gkb846epzkZJU-U5lEdZ-241" value="" style="endArrow=oval;html=1;strokeWidth=0;endFill=1;" parent="1DkLUWoMOWOepLX1xLoQ-3" edge="1">
          <mxGeometry y="41.086956521739125" width="44.927536231884055" height="34.23913043478261" as="geometry">
            <mxPoint x="44.927536231884055" y="95.8695652173913" as="sourcePoint" />
            <mxPoint x="44.927536231884055" y="34.23913043478261" as="targetPoint" />
          </mxGeometry>
        </mxCell>
        <mxCell id="1DkLUWoMOWOepLX1xLoQ-4" value="" style="group" vertex="1" connectable="0" parent="gkb846epzkZJU-U5lEdZ-1">
          <mxGeometry x="172.8" y="463" width="44.93" height="106.41" as="geometry" />
        </mxCell>
        <mxCell id="gkb846epzkZJU-U5lEdZ-222" value="" style="endArrow=oval;html=1;strokeWidth=0;endFill=1;" parent="1DkLUWoMOWOepLX1xLoQ-4" edge="1">
          <mxGeometry y="45.60428571428571" width="44.92999999999999" height="38.00357142857143" as="geometry">
            <mxPoint y="106.41" as="sourcePoint" />
            <mxPoint y="45.60428571428571" as="targetPoint" />
          </mxGeometry>
        </mxCell>
        <mxCell id="gkb846epzkZJU-U5lEdZ-223" value="" style="endArrow=oval;html=1;strokeWidth=0;endFill=1;" parent="1DkLUWoMOWOepLX1xLoQ-4" edge="1">
          <mxGeometry y="7.600714285714284" width="44.92999999999999" height="38.00357142857143" as="geometry">
            <mxPoint x="8.985999999999999" y="106.41" as="sourcePoint" />
            <mxPoint x="8.985999999999999" y="7.600714285714284" as="targetPoint" />
            <Array as="points">
              <mxPoint x="8.985999999999999" y="7.600714285714284" />
            </Array>
          </mxGeometry>
        </mxCell>
        <mxCell id="gkb846epzkZJU-U5lEdZ-224" value="" style="endArrow=oval;html=1;strokeWidth=0;endFill=1;" parent="1DkLUWoMOWOepLX1xLoQ-4" edge="1">
          <mxGeometry y="22.802142857142854" width="44.92999999999999" height="38.00357142857143" as="geometry">
            <mxPoint x="17.971999999999998" y="106.41" as="sourcePoint" />
            <mxPoint x="17.971999999999998" y="22.802142857142854" as="targetPoint" />
          </mxGeometry>
        </mxCell>
        <mxCell id="gkb846epzkZJU-U5lEdZ-225" value="" style="endArrow=oval;html=1;strokeWidth=0;endFill=1;" parent="1DkLUWoMOWOepLX1xLoQ-4" edge="1">
          <mxGeometry width="44.92999999999999" height="38.00357142857143" as="geometry">
            <mxPoint x="26.958" y="106.41" as="sourcePoint" />
            <mxPoint x="26.958" as="targetPoint" />
          </mxGeometry>
        </mxCell>
        <mxCell id="gkb846epzkZJU-U5lEdZ-226" value="" style="endArrow=oval;html=1;strokeWidth=0;endFill=1;" parent="1DkLUWoMOWOepLX1xLoQ-4" edge="1">
          <mxGeometry y="15.201428571428568" width="44.92999999999999" height="38.00357142857143" as="geometry">
            <mxPoint x="35.943999999999996" y="106.41" as="sourcePoint" />
            <mxPoint x="35.943999999999996" y="15.201428571428568" as="targetPoint" />
          </mxGeometry>
        </mxCell>
        <mxCell id="gkb846epzkZJU-U5lEdZ-227" value="" style="endArrow=oval;html=1;strokeWidth=0;endFill=1;" parent="1DkLUWoMOWOepLX1xLoQ-4" edge="1">
          <mxGeometry y="34.20321428571428" width="44.92999999999999" height="38.00357142857143" as="geometry">
            <mxPoint x="44.93" y="106.41" as="sourcePoint" />
            <mxPoint x="44.93" y="34.20321428571428" as="targetPoint" />
          </mxGeometry>
        </mxCell>
        <mxCell id="fDZu1O72IuAWzoKW4UvB-54" value="" style="group" vertex="1" connectable="0" parent="gkb846epzkZJU-U5lEdZ-1">
          <mxGeometry x="360" y="483" width="44.93" height="85.87" as="geometry" />
        </mxCell>
        <mxCell id="fDZu1O72IuAWzoKW4UvB-55" value="" style="endArrow=oval;html=1;strokeWidth=0;endFill=1;" edge="1" parent="fDZu1O72IuAWzoKW4UvB-54">
          <mxGeometry y="36.80142857142857" width="44.92999999999999" height="30.667857142857144" as="geometry">
            <mxPoint y="85.87" as="sourcePoint" />
            <mxPoint y="36.80142857142857" as="targetPoint" />
          </mxGeometry>
        </mxCell>
        <mxCell id="fDZu1O72IuAWzoKW4UvB-56" value="" style="endArrow=oval;html=1;strokeWidth=0;endFill=1;" edge="1" parent="fDZu1O72IuAWzoKW4UvB-54">
          <mxGeometry y="6.133571428571427" width="44.92999999999999" height="30.667857142857144" as="geometry">
            <mxPoint x="8.985999999999999" y="85.87" as="sourcePoint" />
            <mxPoint x="8.985999999999999" y="6.133571428571427" as="targetPoint" />
            <Array as="points">
              <mxPoint x="8.985999999999999" y="6.133571428571427" />
            </Array>
          </mxGeometry>
        </mxCell>
        <mxCell id="fDZu1O72IuAWzoKW4UvB-57" value="" style="endArrow=oval;html=1;strokeWidth=0;endFill=1;" edge="1" parent="fDZu1O72IuAWzoKW4UvB-54">
          <mxGeometry y="18.400714285714287" width="44.92999999999999" height="30.667857142857144" as="geometry">
            <mxPoint x="17.971999999999998" y="85.87" as="sourcePoint" />
            <mxPoint x="17.971999999999998" y="18.400714285714287" as="targetPoint" />
          </mxGeometry>
        </mxCell>
        <mxCell id="fDZu1O72IuAWzoKW4UvB-58" value="" style="endArrow=oval;html=1;strokeWidth=0;endFill=1;" edge="1" parent="fDZu1O72IuAWzoKW4UvB-54">
          <mxGeometry width="44.92999999999999" height="30.667857142857144" as="geometry">
            <mxPoint x="26.958" y="85.87" as="sourcePoint" />
            <mxPoint x="26.958" as="targetPoint" />
          </mxGeometry>
        </mxCell>
        <mxCell id="fDZu1O72IuAWzoKW4UvB-59" value="" style="endArrow=oval;html=1;strokeWidth=0;endFill=1;" edge="1" parent="fDZu1O72IuAWzoKW4UvB-54">
          <mxGeometry y="12.267142857142854" width="44.92999999999999" height="30.667857142857144" as="geometry">
            <mxPoint x="35.943999999999996" y="85.87" as="sourcePoint" />
            <mxPoint x="35.943999999999996" y="12.267142857142854" as="targetPoint" />
          </mxGeometry>
        </mxCell>
        <mxCell id="fDZu1O72IuAWzoKW4UvB-60" value="" style="endArrow=oval;html=1;strokeWidth=0;endFill=1;" edge="1" parent="fDZu1O72IuAWzoKW4UvB-54">
          <mxGeometry y="27.601071428571426" width="44.92999999999999" height="30.667857142857144" as="geometry">
            <mxPoint x="44.93" y="85.87" as="sourcePoint" />
            <mxPoint x="44.93" y="27.601071428571426" as="targetPoint" />
          </mxGeometry>
        </mxCell>
        <mxCell id="gkb846epzkZJU-U5lEdZ-150" value="" style="endArrow=classic;html=1;" parent="gkb846epzkZJU-U5lEdZ-1" edge="1">
          <mxGeometry width="50" height="50" relative="1" as="geometry">
            <mxPoint x="118.98652173913041" y="353.2608695652174" as="sourcePoint" />
            <mxPoint x="118.98652173913041" y="230" as="targetPoint" />
          </mxGeometry>
        </mxCell>
        <mxCell id="gkb846epzkZJU-U5lEdZ-151" value="" style="endArrow=classic;html=1;" parent="gkb846epzkZJU-U5lEdZ-1" edge="1">
          <mxGeometry width="50" height="50" relative="1" as="geometry">
            <mxPoint x="110.0010144927536" y="346.4130434782609" as="sourcePoint" />
            <mxPoint x="560" y="346" as="targetPoint" />
          </mxGeometry>
        </mxCell>
        <mxCell id="gkb846epzkZJU-U5lEdZ-152" value="" style="group" parent="gkb846epzkZJU-U5lEdZ-1" vertex="1" connectable="0">
          <mxGeometry x="289.71" y="240" width="44.33" height="106.41" as="geometry" />
        </mxCell>
        <mxCell id="gkb846epzkZJU-U5lEdZ-153" value="" style="endArrow=classic;html=1;strokeColor=#FF8000;" parent="gkb846epzkZJU-U5lEdZ-152" edge="1">
          <mxGeometry y="6.650624999999999" width="44.932090006081495" height="45.723046874999994" as="geometry">
            <mxPoint y="106.40999999999998" as="sourcePoint" />
            <mxPoint y="6.650624999999999" as="targetPoint" />
          </mxGeometry>
        </mxCell>
        <mxCell id="gkb846epzkZJU-U5lEdZ-154" value="" style="endArrow=classic;html=1;strokeColor=#FF8000;" parent="gkb846epzkZJU-U5lEdZ-152" edge="1">
          <mxGeometry y="13.301249999999998" width="44.932090006081495" height="45.723046874999994" as="geometry">
            <mxPoint x="8.9864180012163" y="106.40999999999998" as="sourcePoint" />
            <mxPoint x="8.9864180012163" y="13.301249999999998" as="targetPoint" />
            <Array as="points">
              <mxPoint x="8.9864180012163" y="13.301249999999998" />
            </Array>
          </mxGeometry>
        </mxCell>
        <mxCell id="gkb846epzkZJU-U5lEdZ-155" value="" style="endArrow=classic;html=1;strokeColor=#FF8000;" parent="gkb846epzkZJU-U5lEdZ-152" edge="1">
          <mxGeometry y="26.602499999999996" width="44.932090006081495" height="45.723046874999994" as="geometry">
            <mxPoint x="17.9728360024326" y="106.40999999999998" as="sourcePoint" />
            <mxPoint x="17.9728360024326" y="26.602499999999996" as="targetPoint" />
          </mxGeometry>
        </mxCell>
        <mxCell id="gkb846epzkZJU-U5lEdZ-156" value="" style="endArrow=classic;html=1;strokeColor=#FF8000;" parent="gkb846epzkZJU-U5lEdZ-152" edge="1">
          <mxGeometry y="6.650624999999999" width="44.932090006081495" height="45.723046874999994" as="geometry">
            <mxPoint x="26.959254003648898" y="106.40999999999998" as="sourcePoint" />
            <mxPoint x="26.959254003648898" y="6.650624999999999" as="targetPoint" />
          </mxGeometry>
        </mxCell>
        <mxCell id="gkb846epzkZJU-U5lEdZ-157" value="" style="endArrow=classic;html=1;strokeColor=#FF8000;" parent="gkb846epzkZJU-U5lEdZ-152" edge="1">
          <mxGeometry width="44.932090006081495" height="45.723046874999994" as="geometry">
            <mxPoint x="35.9456720048652" y="106.40999999999998" as="sourcePoint" />
            <mxPoint x="35.9456720048652" as="targetPoint" />
          </mxGeometry>
        </mxCell>
        <mxCell id="gkb846epzkZJU-U5lEdZ-158" value="" style="endArrow=classic;html=1;strokeColor=#FF8000;" parent="gkb846epzkZJU-U5lEdZ-152" edge="1">
          <mxGeometry x="-0.6020900060815064" y="19.951875" width="44.932090006081495" height="45.723046874999994" as="geometry">
            <mxPoint x="44.03344820595988" y="106.40999999999998" as="sourcePoint" />
            <mxPoint x="44.33" y="19.951875" as="targetPoint" />
          </mxGeometry>
        </mxCell>
        <mxCell id="gkb846epzkZJU-U5lEdZ-159" value="" style="group" parent="gkb846epzkZJU-U5lEdZ-1" vertex="1" connectable="0">
          <mxGeometry x="235.8" y="240" width="44.93" height="106.41" as="geometry" />
        </mxCell>
        <mxCell id="gkb846epzkZJU-U5lEdZ-160" value="" style="endArrow=classic;html=1;" parent="gkb846epzkZJU-U5lEdZ-159" edge="1">
          <mxGeometry y="45.60428571428571" width="44.93" height="38.00357142857143" as="geometry">
            <mxPoint y="106.41" as="sourcePoint" />
            <mxPoint y="45.60428571428571" as="targetPoint" />
          </mxGeometry>
        </mxCell>
        <mxCell id="gkb846epzkZJU-U5lEdZ-161" value="" style="endArrow=classic;html=1;" parent="gkb846epzkZJU-U5lEdZ-159" edge="1">
          <mxGeometry y="7.600714285714285" width="44.93" height="38.00357142857143" as="geometry">
            <mxPoint x="8.985999999999999" y="106.41" as="sourcePoint" />
            <mxPoint x="8.985999999999999" y="7.600714285714285" as="targetPoint" />
            <Array as="points">
              <mxPoint x="8.985999999999999" y="7.600714285714285" />
            </Array>
          </mxGeometry>
        </mxCell>
        <mxCell id="gkb846epzkZJU-U5lEdZ-162" value="" style="endArrow=classic;html=1;" parent="gkb846epzkZJU-U5lEdZ-159" edge="1">
          <mxGeometry y="22.802142857142854" width="44.93" height="38.00357142857143" as="geometry">
            <mxPoint x="17.971999999999998" y="106.41" as="sourcePoint" />
            <mxPoint x="17.971999999999998" y="22.802142857142854" as="targetPoint" />
          </mxGeometry>
        </mxCell>
        <mxCell id="gkb846epzkZJU-U5lEdZ-163" value="" style="endArrow=classic;html=1;" parent="gkb846epzkZJU-U5lEdZ-159" edge="1">
          <mxGeometry width="44.93" height="38.00357142857143" as="geometry">
            <mxPoint x="26.958" y="106.41" as="sourcePoint" />
            <mxPoint x="26.958" as="targetPoint" />
          </mxGeometry>
        </mxCell>
        <mxCell id="gkb846epzkZJU-U5lEdZ-164" value="" style="endArrow=classic;html=1;" parent="gkb846epzkZJU-U5lEdZ-159" edge="1">
          <mxGeometry y="15.20142857142857" width="44.93" height="38.00357142857143" as="geometry">
            <mxPoint x="35.943999999999996" y="106.41" as="sourcePoint" />
            <mxPoint x="35.943999999999996" y="15.20142857142857" as="targetPoint" />
          </mxGeometry>
        </mxCell>
        <mxCell id="gkb846epzkZJU-U5lEdZ-165" value="" style="endArrow=classic;html=1;" parent="gkb846epzkZJU-U5lEdZ-159" edge="1">
          <mxGeometry y="34.20321428571428" width="44.93" height="38.00357142857143" as="geometry">
            <mxPoint x="44.93" y="106.41" as="sourcePoint" />
            <mxPoint x="44.93" y="34.20321428571428" as="targetPoint" />
          </mxGeometry>
        </mxCell>
        <mxCell id="gkb846epzkZJU-U5lEdZ-166" value="" style="group" parent="gkb846epzkZJU-U5lEdZ-1" vertex="1" connectable="0">
          <mxGeometry x="181.8850724637681" y="243.69565217391303" width="44.927536231884055" height="102.71739130434783" as="geometry" />
        </mxCell>
        <mxCell id="gkb846epzkZJU-U5lEdZ-167" value="" style="endArrow=classic;html=1;startSize=6;strokeColor=#FF8000;arcSize=20;" parent="gkb846epzkZJU-U5lEdZ-166" edge="1">
          <mxGeometry y="27.391304347826086" width="44.927536231884055" height="47.078804347826086" as="geometry">
            <mxPoint y="102.71739130434783" as="sourcePoint" />
            <mxPoint y="6.8478260869565215" as="targetPoint" />
          </mxGeometry>
        </mxCell>
        <mxCell id="gkb846epzkZJU-U5lEdZ-168" value="" style="endArrow=classic;html=1;strokeColor=#FF8000;" parent="gkb846epzkZJU-U5lEdZ-166" edge="1">
          <mxGeometry y="27.391304347826086" width="44.927536231884055" height="47.078804347826086" as="geometry">
            <mxPoint x="8.98550724637681" y="102.71739130434783" as="sourcePoint" />
            <mxPoint x="8.98550724637681" y="27.391304347826086" as="targetPoint" />
            <Array as="points">
              <mxPoint x="8.98550724637681" y="27.391304347826086" />
            </Array>
          </mxGeometry>
        </mxCell>
        <mxCell id="gkb846epzkZJU-U5lEdZ-169" value="" style="endArrow=classic;html=1;strokeColor=#FF8000;" parent="gkb846epzkZJU-U5lEdZ-166" edge="1">
          <mxGeometry y="27.391304347826086" width="44.927536231884055" height="47.078804347826086" as="geometry">
            <mxPoint x="17.97101449275362" y="102.71739130434783" as="sourcePoint" />
            <mxPoint x="17.97101449275362" y="13.695652173913043" as="targetPoint" />
          </mxGeometry>
        </mxCell>
        <mxCell id="gkb846epzkZJU-U5lEdZ-170" value="" style="endArrow=classic;html=1;strokeColor=#FF8000;" parent="gkb846epzkZJU-U5lEdZ-166" edge="1">
          <mxGeometry y="27.391304347826086" width="44.927536231884055" height="47.078804347826086" as="geometry">
            <mxPoint x="26.95652173913043" y="102.71739130434783" as="sourcePoint" />
            <mxPoint x="26.95652173913043" y="27.391304347826086" as="targetPoint" />
          </mxGeometry>
        </mxCell>
        <mxCell id="gkb846epzkZJU-U5lEdZ-171" value="" style="endArrow=classic;html=1;strokeColor=#FF8000;" parent="gkb846epzkZJU-U5lEdZ-166" edge="1">
          <mxGeometry y="27.391304347826086" width="44.927536231884055" height="47.078804347826086" as="geometry">
            <mxPoint x="35.94202898550724" y="102.71739130434783" as="sourcePoint" />
            <mxPoint x="35.94202898550724" as="targetPoint" />
          </mxGeometry>
        </mxCell>
        <mxCell id="gkb846epzkZJU-U5lEdZ-172" value="" style="endArrow=classic;html=1;strokeColor=#FF8000;" parent="gkb846epzkZJU-U5lEdZ-166" edge="1">
          <mxGeometry y="27.391304347826086" width="44.927536231884055" height="47.078804347826086" as="geometry">
            <mxPoint x="44.927536231884055" y="102.71739130434783" as="sourcePoint" />
            <mxPoint x="44.927536231884055" y="20.543478260869566" as="targetPoint" />
          </mxGeometry>
        </mxCell>
        <mxCell id="gkb846epzkZJU-U5lEdZ-173" value="" style="group" parent="gkb846epzkZJU-U5lEdZ-1" vertex="1" connectable="0">
          <mxGeometry x="127.97202898550722" y="250.54347826086956" width="44.927536231884055" height="95.8695652173913" as="geometry" />
        </mxCell>
        <mxCell id="gkb846epzkZJU-U5lEdZ-174" value="" style="endArrow=classic;html=1;" parent="gkb846epzkZJU-U5lEdZ-173" edge="1">
          <mxGeometry y="41.086956521739125" width="44.927536231884055" height="34.23913043478261" as="geometry">
            <mxPoint y="95.8695652173913" as="sourcePoint" />
            <mxPoint y="13.695652173913041" as="targetPoint" />
          </mxGeometry>
        </mxCell>
        <mxCell id="gkb846epzkZJU-U5lEdZ-175" value="" style="endArrow=classic;html=1;" parent="gkb846epzkZJU-U5lEdZ-173" edge="1">
          <mxGeometry y="41.086956521739125" width="44.927536231884055" height="34.23913043478261" as="geometry">
            <mxPoint x="8.98550724637681" y="95.8695652173913" as="sourcePoint" />
            <mxPoint x="8.98550724637681" y="41.086956521739125" as="targetPoint" />
            <Array as="points">
              <mxPoint x="8.98550724637681" y="41.086956521739125" />
            </Array>
          </mxGeometry>
        </mxCell>
        <mxCell id="gkb846epzkZJU-U5lEdZ-176" value="" style="endArrow=classic;html=1;" parent="gkb846epzkZJU-U5lEdZ-173" edge="1">
          <mxGeometry y="41.086956521739125" width="44.927536231884055" height="34.23913043478261" as="geometry">
            <mxPoint x="17.97101449275362" y="95.8695652173913" as="sourcePoint" />
            <mxPoint x="17.97101449275362" as="targetPoint" />
          </mxGeometry>
        </mxCell>
        <mxCell id="gkb846epzkZJU-U5lEdZ-177" value="" style="endArrow=classic;html=1;" parent="gkb846epzkZJU-U5lEdZ-173" edge="1">
          <mxGeometry y="41.086956521739125" width="44.927536231884055" height="34.23913043478261" as="geometry">
            <mxPoint x="26.95652173913043" y="95.8695652173913" as="sourcePoint" />
            <mxPoint x="26.95652173913043" y="27.391304347826082" as="targetPoint" />
          </mxGeometry>
        </mxCell>
        <mxCell id="gkb846epzkZJU-U5lEdZ-178" value="" style="endArrow=classic;html=1;" parent="gkb846epzkZJU-U5lEdZ-173" edge="1">
          <mxGeometry y="41.086956521739125" width="44.927536231884055" height="34.23913043478261" as="geometry">
            <mxPoint x="35.94202898550724" y="95.8695652173913" as="sourcePoint" />
            <mxPoint x="35.94202898550724" y="13.695652173913041" as="targetPoint" />
          </mxGeometry>
        </mxCell>
        <mxCell id="gkb846epzkZJU-U5lEdZ-179" value="" style="endArrow=classic;html=1;" parent="gkb846epzkZJU-U5lEdZ-173" edge="1">
          <mxGeometry y="41.086956521739125" width="44.927536231884055" height="34.23913043478261" as="geometry">
            <mxPoint x="44.927536231884055" y="95.8695652173913" as="sourcePoint" />
            <mxPoint x="44.927536231884055" y="34.23913043478261" as="targetPoint" />
          </mxGeometry>
        </mxCell>
        <mxCell id="fDZu1O72IuAWzoKW4UvB-61" value="" style="shape=curlyBracket;whiteSpace=wrap;html=1;rounded=1;flipH=1;fontSize=14;direction=north;" vertex="1" parent="gkb846epzkZJU-U5lEdZ-1">
          <mxGeometry x="250" y="576.33" width="165" height="40" as="geometry" />
        </mxCell>
        <mxCell id="fDZu1O72IuAWzoKW4UvB-62" value="&lt;b&gt;&lt;font style=&quot;font-size: 14px&quot;&gt;AWG&lt;/font&gt;&lt;/b&gt;" style="rounded=0;whiteSpace=wrap;html=1;fillColor=#d5e8d4;strokeColor=#82b366;" vertex="1" parent="gkb846epzkZJU-U5lEdZ-1">
          <mxGeometry x="307.5" y="623" width="50" height="30" as="geometry" />
        </mxCell>
        <mxCell id="fDZu1O72IuAWzoKW4UvB-63" value="" style="group" vertex="1" connectable="0" parent="gkb846epzkZJU-U5lEdZ-1">
          <mxGeometry x="470" y="426" width="480" height="153.33" as="geometry" />
        </mxCell>
        <mxCell id="gkb846epzkZJU-U5lEdZ-180" value="" style="group" parent="fDZu1O72IuAWzoKW4UvB-63" vertex="1" connectable="0">
          <mxGeometry y="29.999999999999993" width="480" height="119.99999999999997" as="geometry" />
        </mxCell>
        <mxCell id="gkb846epzkZJU-U5lEdZ-181" value="" style="endArrow=classic;html=1;" parent="gkb846epzkZJU-U5lEdZ-180" edge="1">
          <mxGeometry width="50" height="50" relative="1" as="geometry">
            <mxPoint x="15" y="119.99999999999997" as="sourcePoint" />
            <mxPoint x="15" as="targetPoint" />
          </mxGeometry>
        </mxCell>
        <mxCell id="gkb846epzkZJU-U5lEdZ-182" value="" style="endArrow=classic;html=1;" parent="gkb846epzkZJU-U5lEdZ-180" edge="1">
          <mxGeometry width="50" height="50" relative="1" as="geometry">
            <mxPoint y="113.3333333333333" as="sourcePoint" />
            <mxPoint x="480" y="113.3333333333333" as="targetPoint" />
          </mxGeometry>
        </mxCell>
        <mxCell id="1DkLUWoMOWOepLX1xLoQ-5" value="" style="group" vertex="1" connectable="0" parent="gkb846epzkZJU-U5lEdZ-180">
          <mxGeometry x="157.24" y="20" width="49.66" height="93.33" as="geometry" />
        </mxCell>
        <mxCell id="gkb846epzkZJU-U5lEdZ-198" value="" style="endArrow=oval;html=1;startSize=6;strokeColor=#FF8000;arcSize=20;endFill=1;strokeWidth=0;" parent="1DkLUWoMOWOepLX1xLoQ-5" edge="1">
          <mxGeometry y="24.887999999999998" width="49.65999999999998" height="42.77624999999999" as="geometry">
            <mxPoint y="93.33" as="sourcePoint" />
            <mxPoint y="6.222000000000002" as="targetPoint" />
          </mxGeometry>
        </mxCell>
        <mxCell id="gkb846epzkZJU-U5lEdZ-199" value="" style="endArrow=oval;html=1;strokeColor=#FF8000;endFill=1;strokeWidth=0;" parent="1DkLUWoMOWOepLX1xLoQ-5" edge="1">
          <mxGeometry y="24.887999999999998" width="49.65999999999998" height="42.77624999999999" as="geometry">
            <mxPoint x="9.932" y="93.33" as="sourcePoint" />
            <mxPoint x="9.932" y="24.887999999999998" as="targetPoint" />
            <Array as="points">
              <mxPoint x="9.932" y="24.887999999999998" />
            </Array>
          </mxGeometry>
        </mxCell>
        <mxCell id="gkb846epzkZJU-U5lEdZ-200" value="" style="endArrow=oval;html=1;strokeColor=#FF8000;endFill=1;strokeWidth=0;" parent="1DkLUWoMOWOepLX1xLoQ-5" edge="1">
          <mxGeometry y="24.887999999999998" width="49.65999999999998" height="42.77624999999999" as="geometry">
            <mxPoint x="19.864" y="93.33" as="sourcePoint" />
            <mxPoint x="19.864" y="12.443999999999999" as="targetPoint" />
          </mxGeometry>
        </mxCell>
        <mxCell id="gkb846epzkZJU-U5lEdZ-201" value="" style="endArrow=oval;html=1;strokeColor=#FF8000;endFill=1;strokeWidth=0;" parent="1DkLUWoMOWOepLX1xLoQ-5" edge="1">
          <mxGeometry y="24.887999999999998" width="49.65999999999998" height="42.77624999999999" as="geometry">
            <mxPoint x="29.796000000000006" y="93.33" as="sourcePoint" />
            <mxPoint x="29.796000000000006" y="24.887999999999998" as="targetPoint" />
          </mxGeometry>
        </mxCell>
        <mxCell id="gkb846epzkZJU-U5lEdZ-202" value="" style="endArrow=oval;html=1;strokeColor=#FF8000;endFill=1;strokeWidth=0;" parent="1DkLUWoMOWOepLX1xLoQ-5" edge="1">
          <mxGeometry y="24.887999999999998" width="49.65999999999998" height="42.77624999999999" as="geometry">
            <mxPoint x="39.728" y="93.33" as="sourcePoint" />
            <mxPoint x="39.728" as="targetPoint" />
          </mxGeometry>
        </mxCell>
        <mxCell id="gkb846epzkZJU-U5lEdZ-203" value="" style="endArrow=oval;html=1;strokeColor=#FF8000;endFill=1;strokeWidth=0;" parent="1DkLUWoMOWOepLX1xLoQ-5" edge="1">
          <mxGeometry y="24.887999999999998" width="49.65999999999998" height="42.77624999999999" as="geometry">
            <mxPoint x="49.66" y="93.33" as="sourcePoint" />
            <mxPoint x="49.66" y="18.665999999999997" as="targetPoint" />
          </mxGeometry>
        </mxCell>
        <mxCell id="1DkLUWoMOWOepLX1xLoQ-6" value="" style="group" vertex="1" connectable="0" parent="gkb846epzkZJU-U5lEdZ-180">
          <mxGeometry x="241.97044334975368" y="-29.999999999999993" width="68.57142857142857" height="143.32999999999998" as="geometry" />
        </mxCell>
        <mxCell id="gkb846epzkZJU-U5lEdZ-184" value="" style="endArrow=oval;html=1;strokeColor=#FF8000;endFill=1;strokeWidth=0;" parent="1DkLUWoMOWOepLX1xLoQ-6" edge="1">
          <mxGeometry y="8.958124999999999" width="69.50276563088241" height="61.587109375" as="geometry">
            <mxPoint y="143.32999999999998" as="sourcePoint" />
            <mxPoint y="8.958124999999999" as="targetPoint" />
          </mxGeometry>
        </mxCell>
        <mxCell id="gkb846epzkZJU-U5lEdZ-185" value="" style="endArrow=oval;html=1;strokeColor=#FF8000;endFill=1;strokeWidth=0;" parent="1DkLUWoMOWOepLX1xLoQ-6" edge="1">
          <mxGeometry y="17.916249999999998" width="69.50276563088241" height="61.587109375" as="geometry">
            <mxPoint x="13.900553126176483" y="143.32999999999998" as="sourcePoint" />
            <mxPoint x="13.900553126176483" y="17.916249999999998" as="targetPoint" />
            <Array as="points">
              <mxPoint x="13.900553126176483" y="17.916249999999998" />
            </Array>
          </mxGeometry>
        </mxCell>
        <mxCell id="gkb846epzkZJU-U5lEdZ-186" value="" style="endArrow=oval;html=1;strokeColor=#FF8000;endFill=1;strokeWidth=0;" parent="1DkLUWoMOWOepLX1xLoQ-6" edge="1">
          <mxGeometry y="35.832499999999996" width="69.50276563088241" height="61.587109375" as="geometry">
            <mxPoint x="27.801106252352966" y="143.32999999999998" as="sourcePoint" />
            <mxPoint x="27.801106252352966" y="35.832499999999996" as="targetPoint" />
          </mxGeometry>
        </mxCell>
        <mxCell id="gkb846epzkZJU-U5lEdZ-187" value="" style="endArrow=oval;html=1;strokeColor=#FF8000;endFill=1;strokeWidth=0;" parent="1DkLUWoMOWOepLX1xLoQ-6" edge="1">
          <mxGeometry y="8.958124999999999" width="69.50276563088241" height="61.587109375" as="geometry">
            <mxPoint x="41.70165937852946" y="143.32999999999998" as="sourcePoint" />
            <mxPoint x="41.70165937852946" y="8.958124999999999" as="targetPoint" />
          </mxGeometry>
        </mxCell>
        <mxCell id="gkb846epzkZJU-U5lEdZ-188" value="" style="endArrow=oval;html=1;strokeColor=#FF8000;endFill=1;strokeWidth=0;" parent="1DkLUWoMOWOepLX1xLoQ-6" edge="1">
          <mxGeometry width="69.50276563088241" height="61.587109375" as="geometry">
            <mxPoint x="55.60221250470593" y="143.32999999999998" as="sourcePoint" />
            <mxPoint x="55.60221250470593" as="targetPoint" />
          </mxGeometry>
        </mxCell>
        <mxCell id="gkb846epzkZJU-U5lEdZ-189" value="" style="endArrow=oval;html=1;strokeColor=#FF8000;endFill=1;strokeWidth=0;" parent="1DkLUWoMOWOepLX1xLoQ-6" edge="1">
          <mxGeometry x="-0.9313370594538682" y="26.874374999999997" width="69.50276563088241" height="61.587109375" as="geometry">
            <mxPoint x="68.11271031826479" y="143.32999999999998" as="sourcePoint" />
            <mxPoint x="68.57142857142857" y="26.874374999999997" as="targetPoint" />
          </mxGeometry>
        </mxCell>
        <mxCell id="fDZu1O72IuAWzoKW4UvB-39" value="" style="group" vertex="1" connectable="0" parent="fDZu1O72IuAWzoKW4UvB-63">
          <mxGeometry x="66.20689655172414" y="53.33000000000003" width="45.51724137931034" height="99.99999999999997" as="geometry" />
        </mxCell>
        <mxCell id="fDZu1O72IuAWzoKW4UvB-40" value="" style="endArrow=oval;html=1;startSize=6;strokeColor=#FF8000;arcSize=20;endFill=1;strokeWidth=0;" edge="1" parent="fDZu1O72IuAWzoKW4UvB-39">
          <mxGeometry y="26.666666666666657" width="45.51724137931034" height="45.833333333333314" as="geometry">
            <mxPoint y="99.99999999999997" as="sourcePoint" />
            <mxPoint y="6.666666666666666" as="targetPoint" />
          </mxGeometry>
        </mxCell>
        <mxCell id="fDZu1O72IuAWzoKW4UvB-41" value="" style="endArrow=oval;html=1;strokeColor=#FF8000;endFill=1;strokeWidth=0;" edge="1" parent="fDZu1O72IuAWzoKW4UvB-39">
          <mxGeometry y="26.666666666666657" width="45.51724137931034" height="45.833333333333314" as="geometry">
            <mxPoint x="9.10344827586207" y="99.99999999999997" as="sourcePoint" />
            <mxPoint x="9.10344827586207" y="26.666666666666657" as="targetPoint" />
            <Array as="points">
              <mxPoint x="9.10344827586207" y="26.666666666666657" />
            </Array>
          </mxGeometry>
        </mxCell>
        <mxCell id="fDZu1O72IuAWzoKW4UvB-42" value="" style="endArrow=oval;html=1;strokeColor=#FF8000;endFill=1;strokeWidth=0;" edge="1" parent="fDZu1O72IuAWzoKW4UvB-39">
          <mxGeometry y="26.666666666666657" width="45.51724137931034" height="45.833333333333314" as="geometry">
            <mxPoint x="18.20689655172414" y="99.99999999999997" as="sourcePoint" />
            <mxPoint x="18.20689655172414" y="13.333333333333329" as="targetPoint" />
          </mxGeometry>
        </mxCell>
        <mxCell id="fDZu1O72IuAWzoKW4UvB-43" value="" style="endArrow=oval;html=1;strokeColor=#FF8000;endFill=1;strokeWidth=0;" edge="1" parent="fDZu1O72IuAWzoKW4UvB-39">
          <mxGeometry y="26.666666666666657" width="45.51724137931034" height="45.833333333333314" as="geometry">
            <mxPoint x="27.310344827586214" y="99.99999999999997" as="sourcePoint" />
            <mxPoint x="27.310344827586214" y="26.666666666666657" as="targetPoint" />
          </mxGeometry>
        </mxCell>
        <mxCell id="fDZu1O72IuAWzoKW4UvB-44" value="" style="endArrow=oval;html=1;strokeColor=#FF8000;endFill=1;strokeWidth=0;" edge="1" parent="fDZu1O72IuAWzoKW4UvB-39">
          <mxGeometry y="26.666666666666657" width="45.51724137931034" height="45.833333333333314" as="geometry">
            <mxPoint x="36.41379310344828" y="99.99999999999997" as="sourcePoint" />
            <mxPoint x="36.41379310344828" as="targetPoint" />
          </mxGeometry>
        </mxCell>
        <mxCell id="fDZu1O72IuAWzoKW4UvB-45" value="" style="endArrow=oval;html=1;strokeColor=#FF8000;endFill=1;strokeWidth=0;" edge="1" parent="fDZu1O72IuAWzoKW4UvB-39">
          <mxGeometry y="26.666666666666657" width="45.51724137931034" height="45.833333333333314" as="geometry">
            <mxPoint x="45.51724137931034" y="99.99999999999997" as="sourcePoint" />
            <mxPoint x="45.51724137931034" y="19.99999999999999" as="targetPoint" />
          </mxGeometry>
        </mxCell>
        <mxCell id="fDZu1O72IuAWzoKW4UvB-46" value="" style="group" vertex="1" connectable="0" parent="fDZu1O72IuAWzoKW4UvB-63">
          <mxGeometry x="361.66" y="10" width="45.52" height="135" as="geometry" />
        </mxCell>
        <mxCell id="fDZu1O72IuAWzoKW4UvB-47" value="" style="endArrow=oval;html=1;startSize=6;strokeColor=#FF8000;arcSize=20;endFill=1;strokeWidth=0;" edge="1" parent="fDZu1O72IuAWzoKW4UvB-46">
          <mxGeometry y="36" width="45.519999999999996" height="61.87499999999999" as="geometry">
            <mxPoint y="135" as="sourcePoint" />
            <mxPoint y="9.000000000000004" as="targetPoint" />
          </mxGeometry>
        </mxCell>
        <mxCell id="fDZu1O72IuAWzoKW4UvB-48" value="" style="endArrow=oval;html=1;strokeColor=#FF8000;endFill=1;strokeWidth=0;" edge="1" parent="fDZu1O72IuAWzoKW4UvB-46">
          <mxGeometry y="36" width="45.519999999999996" height="61.87499999999999" as="geometry">
            <mxPoint x="9.104000000000001" y="135" as="sourcePoint" />
            <mxPoint x="9.104000000000001" y="36" as="targetPoint" />
            <Array as="points">
              <mxPoint x="9.104000000000001" y="36" />
            </Array>
          </mxGeometry>
        </mxCell>
        <mxCell id="fDZu1O72IuAWzoKW4UvB-49" value="" style="endArrow=oval;html=1;strokeColor=#FF8000;endFill=1;strokeWidth=0;" edge="1" parent="fDZu1O72IuAWzoKW4UvB-46">
          <mxGeometry y="36" width="45.519999999999996" height="61.87499999999999" as="geometry">
            <mxPoint x="18.208000000000002" y="135" as="sourcePoint" />
            <mxPoint x="18.208000000000002" y="18" as="targetPoint" />
          </mxGeometry>
        </mxCell>
        <mxCell id="fDZu1O72IuAWzoKW4UvB-50" value="" style="endArrow=oval;html=1;strokeColor=#FF8000;endFill=1;strokeWidth=0;" edge="1" parent="fDZu1O72IuAWzoKW4UvB-46">
          <mxGeometry y="36" width="45.519999999999996" height="61.87499999999999" as="geometry">
            <mxPoint x="27.31200000000001" y="135" as="sourcePoint" />
            <mxPoint x="27.31200000000001" y="36" as="targetPoint" />
          </mxGeometry>
        </mxCell>
        <mxCell id="fDZu1O72IuAWzoKW4UvB-51" value="" style="endArrow=oval;html=1;strokeColor=#FF8000;endFill=1;strokeWidth=0;" edge="1" parent="fDZu1O72IuAWzoKW4UvB-46">
          <mxGeometry y="36" width="45.519999999999996" height="61.87499999999999" as="geometry">
            <mxPoint x="36.416000000000004" y="135" as="sourcePoint" />
            <mxPoint x="36.416000000000004" as="targetPoint" />
          </mxGeometry>
        </mxCell>
        <mxCell id="fDZu1O72IuAWzoKW4UvB-52" value="" style="endArrow=oval;html=1;strokeColor=#FF8000;endFill=1;strokeWidth=0;" edge="1" parent="fDZu1O72IuAWzoKW4UvB-46">
          <mxGeometry y="36" width="45.519999999999996" height="61.87499999999999" as="geometry">
            <mxPoint x="45.519999999999996" y="135" as="sourcePoint" />
            <mxPoint x="45.519999999999996" y="26.999999999999993" as="targetPoint" />
          </mxGeometry>
        </mxCell>
        <mxCell id="fDZu1O72IuAWzoKW4UvB-64" value="" style="shape=curlyBracket;whiteSpace=wrap;html=1;rounded=1;flipH=1;fontSize=14;direction=north;" vertex="1" parent="gkb846epzkZJU-U5lEdZ-1">
          <mxGeometry x="720" y="579.33" width="165" height="40" as="geometry" />
        </mxCell>
        <mxCell id="fDZu1O72IuAWzoKW4UvB-79" style="edgeStyle=none;rounded=0;orthogonalLoop=1;jettySize=auto;html=1;entryX=0.5;entryY=0;entryDx=0;entryDy=0;endArrow=block;endFill=1;strokeColor=#000000;strokeWidth=1;" edge="1" parent="gkb846epzkZJU-U5lEdZ-1" source="fDZu1O72IuAWzoKW4UvB-65" target="fDZu1O72IuAWzoKW4UvB-77">
          <mxGeometry relative="1" as="geometry" />
        </mxCell>
        <mxCell id="fDZu1O72IuAWzoKW4UvB-65" value="&lt;b&gt;&lt;font style=&quot;font-size: 14px&quot;&gt;AWG&lt;/font&gt;&lt;/b&gt;" style="rounded=0;whiteSpace=wrap;html=1;fillColor=#d5e8d4;strokeColor=#82b366;" vertex="1" parent="gkb846epzkZJU-U5lEdZ-1">
          <mxGeometry x="777" y="623" width="50" height="30" as="geometry" />
        </mxCell>
        <mxCell id="fDZu1O72IuAWzoKW4UvB-67" value="-" style="rounded=0;orthogonalLoop=1;jettySize=auto;html=1;fontSize=32;" edge="1" parent="gkb846epzkZJU-U5lEdZ-1" target="fDZu1O72IuAWzoKW4UvB-70">
          <mxGeometry relative="1" as="geometry">
            <mxPoint x="330.2664705882352" y="653" as="sourcePoint" />
            <mxPoint x="310" y="723" as="targetPoint" />
          </mxGeometry>
        </mxCell>
        <mxCell id="fDZu1O72IuAWzoKW4UvB-72" value="" style="group" vertex="1" connectable="0" parent="gkb846epzkZJU-U5lEdZ-1">
          <mxGeometry x="48" y="776" width="370" height="130" as="geometry" />
        </mxCell>
        <mxCell id="6Qe2QqncxI4OXolVs0ZS-4" value="" style="endArrow=classic;html=1;" parent="fDZu1O72IuAWzoKW4UvB-72" edge="1">
          <mxGeometry width="50" height="50" relative="1" as="geometry">
            <mxPoint x="11.5625" y="123.25999999999999" as="sourcePoint" />
            <mxPoint x="11.5625" as="targetPoint" />
          </mxGeometry>
        </mxCell>
        <mxCell id="6Qe2QqncxI4OXolVs0ZS-5" value="" style="endArrow=classic;html=1;" parent="fDZu1O72IuAWzoKW4UvB-72" edge="1">
          <mxGeometry width="50" height="50" relative="1" as="geometry">
            <mxPoint y="64.41222222222223" as="sourcePoint" />
            <mxPoint x="370" y="64.41222222222223" as="targetPoint" />
          </mxGeometry>
        </mxCell>
        <mxCell id="fDZu1O72IuAWzoKW4UvB-69" value="" style="rounded=0;whiteSpace=wrap;html=1;strokeWidth=1;fillColor=#CCCCCC;" vertex="1" parent="fDZu1O72IuAWzoKW4UvB-72">
          <mxGeometry x="11.97" y="64" width="178.03" height="66" as="geometry" />
        </mxCell>
        <mxCell id="fDZu1O72IuAWzoKW4UvB-70" value="" style="rounded=0;whiteSpace=wrap;html=1;strokeWidth=1;fillColor=#CCCCCC;" vertex="1" parent="fDZu1O72IuAWzoKW4UvB-72">
          <mxGeometry x="190" y="64" width="160" height="56" as="geometry" />
        </mxCell>
        <mxCell id="gkb846epzkZJU-U5lEdZ-88" value="" style="endArrow=classic;html=1;exitX=0.675;exitY=0.609;exitDx=0;exitDy=0;exitPerimeter=0;" parent="gkb846epzkZJU-U5lEdZ-1" source="gkb846epzkZJU-U5lEdZ-89" edge="1">
          <mxGeometry width="50" height="50" relative="1" as="geometry">
            <mxPoint x="128.40579710144928" y="150" as="sourcePoint" />
            <mxPoint x="128" y="47.28493827160497" as="targetPoint" />
          </mxGeometry>
        </mxCell>
        <mxCell id="gkb846epzkZJU-U5lEdZ-89" value="0&amp;nbsp; &amp;nbsp;--" style="text;html=1;align=center;verticalAlign=middle;resizable=0;points=[];autosize=1;" parent="gkb846epzkZJU-U5lEdZ-1" vertex="1">
          <mxGeometry x="103.61539036933146" y="98.64427983539095" width="40" height="20" as="geometry" />
        </mxCell>
        <mxCell id="gkb846epzkZJU-U5lEdZ-90" value="Time" style="text;html=1;align=center;verticalAlign=middle;resizable=0;points=[];autosize=1;" parent="gkb846epzkZJU-U5lEdZ-1" vertex="1">
          <mxGeometry x="343.86677886863026" y="107.85843621399181" width="40" height="20" as="geometry" />
        </mxCell>
        <mxCell id="gkb846epzkZJU-U5lEdZ-91" value="" style="rounded=0;whiteSpace=wrap;html=1;fillColor=#ffe6cc;strokeColor=#d79b00;" parent="gkb846epzkZJU-U5lEdZ-1" vertex="1">
          <mxGeometry x="181.29032258064515" y="62.42798353909465" width="54.193548387096776" height="45.4320987654321" as="geometry" />
        </mxCell>
        <mxCell id="gkb846epzkZJU-U5lEdZ-92" value="" style="rounded=0;whiteSpace=wrap;html=1;fillColor=#ffe6cc;strokeColor=#d79b00;" parent="gkb846epzkZJU-U5lEdZ-1" vertex="1">
          <mxGeometry x="289.67741935483866" y="62.42798353909465" width="54.193548387096776" height="45.4320987654321" as="geometry" />
        </mxCell>
        <mxCell id="fDZu1O72IuAWzoKW4UvB-80" value="" style="rounded=0;whiteSpace=wrap;html=1;fillColor=#ffe6cc;strokeColor=#d79b00;" vertex="1" parent="gkb846epzkZJU-U5lEdZ-1">
          <mxGeometry x="399.2903225806451" y="62.42798353909464" width="54.193548387096776" height="45.4320987654321" as="geometry" />
        </mxCell>
        <mxCell id="fDZu1O72IuAWzoKW4UvB-81" value="" style="rounded=0;whiteSpace=wrap;html=1;fillColor=#ffe6cc;strokeColor=#d79b00;" vertex="1" parent="gkb846epzkZJU-U5lEdZ-1">
          <mxGeometry x="507.67741935483866" y="62.42798353909464" width="54.193548387096776" height="45.4320987654321" as="geometry" />
        </mxCell>
        <mxCell id="gkb846epzkZJU-U5lEdZ-93" value="" style="endArrow=classic;html=1;" parent="gkb846epzkZJU-U5lEdZ-1" edge="1">
          <mxGeometry width="50" height="50" relative="1" as="geometry">
            <mxPoint x="120.28985507246377" y="107.85695473251029" as="sourcePoint" />
            <mxPoint x="570" y="108" as="targetPoint" />
          </mxGeometry>
        </mxCell>
        <mxCell id="fDZu1O72IuAWzoKW4UvB-82" value="" style="group" vertex="1" connectable="0" parent="gkb846epzkZJU-U5lEdZ-1">
          <mxGeometry x="470" y="710" width="370" height="149.26" as="geometry" />
        </mxCell>
        <mxCell id="fDZu1O72IuAWzoKW4UvB-74" value="" style="endArrow=classic;html=1;" edge="1" parent="fDZu1O72IuAWzoKW4UvB-82">
          <mxGeometry width="50" height="50" relative="1" as="geometry">
            <mxPoint x="11.5625" y="149.26" as="sourcePoint" />
            <mxPoint x="11.5625" y="26" as="targetPoint" />
          </mxGeometry>
        </mxCell>
        <mxCell id="fDZu1O72IuAWzoKW4UvB-75" value="" style="endArrow=classic;html=1;" edge="1" parent="fDZu1O72IuAWzoKW4UvB-82">
          <mxGeometry width="50" height="50" relative="1" as="geometry">
            <mxPoint y="130.41222222222223" as="sourcePoint" />
            <mxPoint x="370" y="130.41222222222223" as="targetPoint" />
          </mxGeometry>
        </mxCell>
        <mxCell id="fDZu1O72IuAWzoKW4UvB-76" value="" style="rounded=0;whiteSpace=wrap;html=1;strokeWidth=1;fillColor=#ffe6cc;strokeColor=#d79b00;" vertex="1" parent="fDZu1O72IuAWzoKW4UvB-82">
          <mxGeometry x="11.970000000000027" y="60" width="178.03" height="70" as="geometry" />
        </mxCell>
        <mxCell id="fDZu1O72IuAWzoKW4UvB-77" value="" style="rounded=0;whiteSpace=wrap;html=1;strokeWidth=1;fillColor=#ffe6cc;strokeColor=#d79b00;" vertex="1" parent="fDZu1O72IuAWzoKW4UvB-82">
          <mxGeometry x="190" width="160" height="130" as="geometry" />
        </mxCell>
        <mxCell id="fDZu1O72IuAWzoKW4UvB-83" value="" style="group" vertex="1" connectable="0" parent="gkb846epzkZJU-U5lEdZ-1">
          <mxGeometry x="50" y="1090" width="370" height="149.26" as="geometry" />
        </mxCell>
        <mxCell id="fDZu1O72IuAWzoKW4UvB-84" value="" style="endArrow=classic;html=1;" edge="1" parent="fDZu1O72IuAWzoKW4UvB-83">
          <mxGeometry width="50" height="50" relative="1" as="geometry">
            <mxPoint x="11.5625" y="149.26" as="sourcePoint" />
            <mxPoint x="11.5625" y="26" as="targetPoint" />
          </mxGeometry>
        </mxCell>
        <mxCell id="fDZu1O72IuAWzoKW4UvB-85" value="" style="endArrow=classic;html=1;" edge="1" parent="fDZu1O72IuAWzoKW4UvB-83">
          <mxGeometry width="50" height="50" relative="1" as="geometry">
            <mxPoint y="130.41222222222223" as="sourcePoint" />
            <mxPoint x="370" y="130.41222222222223" as="targetPoint" />
          </mxGeometry>
        </mxCell>
        <mxCell id="fDZu1O72IuAWzoKW4UvB-86" value="" style="rounded=0;whiteSpace=wrap;html=1;strokeWidth=1;fillColor=#ffe6cc;strokeColor=#d79b00;" vertex="1" parent="fDZu1O72IuAWzoKW4UvB-83">
          <mxGeometry x="11.97" y="130" width="178.03" as="geometry" />
        </mxCell>
        <mxCell id="fDZu1O72IuAWzoKW4UvB-87" value="" style="rounded=0;whiteSpace=wrap;html=1;strokeWidth=1;fillColor=#E6CFB8;strokeColor=#d79b00;" vertex="1" parent="fDZu1O72IuAWzoKW4UvB-83">
          <mxGeometry x="190" y="60" width="160" height="70" as="geometry" />
        </mxCell>
        <mxCell id="fDZu1O72IuAWzoKW4UvB-88" value="&lt;font style=&quot;font-size: 20px&quot;&gt;Decimation and filtering&lt;/font&gt;" style="text;html=1;align=center;verticalAlign=middle;resizable=0;points=[];autosize=1;strokeColor=none;fillColor=none;" vertex="1" parent="gkb846epzkZJU-U5lEdZ-1">
          <mxGeometry x="54.98000000000002" y="406" width="220" height="20" as="geometry" />
        </mxCell>
        <mxCell id="fDZu1O72IuAWzoKW4UvB-92" style="edgeStyle=none;rounded=0;orthogonalLoop=1;jettySize=auto;html=1;fontSize=27;endArrow=block;endFill=1;strokeColor=#000000;strokeWidth=1;" edge="1" parent="gkb846epzkZJU-U5lEdZ-1" source="fDZu1O72IuAWzoKW4UvB-89">
          <mxGeometry relative="1" as="geometry">
            <mxPoint x="130" y="1200" as="targetPoint" />
          </mxGeometry>
        </mxCell>
        <mxCell id="fDZu1O72IuAWzoKW4UvB-89" value="&lt;font style=&quot;font-size: 27px&quot;&gt;&lt;b&gt;+&lt;/b&gt;&lt;/font&gt;" style="ellipse;whiteSpace=wrap;html=1;aspect=fixed;fontSize=20;strokeWidth=1;fillColor=#FFFFFF;" vertex="1" parent="gkb846epzkZJU-U5lEdZ-1">
          <mxGeometry x="193.04" y="1027" width="40" height="40" as="geometry" />
        </mxCell>
        <mxCell id="fDZu1O72IuAWzoKW4UvB-90" style="edgeStyle=none;rounded=0;orthogonalLoop=1;jettySize=auto;html=1;entryX=0;entryY=0;entryDx=0;entryDy=0;fontSize=27;endArrow=block;endFill=1;strokeColor=#000000;strokeWidth=1;dashed=1;" edge="1" parent="gkb846epzkZJU-U5lEdZ-1" source="fDZu1O72IuAWzoKW4UvB-69" target="fDZu1O72IuAWzoKW4UvB-89">
          <mxGeometry relative="1" as="geometry" />
        </mxCell>
        <mxCell id="fDZu1O72IuAWzoKW4UvB-91" style="edgeStyle=none;rounded=0;orthogonalLoop=1;jettySize=auto;html=1;entryX=1;entryY=0;entryDx=0;entryDy=0;fontSize=27;endArrow=block;endFill=1;strokeColor=#000000;strokeWidth=1;dashed=1;" edge="1" parent="gkb846epzkZJU-U5lEdZ-1" source="fDZu1O72IuAWzoKW4UvB-76" target="fDZu1O72IuAWzoKW4UvB-89">
          <mxGeometry relative="1" as="geometry" />
        </mxCell>
        <mxCell id="fDZu1O72IuAWzoKW4UvB-96" style="edgeStyle=none;rounded=0;orthogonalLoop=1;jettySize=auto;html=1;entryX=0.5;entryY=0;entryDx=0;entryDy=0;fontSize=27;endArrow=block;endFill=1;strokeColor=#000000;strokeWidth=1;" edge="1" parent="gkb846epzkZJU-U5lEdZ-1" source="fDZu1O72IuAWzoKW4UvB-93" target="fDZu1O72IuAWzoKW4UvB-87">
          <mxGeometry relative="1" as="geometry" />
        </mxCell>
        <mxCell id="fDZu1O72IuAWzoKW4UvB-93" value="&lt;font style=&quot;font-size: 27px&quot;&gt;&lt;b&gt;+&lt;/b&gt;&lt;/font&gt;" style="ellipse;whiteSpace=wrap;html=1;aspect=fixed;fontSize=20;strokeWidth=1;fillColor=#FFFFFF;" vertex="1" parent="gkb846epzkZJU-U5lEdZ-1">
          <mxGeometry x="334.03999999999996" y="1027" width="40" height="40" as="geometry" />
        </mxCell>
        <mxCell id="fDZu1O72IuAWzoKW4UvB-94" style="edgeStyle=none;rounded=0;orthogonalLoop=1;jettySize=auto;html=1;entryX=0;entryY=0;entryDx=0;entryDy=0;fontSize=27;endArrow=block;endFill=1;strokeColor=#000000;strokeWidth=1;dashed=1;" edge="1" parent="gkb846epzkZJU-U5lEdZ-1" source="fDZu1O72IuAWzoKW4UvB-70" target="fDZu1O72IuAWzoKW4UvB-93">
          <mxGeometry relative="1" as="geometry" />
        </mxCell>
        <mxCell id="fDZu1O72IuAWzoKW4UvB-95" style="edgeStyle=none;rounded=0;orthogonalLoop=1;jettySize=auto;html=1;entryX=1;entryY=0;entryDx=0;entryDy=0;fontSize=27;endArrow=block;endFill=1;strokeColor=#000000;strokeWidth=1;dashed=1;" edge="1" parent="gkb846epzkZJU-U5lEdZ-1" source="fDZu1O72IuAWzoKW4UvB-77" target="fDZu1O72IuAWzoKW4UvB-93">
          <mxGeometry relative="1" as="geometry" />
        </mxCell>
        <mxCell id="fDZu1O72IuAWzoKW4UvB-98" style="edgeStyle=none;rounded=0;orthogonalLoop=1;jettySize=auto;html=1;fontSize=27;endArrow=block;endFill=1;strokeColor=#000000;strokeWidth=1;" edge="1" parent="gkb846epzkZJU-U5lEdZ-1" source="fDZu1O72IuAWzoKW4UvB-97">
          <mxGeometry relative="1" as="geometry">
            <mxPoint x="430" y="1046.9999999999998" as="targetPoint" />
          </mxGeometry>
        </mxCell>
        <mxCell id="fDZu1O72IuAWzoKW4UvB-97" value="Noise cancelation" style="text;html=1;align=center;verticalAlign=middle;resizable=0;points=[];autosize=1;strokeColor=none;fillColor=none;fontSize=27;" vertex="1" parent="gkb846epzkZJU-U5lEdZ-1">
          <mxGeometry x="560" y="1027" width="230" height="40" as="geometry" />
        </mxCell>
      </root>
    </mxGraphModel>
  </diagram>
  <diagram id="_3hIGhw2KFLyr5LNPjk2" name="Concepts">
    <mxGraphModel dx="960" dy="1746" grid="1" gridSize="10" guides="1" tooltips="1" connect="1" arrows="1" fold="1" page="1" pageScale="1" pageWidth="826" pageHeight="1169" math="0" shadow="0">
      <root>
        <mxCell id="0" />
        <mxCell id="1" parent="0" />
        <mxCell id="d9Xijrj67KwfC3W1lsyz-45" value="Mixer implementation using switches" style="verticalLabelPosition=bottom;verticalAlign=top;html=1;shape=mxgraph.basic.rect;fillColor2=none;strokeWidth=1;size=20;indent=5;dashed=1;align=left;labelPosition=center;dashPattern=1 4;fillColor=#f5f5f5;strokeColor=#666666;fontColor=#333333;" parent="1" vertex="1">
          <mxGeometry x="114.58" y="-790" width="385.42" height="200" as="geometry" />
        </mxCell>
        <mxCell id="d9Xijrj67KwfC3W1lsyz-46" value="Square wave mixer" style="verticalLabelPosition=top;verticalAlign=bottom;html=1;shape=mxgraph.basic.rect;fillColor2=none;strokeWidth=1;size=20;indent=5;dashed=1;align=center;labelPosition=center;dashPattern=1 4;fillColor=#d5e8d4;strokeColor=#82b366;" parent="1" vertex="1">
          <mxGeometry x="220" y="-750" width="160" height="90" as="geometry" />
        </mxCell>
        <mxCell id="FUbgvExPw1tKB61IjqJz-1" value="Analog synchronous detector / Lock In amplifier" style="verticalLabelPosition=bottom;verticalAlign=top;html=1;shape=mxgraph.basic.rect;fillColor2=none;strokeWidth=1;size=20;indent=5;dashed=1;align=left;labelPosition=center;dashPattern=1 4;fillColor=#f5f5f5;strokeColor=#666666;fontColor=#333333;" parent="1" vertex="1">
          <mxGeometry x="220.63" y="-1100" width="329.37" height="213" as="geometry" />
        </mxCell>
        <mxCell id="_LgDygbCN5mEaOAKA-p3-100" value="Arduino synchronous detector" style="verticalLabelPosition=bottom;verticalAlign=top;html=1;shape=mxgraph.basic.rect;fillColor2=none;strokeWidth=1;size=20;indent=5;dashed=1;align=left;labelPosition=center;dashPattern=1 4;" parent="1" vertex="1">
          <mxGeometry x="85.32" y="-510" width="600" height="280" as="geometry" />
        </mxCell>
        <mxCell id="_LgDygbCN5mEaOAKA-p3-81" value="OPT101" style="verticalLabelPosition=top;verticalAlign=bottom;html=1;shape=mxgraph.basic.rect;fillColor2=none;strokeWidth=1;size=20;indent=5;dashed=1;align=center;fillColor=#e1d5e7;strokeColor=#9673a6;labelPosition=center;" parent="1" vertex="1">
          <mxGeometry x="145.32" y="-470" width="225" height="80" as="geometry" />
        </mxCell>
        <mxCell id="_LgDygbCN5mEaOAKA-p3-68" value="&lt;div&gt;&lt;span&gt;&amp;nbsp; Arduino&lt;/span&gt;&lt;/div&gt;" style="verticalLabelPosition=top;verticalAlign=bottom;html=1;shape=mxgraph.basic.rect;fillColor2=none;strokeWidth=1;size=20;indent=5;dashed=1;align=left;fillColor=#f5f5f5;strokeColor=#666666;fontColor=#333333;labelPosition=center;" parent="1" vertex="1">
          <mxGeometry x="414.07" y="-480" width="250" height="220" as="geometry" />
        </mxCell>
        <mxCell id="_LgDygbCN5mEaOAKA-p3-8" style="edgeStyle=none;rounded=0;orthogonalLoop=1;jettySize=auto;html=1;exitX=1;exitY=0.935;exitDx=0;exitDy=0;exitPerimeter=0;entryX=1;entryY=0.115;entryDx=0;entryDy=0;entryPerimeter=0;" parent="1" source="_LgDygbCN5mEaOAKA-p3-3" target="_LgDygbCN5mEaOAKA-p3-1" edge="1">
          <mxGeometry relative="1" as="geometry">
            <Array as="points" />
          </mxGeometry>
        </mxCell>
        <mxCell id="_LgDygbCN5mEaOAKA-p3-12" style="edgeStyle=orthogonalEdgeStyle;rounded=0;orthogonalLoop=1;jettySize=auto;html=1;exitX=1;exitY=0.115;exitDx=0;exitDy=0;exitPerimeter=0;entryX=1;entryY=0.885;entryDx=0;entryDy=0;entryPerimeter=0;" parent="1" source="_LgDygbCN5mEaOAKA-p3-1" target="_LgDygbCN5mEaOAKA-p3-2" edge="1">
          <mxGeometry relative="1" as="geometry">
            <Array as="points">
              <mxPoint x="255.63" y="-717" />
              <mxPoint x="255.63" y="-697" />
            </Array>
          </mxGeometry>
        </mxCell>
        <mxCell id="_LgDygbCN5mEaOAKA-p3-13" style="edgeStyle=orthogonalEdgeStyle;rounded=0;orthogonalLoop=1;jettySize=auto;html=1;exitX=1;exitY=0.885;exitDx=0;exitDy=0;exitPerimeter=0;entryX=1;entryY=0.115;entryDx=0;entryDy=0;entryPerimeter=0;" parent="1" source="_LgDygbCN5mEaOAKA-p3-1" target="_LgDygbCN5mEaOAKA-p3-2" edge="1">
          <mxGeometry relative="1" as="geometry">
            <Array as="points">
              <mxPoint x="235.63" y="-737" />
              <mxPoint x="235.63" y="-677" />
            </Array>
          </mxGeometry>
        </mxCell>
        <mxCell id="_LgDygbCN5mEaOAKA-p3-17" style="edgeStyle=orthogonalEdgeStyle;rounded=0;orthogonalLoop=1;jettySize=auto;html=1;exitX=0;exitY=0.885;exitDx=0;exitDy=0;exitPerimeter=0;entryX=0;entryY=0.5;entryDx=0;entryDy=0;entryPerimeter=0;" parent="1" source="_LgDygbCN5mEaOAKA-p3-1" target="_LgDygbCN5mEaOAKA-p3-5" edge="1">
          <mxGeometry relative="1" as="geometry" />
        </mxCell>
        <mxCell id="_LgDygbCN5mEaOAKA-p3-1" value="" style="pointerEvents=1;verticalLabelPosition=bottom;shadow=0;dashed=0;align=center;html=1;verticalAlign=top;shape=mxgraph.electrical.electro-mechanical.2-way_switch;direction=west;" parent="1" vertex="1">
          <mxGeometry x="271.63" y="-740" width="75" height="26" as="geometry" />
        </mxCell>
        <mxCell id="_LgDygbCN5mEaOAKA-p3-15" value="" style="edgeStyle=none;rounded=0;orthogonalLoop=1;jettySize=auto;html=1;entryX=0.44;entryY=0.577;entryDx=0;entryDy=0;entryPerimeter=0;dashed=1;" parent="1" source="_LgDygbCN5mEaOAKA-p3-2" target="_LgDygbCN5mEaOAKA-p3-1" edge="1">
          <mxGeometry relative="1" as="geometry">
            <mxPoint x="309.63" y="-700" as="targetPoint" />
          </mxGeometry>
        </mxCell>
        <mxCell id="_LgDygbCN5mEaOAKA-p3-16" style="edgeStyle=orthogonalEdgeStyle;rounded=0;orthogonalLoop=1;jettySize=auto;html=1;exitX=0;exitY=0.885;exitDx=0;exitDy=0;exitPerimeter=0;" parent="1" source="_LgDygbCN5mEaOAKA-p3-2" edge="1">
          <mxGeometry relative="1" as="geometry">
            <mxPoint x="424.63" y="-720" as="targetPoint" />
            <Array as="points">
              <mxPoint x="365.63" y="-697" />
              <mxPoint x="365.63" y="-720" />
            </Array>
          </mxGeometry>
        </mxCell>
        <mxCell id="_LgDygbCN5mEaOAKA-p3-2" value="" style="pointerEvents=1;verticalLabelPosition=bottom;shadow=0;dashed=0;align=center;html=1;verticalAlign=top;shape=mxgraph.electrical.electro-mechanical.2-way_switch;direction=west;" parent="1" vertex="1">
          <mxGeometry x="274.38" y="-700" width="75" height="26" as="geometry" />
        </mxCell>
        <mxCell id="_LgDygbCN5mEaOAKA-p3-6" style="rounded=0;orthogonalLoop=1;jettySize=auto;html=1;exitX=1;exitY=0.5;exitDx=0;exitDy=0;exitPerimeter=0;entryX=1;entryY=0.885;entryDx=0;entryDy=0;entryPerimeter=0;" parent="1" source="_LgDygbCN5mEaOAKA-p3-3" target="_LgDygbCN5mEaOAKA-p3-1" edge="1">
          <mxGeometry relative="1" as="geometry" />
        </mxCell>
        <mxCell id="_LgDygbCN5mEaOAKA-p3-3" value="" style="verticalLabelPosition=bottom;shadow=0;dashed=0;align=center;html=1;verticalAlign=top;shape=mxgraph.electrical.logic_gates.lowpass_filter;fillColor=#fff2cc;strokeColor=#d6b656;" parent="1" vertex="1">
          <mxGeometry x="135.63" y="-760" width="52" height="46" as="geometry" />
        </mxCell>
        <mxCell id="_LgDygbCN5mEaOAKA-p3-5" value="" style="verticalLabelPosition=bottom;shadow=0;dashed=0;align=center;html=1;verticalAlign=top;shape=mxgraph.electrical.logic_gates.lowpass_filter;fillColor=#fff2cc;strokeColor=#d6b656;" parent="1" vertex="1">
          <mxGeometry x="425.63" y="-760" width="52" height="46" as="geometry" />
        </mxCell>
        <mxCell id="_LgDygbCN5mEaOAKA-p3-11" style="edgeStyle=none;rounded=0;orthogonalLoop=1;jettySize=auto;html=1;entryX=0.52;entryY=0.615;entryDx=0;entryDy=0;entryPerimeter=0;dashed=1;" parent="1" target="_LgDygbCN5mEaOAKA-p3-2" edge="1">
          <mxGeometry relative="1" as="geometry">
            <mxPoint x="309.9587525594583" y="-636.5" as="sourcePoint" />
          </mxGeometry>
        </mxCell>
        <mxCell id="_LgDygbCN5mEaOAKA-p3-24" style="edgeStyle=orthogonalEdgeStyle;rounded=0;orthogonalLoop=1;jettySize=auto;html=1;exitX=1;exitY=0.5;exitDx=0;exitDy=0;exitPerimeter=0;entryX=0;entryY=0.5;entryDx=0;entryDy=0;entryPerimeter=0;" parent="1" source="_LgDygbCN5mEaOAKA-p3-37" target="_LgDygbCN5mEaOAKA-p3-31" edge="1">
          <mxGeometry relative="1" as="geometry">
            <mxPoint x="461.63" y="-1037.01" as="sourcePoint" />
          </mxGeometry>
        </mxCell>
        <mxCell id="_LgDygbCN5mEaOAKA-p3-29" style="rounded=0;orthogonalLoop=1;jettySize=auto;html=1;exitX=1;exitY=0.5;exitDx=0;exitDy=0;exitPerimeter=0;" parent="1" source="_LgDygbCN5mEaOAKA-p3-30" target="_LgDygbCN5mEaOAKA-p3-37" edge="1">
          <mxGeometry relative="1" as="geometry">
            <mxPoint x="386.63" y="-1037.01" as="targetPoint" />
          </mxGeometry>
        </mxCell>
        <mxCell id="_LgDygbCN5mEaOAKA-p3-30" value="LPF" style="verticalLabelPosition=bottom;shadow=0;dashed=0;align=center;html=1;verticalAlign=top;shape=mxgraph.electrical.logic_gates.lowpass_filter;fillColor=#fff2cc;strokeColor=#d6b656;" parent="1" vertex="1">
          <mxGeometry x="316.13" y="-1060" width="52" height="46" as="geometry" />
        </mxCell>
        <mxCell id="_LgDygbCN5mEaOAKA-p3-42" style="edgeStyle=none;rounded=0;orthogonalLoop=1;jettySize=auto;html=1;exitX=1;exitY=0.5;exitDx=0;exitDy=0;exitPerimeter=0;entryX=1;entryY=0.5;entryDx=0;entryDy=0;entryPerimeter=0;" parent="1" source="_LgDygbCN5mEaOAKA-p3-31" target="_LgDygbCN5mEaOAKA-p3-38" edge="1">
          <mxGeometry relative="1" as="geometry" />
        </mxCell>
        <mxCell id="_LgDygbCN5mEaOAKA-p3-31" value="LPF" style="verticalLabelPosition=bottom;shadow=0;dashed=0;align=center;html=1;verticalAlign=top;shape=mxgraph.electrical.logic_gates.lowpass_filter;fillColor=#fff2cc;strokeColor=#d6b656;" parent="1" vertex="1">
          <mxGeometry x="480.63" y="-1060" width="52" height="46" as="geometry" />
        </mxCell>
        <mxCell id="_LgDygbCN5mEaOAKA-p3-32" style="edgeStyle=none;rounded=0;orthogonalLoop=1;jettySize=auto;html=1;entryX=0.5;entryY=1;entryDx=0;entryDy=0;entryPerimeter=0;exitX=0.5;exitY=0;exitDx=0;exitDy=0;" parent="1" source="_LgDygbCN5mEaOAKA-p3-96" target="_LgDygbCN5mEaOAKA-p3-37" edge="1">
          <mxGeometry relative="1" as="geometry">
            <mxPoint x="423.2177192982457" y="-936.5" as="sourcePoint" />
            <mxPoint x="425.38" y="-989.99" as="targetPoint" />
          </mxGeometry>
        </mxCell>
        <mxCell id="_LgDygbCN5mEaOAKA-p3-37" value="Mixer&lt;br&gt;" style="verticalLabelPosition=top;shadow=0;dashed=0;align=center;html=1;verticalAlign=bottom;shape=mxgraph.electrical.abstract.multiplier;fillColor=#d5e8d4;strokeColor=#82b366;labelPosition=center;" parent="1" vertex="1">
          <mxGeometry x="398.88" y="-1062" width="50" height="50" as="geometry" />
        </mxCell>
        <mxCell id="_LgDygbCN5mEaOAKA-p3-38" value="ADC" style="verticalLabelPosition=middle;shadow=0;dashed=0;align=center;html=1;verticalAlign=middle;shape=mxgraph.electrical.abstract.dac;direction=west;labelPosition=center;fillColor=#dae8fc;strokeColor=#6c8ebf;" parent="1" vertex="1">
          <mxGeometry x="572.63" y="-1060" width="60" height="46" as="geometry" />
        </mxCell>
        <mxCell id="_LgDygbCN5mEaOAKA-p3-41" style="edgeStyle=none;rounded=0;orthogonalLoop=1;jettySize=auto;html=1;exitX=1;exitY=0.5;exitDx=0;exitDy=0;exitPerimeter=0;entryX=0;entryY=0.5;entryDx=0;entryDy=0;entryPerimeter=0;" parent="1" source="_LgDygbCN5mEaOAKA-p3-40" target="_LgDygbCN5mEaOAKA-p3-30" edge="1">
          <mxGeometry relative="1" as="geometry" />
        </mxCell>
        <mxCell id="_LgDygbCN5mEaOAKA-p3-40" value="" style="verticalLabelPosition=bottom;shadow=0;dashed=0;align=center;html=1;verticalAlign=top;shape=mxgraph.electrical.abstract.controlled_amplifier;fillColor=#dae8fc;strokeColor=#6c8ebf;" parent="1" vertex="1">
          <mxGeometry x="230.63" y="-1067" width="60" height="60" as="geometry" />
        </mxCell>
        <mxCell id="_LgDygbCN5mEaOAKA-p3-44" style="edgeStyle=none;rounded=0;orthogonalLoop=1;jettySize=auto;html=1;exitX=1;exitY=0.57;exitDx=0;exitDy=0;exitPerimeter=0;entryX=0;entryY=0.5;entryDx=0;entryDy=0;entryPerimeter=0;" parent="1" source="_LgDygbCN5mEaOAKA-p3-43" target="_LgDygbCN5mEaOAKA-p3-40" edge="1">
          <mxGeometry relative="1" as="geometry" />
        </mxCell>
        <mxCell id="_LgDygbCN5mEaOAKA-p3-48" style="edgeStyle=orthogonalEdgeStyle;rounded=0;orthogonalLoop=1;jettySize=auto;html=1;exitX=0;exitY=0.57;exitDx=0;exitDy=0;exitPerimeter=0;entryX=0.5;entryY=0;entryDx=0;entryDy=0;entryPerimeter=0;horizontal=1;endArrow=none;endFill=0;" parent="1" source="_LgDygbCN5mEaOAKA-p3-43" target="_LgDygbCN5mEaOAKA-p3-47" edge="1">
          <mxGeometry relative="1" as="geometry" />
        </mxCell>
        <mxCell id="_LgDygbCN5mEaOAKA-p3-43" value="" style="verticalLabelPosition=bottom;shadow=0;dashed=0;align=center;html=1;verticalAlign=top;shape=mxgraph.electrical.opto_electronics.photodiode;pointerEvents=1;direction=east;fillColor=#e51400;strokeColor=#B20000;fontColor=#ffffff;flipV=1;" parent="1" vertex="1">
          <mxGeometry x="141.32" y="-1050" width="50" height="30" as="geometry" />
        </mxCell>
        <mxCell id="_LgDygbCN5mEaOAKA-p3-101" style="edgeStyle=orthogonalEdgeStyle;rounded=0;orthogonalLoop=1;jettySize=auto;html=1;exitX=1;exitY=0.57;exitDx=0;exitDy=0;exitPerimeter=0;entryX=0.5;entryY=0;entryDx=0;entryDy=0;entryPerimeter=0;endArrow=none;endFill=0;fontColor=#000000;" parent="1" source="_LgDygbCN5mEaOAKA-p3-45" target="_LgDygbCN5mEaOAKA-p3-47" edge="1">
          <mxGeometry relative="1" as="geometry" />
        </mxCell>
        <mxCell id="_LgDygbCN5mEaOAKA-p3-45" value="" style="verticalLabelPosition=bottom;shadow=0;dashed=0;align=center;html=1;verticalAlign=top;shape=mxgraph.electrical.opto_electronics.led_2;pointerEvents=1;direction=east;flipH=1;fillColor=#e51400;strokeColor=#B20000;fontColor=#ffffff;" parent="1" vertex="1">
          <mxGeometry x="131.63" y="-989.5" width="55" height="27.5" as="geometry" />
        </mxCell>
        <mxCell id="_LgDygbCN5mEaOAKA-p3-46" style="rounded=0;orthogonalLoop=1;jettySize=auto;html=1;entryX=0;entryY=0.57;entryDx=0;entryDy=0;entryPerimeter=0;exitX=0.5;exitY=0;exitDx=0;exitDy=0;" parent="1" source="_LgDygbCN5mEaOAKA-p3-96" target="_LgDygbCN5mEaOAKA-p3-45" edge="1">
          <mxGeometry relative="1" as="geometry">
            <mxPoint x="422.63" y="-950" as="sourcePoint" />
            <Array as="points">
              <mxPoint x="422.63" y="-973" />
            </Array>
          </mxGeometry>
        </mxCell>
        <mxCell id="_LgDygbCN5mEaOAKA-p3-47" value="" style="pointerEvents=1;verticalLabelPosition=bottom;shadow=0;dashed=0;align=center;html=1;verticalAlign=top;shape=mxgraph.electrical.signal_sources.protective_earth;" parent="1" vertex="1">
          <mxGeometry x="94.63" y="-940" width="25" height="20" as="geometry" />
        </mxCell>
        <mxCell id="_LgDygbCN5mEaOAKA-p3-53" style="edgeStyle=orthogonalEdgeStyle;rounded=0;orthogonalLoop=1;jettySize=auto;html=1;exitX=1;exitY=0.5;exitDx=0;exitDy=0;exitPerimeter=0;entryX=0;entryY=0.5;entryDx=0;entryDy=0;entryPerimeter=0;" parent="1" source="_LgDygbCN5mEaOAKA-p3-76" target="_LgDygbCN5mEaOAKA-p3-60" edge="1">
          <mxGeometry relative="1" as="geometry">
            <mxPoint x="606.32" y="-427.0100000000002" as="sourcePoint" />
          </mxGeometry>
        </mxCell>
        <mxCell id="_LgDygbCN5mEaOAKA-p3-58" style="rounded=0;orthogonalLoop=1;jettySize=auto;html=1;" parent="1" target="_LgDygbCN5mEaOAKA-p3-76" edge="1">
          <mxGeometry relative="1" as="geometry">
            <mxPoint x="335.32" y="-427" as="sourcePoint" />
            <mxPoint x="531.32" y="-427.0100000000002" as="targetPoint" />
          </mxGeometry>
        </mxCell>
        <mxCell id="_LgDygbCN5mEaOAKA-p3-78" value="" style="edgeStyle=none;rounded=0;orthogonalLoop=1;jettySize=auto;html=1;endArrow=none;endFill=0;exitX=1;exitY=0.5;exitDx=0;exitDy=0;exitPerimeter=0;" parent="1" source="_LgDygbCN5mEaOAKA-p3-59" target="_LgDygbCN5mEaOAKA-p3-65" edge="1">
          <mxGeometry relative="1" as="geometry" />
        </mxCell>
        <mxCell id="_LgDygbCN5mEaOAKA-p3-59" value="" style="verticalLabelPosition=bottom;shadow=0;dashed=0;align=center;html=1;verticalAlign=top;shape=mxgraph.electrical.logic_gates.lowpass_filter;fillColor=#fff2cc;strokeColor=#d6b656;" parent="1" vertex="1">
          <mxGeometry x="305.32" y="-446" width="40" height="36" as="geometry" />
        </mxCell>
        <mxCell id="_LgDygbCN5mEaOAKA-p3-60" value="Low pass filter&lt;br&gt;&amp;amp; decimatin" style="verticalLabelPosition=bottom;shadow=0;dashed=0;align=center;html=1;verticalAlign=top;shape=mxgraph.electrical.logic_gates.lowpass_filter;fillColor=#fff2cc;strokeColor=#d6b656;" parent="1" vertex="1">
          <mxGeometry x="575.32" y="-451" width="52" height="46" as="geometry" />
        </mxCell>
        <mxCell id="_LgDygbCN5mEaOAKA-p3-61" style="edgeStyle=none;rounded=0;orthogonalLoop=1;jettySize=auto;html=1;entryX=0.5;entryY=1;entryDx=0;entryDy=0;entryPerimeter=0;exitX=0.5;exitY=0;exitDx=0;exitDy=0;" parent="1" source="_LgDygbCN5mEaOAKA-p3-63" target="_LgDygbCN5mEaOAKA-p3-76" edge="1">
          <mxGeometry relative="1" as="geometry">
            <mxPoint x="570.07" y="-379.9899999999998" as="targetPoint" />
          </mxGeometry>
        </mxCell>
        <mxCell id="_LgDygbCN5mEaOAKA-p3-65" value="ADC" style="verticalLabelPosition=middle;shadow=0;dashed=0;align=center;html=1;verticalAlign=middle;shape=mxgraph.electrical.abstract.dac;direction=west;labelPosition=center;fillColor=#dae8fc;strokeColor=#6c8ebf;" parent="1" vertex="1">
          <mxGeometry x="421.57" y="-451" width="60" height="46" as="geometry" />
        </mxCell>
        <mxCell id="_LgDygbCN5mEaOAKA-p3-69" style="edgeStyle=orthogonalEdgeStyle;rounded=0;orthogonalLoop=1;jettySize=auto;html=1;exitX=0;exitY=0.57;exitDx=0;exitDy=0;exitPerimeter=0;entryX=0.5;entryY=0;entryDx=0;entryDy=0;entryPerimeter=0;horizontal=1;endArrow=none;endFill=0;" parent="1" source="_LgDygbCN5mEaOAKA-p3-70" target="_LgDygbCN5mEaOAKA-p3-73" edge="1">
          <mxGeometry relative="1" as="geometry" />
        </mxCell>
        <mxCell id="_LgDygbCN5mEaOAKA-p3-80" style="edgeStyle=none;rounded=0;orthogonalLoop=1;jettySize=auto;html=1;exitX=1;exitY=0.57;exitDx=0;exitDy=0;exitPerimeter=0;entryX=0;entryY=0.5;entryDx=0;entryDy=0;entryPerimeter=0;endArrow=none;endFill=0;" parent="1" source="_LgDygbCN5mEaOAKA-p3-70" target="_LgDygbCN5mEaOAKA-p3-74" edge="1">
          <mxGeometry relative="1" as="geometry" />
        </mxCell>
        <mxCell id="_LgDygbCN5mEaOAKA-p3-70" value="" style="verticalLabelPosition=bottom;shadow=0;dashed=0;align=center;html=1;verticalAlign=top;shape=mxgraph.electrical.opto_electronics.photodiode;pointerEvents=1;direction=east;fillColor=#e51400;strokeColor=#B20000;fontColor=#ffffff;flipV=1;" parent="1" vertex="1">
          <mxGeometry x="165.32" y="-441" width="50" height="30" as="geometry" />
        </mxCell>
        <mxCell id="_LgDygbCN5mEaOAKA-p3-71" style="rounded=0;orthogonalLoop=1;jettySize=auto;html=1;exitX=1;exitY=0.57;exitDx=0;exitDy=0;exitPerimeter=0;endArrow=none;endFill=0;entryX=0.5;entryY=0;entryDx=0;entryDy=0;entryPerimeter=0;" parent="1" source="_LgDygbCN5mEaOAKA-p3-72" target="_LgDygbCN5mEaOAKA-p3-73" edge="1">
          <mxGeometry relative="1" as="geometry">
            <mxPoint x="125.32" y="-339" as="targetPoint" />
            <Array as="points">
              <mxPoint x="118.32" y="-358" />
            </Array>
          </mxGeometry>
        </mxCell>
        <mxCell id="_LgDygbCN5mEaOAKA-p3-72" value="Laser" style="verticalLabelPosition=bottom;shadow=0;dashed=0;align=center;html=1;verticalAlign=top;shape=mxgraph.electrical.opto_electronics.led_2;pointerEvents=1;direction=east;flipH=1;fillColor=#e51400;strokeColor=#B20000;" parent="1" vertex="1">
          <mxGeometry x="155.32" y="-374" width="55" height="27.5" as="geometry" />
        </mxCell>
        <mxCell id="_LgDygbCN5mEaOAKA-p3-73" value="" style="pointerEvents=1;verticalLabelPosition=bottom;shadow=0;dashed=0;align=center;html=1;verticalAlign=top;shape=mxgraph.electrical.signal_sources.protective_earth;" parent="1" vertex="1">
          <mxGeometry x="105.32" y="-305" width="25" height="20" as="geometry" />
        </mxCell>
        <mxCell id="_LgDygbCN5mEaOAKA-p3-75" style="edgeStyle=none;rounded=0;orthogonalLoop=1;jettySize=auto;html=1;exitX=1;exitY=0.5;exitDx=0;exitDy=0;exitPerimeter=0;entryX=0;entryY=0.5;entryDx=0;entryDy=0;entryPerimeter=0;endArrow=none;endFill=0;" parent="1" source="_LgDygbCN5mEaOAKA-p3-74" target="_LgDygbCN5mEaOAKA-p3-59" edge="1">
          <mxGeometry relative="1" as="geometry" />
        </mxCell>
        <mxCell id="_LgDygbCN5mEaOAKA-p3-74" value="" style="verticalLabelPosition=bottom;shadow=0;dashed=0;align=center;html=1;verticalAlign=top;shape=mxgraph.electrical.abstract.controlled_amplifier;fillColor=#dae8fc;strokeColor=#6c8ebf;" parent="1" vertex="1">
          <mxGeometry x="232.82" y="-448" width="52.5" height="40" as="geometry" />
        </mxCell>
        <mxCell id="_LgDygbCN5mEaOAKA-p3-76" value="Mutiplicator" style="verticalLabelPosition=top;shadow=0;dashed=0;align=center;html=1;verticalAlign=bottom;shape=mxgraph.electrical.abstract.multiplier;fillColor=#d5e8d4;strokeColor=#82b366;labelPosition=center;" parent="1" vertex="1">
          <mxGeometry x="511.2" y="-444.5" width="31.75" height="33" as="geometry" />
        </mxCell>
        <mxCell id="_LgDygbCN5mEaOAKA-p3-77" style="edgeStyle=none;rounded=0;orthogonalLoop=1;jettySize=auto;html=1;exitX=0.5;exitY=0;exitDx=0;exitDy=0;entryX=0;entryY=0.57;entryDx=0;entryDy=0;entryPerimeter=0;endArrow=classic;endFill=1;" parent="1" source="_LgDygbCN5mEaOAKA-p3-63" target="_LgDygbCN5mEaOAKA-p3-72" edge="1">
          <mxGeometry relative="1" as="geometry">
            <Array as="points">
              <mxPoint x="528.32" y="-358" />
            </Array>
          </mxGeometry>
        </mxCell>
        <mxCell id="d9Xijrj67KwfC3W1lsyz-47" value="GPIO" style="edgeLabel;html=1;align=center;verticalAlign=middle;resizable=0;points=[];" parent="_LgDygbCN5mEaOAKA-p3-77" vertex="1" connectable="0">
          <mxGeometry x="-0.3219" y="1" relative="1" as="geometry">
            <mxPoint x="-7" as="offset" />
          </mxGeometry>
        </mxCell>
        <mxCell id="_LgDygbCN5mEaOAKA-p3-89" value="+ / -1" style="group;labelPosition=center;verticalLabelPosition=top;align=center;verticalAlign=bottom;labelBorderColor=none;labelBackgroundColor=#ffffff;" parent="1" vertex="1" connectable="0">
          <mxGeometry x="504.82" y="-330" width="47.5" height="47.5" as="geometry" />
        </mxCell>
        <mxCell id="_LgDygbCN5mEaOAKA-p3-63" value="" style="ellipse;whiteSpace=wrap;html=1;aspect=fixed;fillColor=#ffe6cc;strokeColor=#d79b00;" parent="_LgDygbCN5mEaOAKA-p3-89" vertex="1">
          <mxGeometry width="47.5" height="47.5" as="geometry" />
        </mxCell>
        <mxCell id="_LgDygbCN5mEaOAKA-p3-85" value="" style="group" parent="_LgDygbCN5mEaOAKA-p3-89" vertex="1" connectable="0">
          <mxGeometry x="13.5" y="8.75" width="30" height="30" as="geometry" />
        </mxCell>
        <mxCell id="_LgDygbCN5mEaOAKA-p3-84" style="edgeStyle=none;rounded=0;orthogonalLoop=1;jettySize=auto;html=1;endArrow=none;endFill=0;fontColor=#000000;" parent="_LgDygbCN5mEaOAKA-p3-85" source="_LgDygbCN5mEaOAKA-p3-64" edge="1">
          <mxGeometry relative="1" as="geometry">
            <mxPoint x="-10" y="15" as="targetPoint" />
            <Array as="points">
              <mxPoint x="30" y="15" />
            </Array>
          </mxGeometry>
        </mxCell>
        <mxCell id="_LgDygbCN5mEaOAKA-p3-64" value="" style="pointerEvents=1;verticalLabelPosition=bottom;shadow=0;dashed=0;align=center;html=1;verticalAlign=top;shape=mxgraph.electrical.waveforms.square_wave;fillColor=#dae8fc;strokeColor=#6c8ebf;" parent="_LgDygbCN5mEaOAKA-p3-85" vertex="1">
          <mxGeometry width="20" height="30" as="geometry" />
        </mxCell>
        <mxCell id="_LgDygbCN5mEaOAKA-p3-90" value="" style="group" parent="1" vertex="1" connectable="0">
          <mxGeometry x="285.63" y="-650" width="47.5" height="47.5" as="geometry" />
        </mxCell>
        <mxCell id="_LgDygbCN5mEaOAKA-p3-91" value="" style="ellipse;whiteSpace=wrap;html=1;aspect=fixed;fillColor=#ffe6cc;strokeColor=#d79b00;" parent="_LgDygbCN5mEaOAKA-p3-90" vertex="1">
          <mxGeometry width="47.5" height="47.5" as="geometry" />
        </mxCell>
        <mxCell id="_LgDygbCN5mEaOAKA-p3-92" value="" style="group" parent="_LgDygbCN5mEaOAKA-p3-90" vertex="1" connectable="0">
          <mxGeometry x="13.5" y="8.75" width="30" height="30" as="geometry" />
        </mxCell>
        <mxCell id="_LgDygbCN5mEaOAKA-p3-93" style="edgeStyle=none;rounded=0;orthogonalLoop=1;jettySize=auto;html=1;endArrow=none;endFill=0;fontColor=#000000;" parent="_LgDygbCN5mEaOAKA-p3-92" source="_LgDygbCN5mEaOAKA-p3-94" edge="1">
          <mxGeometry relative="1" as="geometry">
            <mxPoint x="-10" y="15" as="targetPoint" />
            <Array as="points">
              <mxPoint x="30" y="15" />
            </Array>
          </mxGeometry>
        </mxCell>
        <mxCell id="_LgDygbCN5mEaOAKA-p3-94" value="" style="pointerEvents=1;verticalLabelPosition=bottom;shadow=0;dashed=0;align=center;html=1;verticalAlign=top;shape=mxgraph.electrical.waveforms.square_wave;fillColor=#dae8fc;strokeColor=#6c8ebf;" parent="_LgDygbCN5mEaOAKA-p3-92" vertex="1">
          <mxGeometry width="20" height="30" as="geometry" />
        </mxCell>
        <mxCell id="_LgDygbCN5mEaOAKA-p3-95" value="" style="group" parent="1" vertex="1" connectable="0">
          <mxGeometry x="400.13" y="-962" width="47.5" height="47.5" as="geometry" />
        </mxCell>
        <mxCell id="_LgDygbCN5mEaOAKA-p3-96" value="" style="ellipse;whiteSpace=wrap;html=1;aspect=fixed;fillColor=#ffe6cc;strokeColor=#d79b00;" parent="_LgDygbCN5mEaOAKA-p3-95" vertex="1">
          <mxGeometry width="47.5" height="47.5" as="geometry" />
        </mxCell>
        <mxCell id="_LgDygbCN5mEaOAKA-p3-97" value="" style="group" parent="_LgDygbCN5mEaOAKA-p3-95" vertex="1" connectable="0">
          <mxGeometry x="13.5" y="8.75" width="30" height="30" as="geometry" />
        </mxCell>
        <mxCell id="_LgDygbCN5mEaOAKA-p3-98" style="edgeStyle=none;rounded=0;orthogonalLoop=1;jettySize=auto;html=1;endArrow=none;endFill=0;fontColor=#000000;" parent="_LgDygbCN5mEaOAKA-p3-97" source="_LgDygbCN5mEaOAKA-p3-99" edge="1">
          <mxGeometry relative="1" as="geometry">
            <mxPoint x="-10" y="15" as="targetPoint" />
            <Array as="points">
              <mxPoint x="30" y="15" />
            </Array>
          </mxGeometry>
        </mxCell>
        <mxCell id="_LgDygbCN5mEaOAKA-p3-99" value="Oscilator" style="pointerEvents=1;verticalLabelPosition=bottom;shadow=0;dashed=0;align=center;html=1;verticalAlign=top;shape=mxgraph.electrical.waveforms.square_wave;fillColor=#dae8fc;strokeColor=#6c8ebf;" parent="_LgDygbCN5mEaOAKA-p3-97" vertex="1">
          <mxGeometry width="20" height="30" as="geometry" />
        </mxCell>
      </root>
    </mxGraphModel>
  </diagram>
  <diagram id="y1rCOYoELIklN9UBrQcD" name="Freq domain">
    <mxGraphModel dx="782" dy="1794" grid="1" gridSize="10" guides="1" tooltips="1" connect="1" arrows="1" fold="1" page="1" pageScale="1" pageWidth="826" pageHeight="1169" math="0" shadow="0">
      <root>
        <mxCell id="itG-f2Ae2NfoAcJiITjj-0" />
        <mxCell id="itG-f2Ae2NfoAcJiITjj-1" parent="itG-f2Ae2NfoAcJiITjj-0" />
        <mxCell id="f8PjCzxL09GvIvh93bTI-0" value="" style="group" parent="itG-f2Ae2NfoAcJiITjj-1" vertex="1" connectable="0">
          <mxGeometry x="120" y="-1120" width="340" height="147.83000000000004" as="geometry" />
        </mxCell>
        <mxCell id="itG-f2Ae2NfoAcJiITjj-2" value="" style="curved=1;endArrow=none;html=1;endFill=0;fillColor=#f8cecc;strokeColor=#b85450;strokeWidth=2;dashed=1;" parent="f8PjCzxL09GvIvh93bTI-0" edge="1">
          <mxGeometry width="50" height="50" relative="1" as="geometry">
            <mxPoint x="7.555555555555555" y="30.434782608695656" as="sourcePoint" />
            <mxPoint x="332.44444444444446" y="121.73913043478262" as="targetPoint" />
            <Array as="points">
              <mxPoint x="52.888888888888886" y="127.82608695652175" />
            </Array>
          </mxGeometry>
        </mxCell>
        <mxCell id="itG-f2Ae2NfoAcJiITjj-3" value="" style="endArrow=classic;html=1;" parent="f8PjCzxL09GvIvh93bTI-0" edge="1">
          <mxGeometry width="50" height="50" relative="1" as="geometry">
            <mxPoint y="133.91304347826087" as="sourcePoint" />
            <mxPoint x="340" y="133.91304347826087" as="targetPoint" />
          </mxGeometry>
        </mxCell>
        <mxCell id="itG-f2Ae2NfoAcJiITjj-4" value="" style="endArrow=classic;html=1;" parent="f8PjCzxL09GvIvh93bTI-0" edge="1">
          <mxGeometry width="50" height="50" relative="1" as="geometry">
            <mxPoint x="7.555555555555555" y="140" as="sourcePoint" />
            <mxPoint x="7.555555555555555" as="targetPoint" />
          </mxGeometry>
        </mxCell>
        <mxCell id="itG-f2Ae2NfoAcJiITjj-5" value="" style="rounded=0;whiteSpace=wrap;html=1;fillColor=#ffe6cc;strokeColor=#d79b00;" parent="f8PjCzxL09GvIvh93bTI-0" vertex="1">
          <mxGeometry x="7.555555555555555" y="66.95652173913044" width="15.11111111111111" height="66.95652173913044" as="geometry" />
        </mxCell>
        <mxCell id="itG-f2Ae2NfoAcJiITjj-6" value="Signal of interest" style="text;html=1;align=center;verticalAlign=middle;whiteSpace=wrap;rounded=1;perimeterSpacing=1;glass=0;" parent="f8PjCzxL09GvIvh93bTI-0" vertex="1">
          <mxGeometry x="57.14266666666666" y="115.65217391304348" width="76.87777777777778" height="12.173913043478262" as="geometry" />
        </mxCell>
        <mxCell id="itG-f2Ae2NfoAcJiITjj-7" value="" style="endArrow=classic;html=1;strokeWidth=2;entryX=1.15;entryY=0.645;entryDx=0;entryDy=0;entryPerimeter=0;exitX=0;exitY=0.5;exitDx=0;exitDy=0;" parent="f8PjCzxL09GvIvh93bTI-0" source="itG-f2Ae2NfoAcJiITjj-6" target="itG-f2Ae2NfoAcJiITjj-5" edge="1">
          <mxGeometry width="50" height="50" relative="1" as="geometry">
            <mxPoint x="166.22222222222223" y="140" as="sourcePoint" />
            <mxPoint x="204" y="109.56521739130436" as="targetPoint" />
          </mxGeometry>
        </mxCell>
        <mxCell id="itG-f2Ae2NfoAcJiITjj-8" value="Noise floor" style="text;html=1;align=center;verticalAlign=middle;whiteSpace=wrap;rounded=1;perimeterSpacing=1;glass=0;" parent="f8PjCzxL09GvIvh93bTI-0" vertex="1">
          <mxGeometry x="48.64266666666666" y="36.52173913043478" width="76.87777777777778" height="12.173913043478262" as="geometry" />
        </mxCell>
        <mxCell id="itG-f2Ae2NfoAcJiITjj-9" value="" style="endArrow=classic;html=1;strokeWidth=2;exitX=0.25;exitY=1;exitDx=0;exitDy=0;" parent="f8PjCzxL09GvIvh93bTI-0" source="itG-f2Ae2NfoAcJiITjj-8" edge="1">
          <mxGeometry width="50" height="50" relative="1" as="geometry">
            <mxPoint x="63.942666666666746" y="127.82608695652175" as="sourcePoint" />
            <mxPoint x="37.77777777777778" y="60.86956521739131" as="targetPoint" />
          </mxGeometry>
        </mxCell>
        <mxCell id="jMbkGNXLHr5RiGjJXChH-8" value="Freq" style="text;html=1;align=center;verticalAlign=middle;resizable=0;points=[];autosize=1;" parent="f8PjCzxL09GvIvh93bTI-0" vertex="1">
          <mxGeometry x="283" y="130.83000000000004" width="40" height="20" as="geometry" />
        </mxCell>
        <mxCell id="f8PjCzxL09GvIvh93bTI-1" value="" style="group" parent="itG-f2Ae2NfoAcJiITjj-1" vertex="1" connectable="0">
          <mxGeometry x="120" y="-870" width="410" height="170" as="geometry" />
        </mxCell>
        <mxCell id="itG-f2Ae2NfoAcJiITjj-10" value="" style="curved=1;endArrow=none;html=1;endFill=0;fillColor=#f8cecc;strokeColor=#b85450;strokeWidth=2;dashed=1;" parent="f8PjCzxL09GvIvh93bTI-1" edge="1">
          <mxGeometry width="50" height="50" relative="1" as="geometry">
            <mxPoint x="7.395649193693857" y="32.69230769230769" as="sourcePoint" />
            <mxPoint x="325.4085645225297" y="130.76923076923077" as="targetPoint" />
            <Array as="points">
              <mxPoint x="51.769544355857" y="137.3076923076923" />
            </Array>
          </mxGeometry>
        </mxCell>
        <mxCell id="itG-f2Ae2NfoAcJiITjj-11" value="" style="endArrow=classic;html=1;" parent="f8PjCzxL09GvIvh93bTI-1" edge="1">
          <mxGeometry width="50" height="50" relative="1" as="geometry">
            <mxPoint y="143.84615384615384" as="sourcePoint" />
            <mxPoint x="332.80421371622356" y="143.84615384615384" as="targetPoint" />
          </mxGeometry>
        </mxCell>
        <mxCell id="itG-f2Ae2NfoAcJiITjj-12" value="" style="endArrow=classic;html=1;" parent="f8PjCzxL09GvIvh93bTI-1" edge="1">
          <mxGeometry width="50" height="50" relative="1" as="geometry">
            <mxPoint x="7.395649193693857" y="150.3846153846154" as="sourcePoint" />
            <mxPoint x="7.395649193693857" as="targetPoint" />
          </mxGeometry>
        </mxCell>
        <mxCell id="itG-f2Ae2NfoAcJiITjj-13" value="Signal of interest" style="text;html=1;align=center;verticalAlign=middle;whiteSpace=wrap;rounded=1;perimeterSpacing=1;glass=0;" parent="f8PjCzxL09GvIvh93bTI-1" vertex="1">
          <mxGeometry x="334.74926945416496" y="110.53269230769226" width="75.25073054583498" height="13.076923076923077" as="geometry" />
        </mxCell>
        <mxCell id="itG-f2Ae2NfoAcJiITjj-14" value="" style="endArrow=classic;html=1;strokeWidth=2;exitX=0;exitY=0.5;exitDx=0;exitDy=0;" parent="f8PjCzxL09GvIvh93bTI-1" source="itG-f2Ae2NfoAcJiITjj-13" target="itG-f2Ae2NfoAcJiITjj-19" edge="1">
          <mxGeometry width="50" height="50" relative="1" as="geometry">
            <mxPoint x="441.5202568635233" y="136.68653846153845" as="sourcePoint" />
            <mxPoint x="303.2216169414481" y="104.61538461538461" as="targetPoint" />
          </mxGeometry>
        </mxCell>
        <mxCell id="itG-f2Ae2NfoAcJiITjj-15" value="Noise floor" style="text;html=1;align=center;verticalAlign=middle;whiteSpace=wrap;rounded=1;perimeterSpacing=1;glass=0;" parent="f8PjCzxL09GvIvh93bTI-1" vertex="1">
          <mxGeometry x="47.613189509001046" y="39.23076923076924" width="75.25073054583498" height="13.076923076923077" as="geometry" />
        </mxCell>
        <mxCell id="itG-f2Ae2NfoAcJiITjj-16" value="" style="endArrow=classic;html=1;strokeWidth=2;exitX=0.25;exitY=1;exitDx=0;exitDy=0;" parent="f8PjCzxL09GvIvh93bTI-1" source="itG-f2Ae2NfoAcJiITjj-15" edge="1">
          <mxGeometry width="50" height="50" relative="1" as="geometry">
            <mxPoint x="62.589379126231194" y="137.3076923076923" as="sourcePoint" />
            <mxPoint x="44.37389516216314" y="71.92307692307692" as="targetPoint" />
          </mxGeometry>
        </mxCell>
        <mxCell id="itG-f2Ae2NfoAcJiITjj-17" value="" style="group" parent="f8PjCzxL09GvIvh93bTI-1" vertex="1" connectable="0">
          <mxGeometry x="271.4203254085645" y="45.76923076923077" width="17.00999314549587" height="98.07692307692308" as="geometry" />
        </mxCell>
        <mxCell id="itG-f2Ae2NfoAcJiITjj-18" value="" style="verticalLabelPosition=bottom;verticalAlign=top;html=1;shape=card;whiteSpace=wrap;size=20;arcSize=12;rounded=1;glass=0;strokeColor=#6c8ebf;fillColor=#dae8fc;direction=south;container=0;" parent="itG-f2Ae2NfoAcJiITjj-17" vertex="1">
          <mxGeometry width="17.00999314549587" height="98.07692307692308" as="geometry" />
        </mxCell>
        <mxCell id="itG-f2Ae2NfoAcJiITjj-19" value="" style="rounded=0;whiteSpace=wrap;html=1;fillColor=#ffe6cc;container=0;" parent="itG-f2Ae2NfoAcJiITjj-17" vertex="1">
          <mxGeometry y="26.153846153846153" width="14.791298387387712" height="71.92307692307692" as="geometry" />
        </mxCell>
        <mxCell id="itG-f2Ae2NfoAcJiITjj-20" value="" style="endArrow=none;dashed=1;html=1;strokeWidth=2;strokeColor=#EA6B66;" parent="itG-f2Ae2NfoAcJiITjj-17" edge="1">
          <mxGeometry width="36.978245968469274" height="32.69230769230769" as="geometry">
            <mxPoint as="sourcePoint" />
            <mxPoint x="18.489122984234637" y="19.61538461538462" as="targetPoint" />
            <Array as="points">
              <mxPoint x="8.874779032432627" y="13.076923076923077" />
            </Array>
          </mxGeometry>
        </mxCell>
        <mxCell id="itG-f2Ae2NfoAcJiITjj-21" value="Noise floor" style="text;html=1;align=center;verticalAlign=middle;whiteSpace=wrap;rounded=1;perimeterSpacing=1;glass=0;" parent="f8PjCzxL09GvIvh93bTI-1" vertex="1">
          <mxGeometry x="310.6172661351419" y="39.23076923076924" width="75.25073054583498" height="13.076923076923077" as="geometry" />
        </mxCell>
        <mxCell id="itG-f2Ae2NfoAcJiITjj-22" value="" style="endArrow=classic;html=1;strokeWidth=2;exitX=0.25;exitY=1;exitDx=0;exitDy=0;" parent="f8PjCzxL09GvIvh93bTI-1" source="itG-f2Ae2NfoAcJiITjj-21" edge="1">
          <mxGeometry width="50" height="50" relative="1" as="geometry">
            <mxPoint x="341.40535372848956" y="123.60961538461534" as="sourcePoint" />
            <mxPoint x="281.03466936036654" y="58.846153846153854" as="targetPoint" />
          </mxGeometry>
        </mxCell>
        <mxCell id="itG-f2Ae2NfoAcJiITjj-33" value="" style="group;flipH=1;" parent="f8PjCzxL09GvIvh93bTI-1" vertex="1" connectable="0">
          <mxGeometry x="253.67076734369925" y="45.76923076923077" width="17.00999314549587" height="98.07692307692308" as="geometry" />
        </mxCell>
        <mxCell id="itG-f2Ae2NfoAcJiITjj-34" value="" style="verticalLabelPosition=bottom;verticalAlign=top;html=1;shape=card;whiteSpace=wrap;size=20;arcSize=12;rounded=1;glass=0;strokeColor=#6c8ebf;fillColor=#dae8fc;direction=south;container=0;flipH=1;" parent="itG-f2Ae2NfoAcJiITjj-33" vertex="1">
          <mxGeometry width="17.00999314549587" height="98.07692307692308" as="geometry" />
        </mxCell>
        <mxCell id="itG-f2Ae2NfoAcJiITjj-35" value="" style="endArrow=none;dashed=1;html=1;strokeWidth=2;strokeColor=#EA6B66;flipH=1;" parent="itG-f2Ae2NfoAcJiITjj-33" edge="1">
          <mxGeometry width="36.978245968469274" height="32.69230769230769" as="geometry">
            <mxPoint as="sourcePoint" />
            <mxPoint x="18.489122984234637" y="19.61538461538462" as="targetPoint" />
            <Array as="points">
              <mxPoint x="8.874779032432627" y="13.076923076923077" />
            </Array>
          </mxGeometry>
        </mxCell>
        <mxCell id="itG-f2Ae2NfoAcJiITjj-36" value="" style="endArrow=classic;html=1;strokeWidth=2;exitX=0;exitY=1;exitDx=0;exitDy=0;" parent="f8PjCzxL09GvIvh93bTI-1" source="itG-f2Ae2NfoAcJiITjj-19" edge="1">
          <mxGeometry width="50" height="50" relative="1" as="geometry">
            <mxPoint x="341.40535372848956" y="123.60961538461534" as="sourcePoint" />
            <mxPoint x="271.4203254085645" y="19.61538461538462" as="targetPoint" />
          </mxGeometry>
        </mxCell>
        <mxCell id="itG-f2Ae2NfoAcJiITjj-40" value="Exitation frequency" style="text;html=1;align=center;verticalAlign=middle;whiteSpace=wrap;rounded=1;perimeterSpacing=1;glass=0;" parent="f8PjCzxL09GvIvh93bTI-1" vertex="1">
          <mxGeometry x="160" y="17.894736842105264" width="75.25" height="13.081052631578947" as="geometry" />
        </mxCell>
        <mxCell id="itG-f2Ae2NfoAcJiITjj-44" value="" style="rounded=0;whiteSpace=wrap;html=1;fillColor=#ffe6cc;container=0;" parent="f8PjCzxL09GvIvh93bTI-1" vertex="1">
          <mxGeometry x="256.6290270211768" y="71.92307692307692" width="14.791298387387714" height="71.92307692307692" as="geometry" />
        </mxCell>
        <mxCell id="itG-f2Ae2NfoAcJiITjj-45" value="" style="endArrow=classic;html=1;strokeWidth=2;exitX=0;exitY=1;exitDx=0;exitDy=0;" parent="f8PjCzxL09GvIvh93bTI-1" source="itG-f2Ae2NfoAcJiITjj-19" target="itG-f2Ae2NfoAcJiITjj-44" edge="1">
          <mxGeometry width="50" height="50" relative="1" as="geometry">
            <mxPoint x="271.4203254085645" y="143.84615384615384" as="sourcePoint" />
            <mxPoint x="271.4203254085645" y="19.61538461538462" as="targetPoint" />
          </mxGeometry>
        </mxCell>
        <mxCell id="jMbkGNXLHr5RiGjJXChH-9" value="Freq" style="text;html=1;align=center;verticalAlign=middle;resizable=0;points=[];autosize=1;" parent="f8PjCzxL09GvIvh93bTI-1" vertex="1">
          <mxGeometry x="280" y="143.84684210526314" width="40" height="20" as="geometry" />
        </mxCell>
        <mxCell id="f8PjCzxL09GvIvh93bTI-2" value="" style="group" parent="itG-f2Ae2NfoAcJiITjj-1" vertex="1" connectable="0">
          <mxGeometry x="120" y="-600" width="350" height="250" as="geometry" />
        </mxCell>
        <mxCell id="itG-f2Ae2NfoAcJiITjj-23" value="" style="endArrow=classic;html=1;" parent="f8PjCzxL09GvIvh93bTI-2" edge="1">
          <mxGeometry width="50" height="50" relative="1" as="geometry">
            <mxPoint y="128.37837837837841" as="sourcePoint" />
            <mxPoint x="69.07099511569392" y="128.37837837837841" as="targetPoint" />
          </mxGeometry>
        </mxCell>
        <mxCell id="itG-f2Ae2NfoAcJiITjj-24" value="" style="endArrow=classic;html=1;" parent="f8PjCzxL09GvIvh93bTI-2" edge="1">
          <mxGeometry width="50" height="50" relative="1" as="geometry">
            <mxPoint x="8.63387438946174" y="250" as="sourcePoint" />
            <mxPoint x="8.63387438946174" as="targetPoint" />
          </mxGeometry>
        </mxCell>
        <mxCell id="itG-f2Ae2NfoAcJiITjj-25" value="" style="endArrow=classic;html=1;strokeWidth=2;" parent="f8PjCzxL09GvIvh93bTI-2" edge="1">
          <mxGeometry width="50" height="50" relative="1" as="geometry">
            <mxPoint x="77.70486950515566" y="87.83783783783785" as="sourcePoint" />
            <mxPoint x="181.31136217869653" y="87.83783783783785" as="targetPoint" />
          </mxGeometry>
        </mxCell>
        <mxCell id="itG-f2Ae2NfoAcJiITjj-26" value="Averaging&lt;br&gt;/ noise cancelling" style="edgeLabel;html=1;align=center;verticalAlign=middle;resizable=0;points=[];labelBackgroundColor=none;" parent="itG-f2Ae2NfoAcJiITjj-25" vertex="1" connectable="0">
          <mxGeometry x="-0.0222" y="1" relative="1" as="geometry">
            <mxPoint as="offset" />
          </mxGeometry>
        </mxCell>
        <mxCell id="itG-f2Ae2NfoAcJiITjj-27" value="" style="group" parent="f8PjCzxL09GvIvh93bTI-2" vertex="1" connectable="0">
          <mxGeometry x="8.63387438946174" y="27.02702702702703" width="19.857911095762002" height="101.35135135135135" as="geometry" />
        </mxCell>
        <mxCell id="itG-f2Ae2NfoAcJiITjj-28" value="" style="verticalLabelPosition=bottom;verticalAlign=top;html=1;shape=card;whiteSpace=wrap;size=20;arcSize=12;rounded=1;glass=0;strokeColor=#6c8ebf;fillColor=#dae8fc;direction=south;container=0;" parent="itG-f2Ae2NfoAcJiITjj-27" vertex="1">
          <mxGeometry width="19.857911095762002" height="101.35135135135135" as="geometry" />
        </mxCell>
        <mxCell id="itG-f2Ae2NfoAcJiITjj-29" value="" style="rounded=0;whiteSpace=wrap;html=1;fillColor=#ffe6cc;container=0;" parent="itG-f2Ae2NfoAcJiITjj-27" vertex="1">
          <mxGeometry y="27.02702702702703" width="17.26774877892348" height="74.32432432432432" as="geometry" />
        </mxCell>
        <mxCell id="itG-f2Ae2NfoAcJiITjj-30" value="" style="endArrow=none;dashed=1;html=1;strokeWidth=2;strokeColor=#EA6B66;" parent="itG-f2Ae2NfoAcJiITjj-27" edge="1">
          <mxGeometry width="43.1693719473087" height="33.78378378378379" as="geometry">
            <mxPoint as="sourcePoint" />
            <mxPoint x="21.58468597365435" y="20.270270270270274" as="targetPoint" />
            <Array as="points">
              <mxPoint x="10.360649267354088" y="13.513513513513516" />
            </Array>
          </mxGeometry>
        </mxCell>
        <mxCell id="itG-f2Ae2NfoAcJiITjj-31" value="" style="verticalLabelPosition=bottom;verticalAlign=top;html=1;shape=card;whiteSpace=wrap;size=20;arcSize=12;rounded=1;glass=0;strokeColor=#6c8ebf;fillColor=#dae8fc;direction=south;container=0;flipH=0;flipV=1;" parent="f8PjCzxL09GvIvh93bTI-2" vertex="1">
          <mxGeometry x="8.63387438946174" y="128.37837837837841" width="19.857911095762002" height="101.35135135135135" as="geometry" />
        </mxCell>
        <mxCell id="itG-f2Ae2NfoAcJiITjj-32" value="" style="endArrow=none;dashed=1;html=1;strokeWidth=2;strokeColor=#EA6B66;flipH=0;flipV=1;" parent="f8PjCzxL09GvIvh93bTI-2" edge="1">
          <mxGeometry x="9.177808475997825" y="209.45945945945948" width="43.1693719473087" height="33.78378378378379" as="geometry">
            <mxPoint x="9.177808475997825" y="209.45945945945948" as="sourcePoint" />
            <mxPoint x="30.762494449652174" y="229.72972972972974" as="targetPoint" />
            <Array as="points">
              <mxPoint x="19.538457743351913" y="222.972972972973" />
            </Array>
          </mxGeometry>
        </mxCell>
        <mxCell id="itG-f2Ae2NfoAcJiITjj-37" value="" style="endArrow=classic;html=1;" parent="f8PjCzxL09GvIvh93bTI-2" edge="1">
          <mxGeometry width="50" height="50" relative="1" as="geometry">
            <mxPoint x="198.57911095762" y="128.37837837837841" as="sourcePoint" />
            <mxPoint x="319.4533524100844" y="128.37837837837841" as="targetPoint" />
          </mxGeometry>
        </mxCell>
        <mxCell id="itG-f2Ae2NfoAcJiITjj-38" value="" style="endArrow=classic;html=1;" parent="f8PjCzxL09GvIvh93bTI-2" edge="1">
          <mxGeometry width="50" height="50" relative="1" as="geometry">
            <mxPoint x="207.21298534708177" y="148.64864864864865" as="sourcePoint" />
            <mxPoint x="207.21298534708177" as="targetPoint" />
          </mxGeometry>
        </mxCell>
        <mxCell id="itG-f2Ae2NfoAcJiITjj-39" value="" style="rounded=0;whiteSpace=wrap;html=1;fillColor=#ffe6cc;container=0;" parent="f8PjCzxL09GvIvh93bTI-2" vertex="1">
          <mxGeometry x="207.21298534708177" y="54.05405405405406" width="17.26774877892348" height="74.32432432432432" as="geometry" />
        </mxCell>
        <mxCell id="itG-f2Ae2NfoAcJiITjj-42" value="Signal of interest" style="text;html=1;align=center;verticalAlign=middle;whiteSpace=wrap;rounded=1;perimeterSpacing=1;glass=0;" parent="f8PjCzxL09GvIvh93bTI-2" vertex="1">
          <mxGeometry x="262.1503280872268" y="70.94594594594595" width="87.8496719127732" height="13.513513513513516" as="geometry" />
        </mxCell>
        <mxCell id="itG-f2Ae2NfoAcJiITjj-43" value="" style="endArrow=classic;html=1;strokeWidth=2;entryX=1;entryY=0.5;entryDx=0;entryDy=0;exitX=0;exitY=0.5;exitDx=0;exitDy=0;" parent="f8PjCzxL09GvIvh93bTI-2" source="itG-f2Ae2NfoAcJiITjj-42" target="itG-f2Ae2NfoAcJiITjj-39" edge="1">
          <mxGeometry width="50" height="50" relative="1" as="geometry">
            <mxPoint x="418.4148206620948" y="114.54729729729729" as="sourcePoint" />
            <mxPoint x="256.9613695791603" y="81.40540540540542" as="targetPoint" />
          </mxGeometry>
        </mxCell>
        <mxCell id="jMbkGNXLHr5RiGjJXChH-11" value="Freq" style="text;html=1;align=center;verticalAlign=middle;resizable=0;points=[];autosize=1;" parent="f8PjCzxL09GvIvh93bTI-2" vertex="1">
          <mxGeometry x="280" y="128.38" width="40" height="20" as="geometry" />
        </mxCell>
        <mxCell id="jMbkGNXLHr5RiGjJXChH-12" value="Freq" style="text;html=1;align=center;verticalAlign=middle;resizable=0;points=[];autosize=1;" parent="f8PjCzxL09GvIvh93bTI-2" vertex="1">
          <mxGeometry x="50" y="128.38" width="40" height="20" as="geometry" />
        </mxCell>
        <mxCell id="jMbkGNXLHr5RiGjJXChH-0" value="" style="group" parent="itG-f2Ae2NfoAcJiITjj-1" vertex="1" connectable="0">
          <mxGeometry x="230" y="-950" width="30" height="60" as="geometry" />
        </mxCell>
        <mxCell id="jMbkGNXLHr5RiGjJXChH-1" value="" style="endArrow=none;dashed=1;html=1;dashPattern=1 3;strokeWidth=2;startArrow=none;startFill=0;" parent="jMbkGNXLHr5RiGjJXChH-0" source="jMbkGNXLHr5RiGjJXChH-2" edge="1">
          <mxGeometry width="50" height="50" relative="1" as="geometry">
            <mxPoint x="15.857142857142856" y="77.14285714285714" as="sourcePoint" />
            <mxPoint x="16.285714285714285" as="targetPoint" />
          </mxGeometry>
        </mxCell>
        <mxCell id="jMbkGNXLHr5RiGjJXChH-2" value="Modulate by excitation signal" style="verticalLabelPosition=middle;shadow=0;dashed=0;align=left;html=1;verticalAlign=middle;shape=mxgraph.electrical.abstract.multiplier;strokeColor=#000000;labelPosition=right;labelBackgroundColor=none;" parent="jMbkGNXLHr5RiGjJXChH-0" vertex="1">
          <mxGeometry x="3.4285714285714284" y="17.142857142857142" width="25.71428571428571" height="25.71428571428571" as="geometry" />
        </mxCell>
        <mxCell id="jMbkGNXLHr5RiGjJXChH-3" value="" style="endArrow=none;dashed=1;html=1;dashPattern=1 3;strokeWidth=2;startArrow=classic;startFill=1;" parent="jMbkGNXLHr5RiGjJXChH-0" target="jMbkGNXLHr5RiGjJXChH-2" edge="1">
          <mxGeometry width="50" height="50" relative="1" as="geometry">
            <mxPoint x="16.285714285714285" y="60" as="sourcePoint" />
            <mxPoint x="15.857142857142856" y="-17.142857142857142" as="targetPoint" />
          </mxGeometry>
        </mxCell>
        <mxCell id="jMbkGNXLHr5RiGjJXChH-4" value="" style="group" parent="itG-f2Ae2NfoAcJiITjj-1" vertex="1" connectable="0">
          <mxGeometry x="220" y="-690" width="30" height="60" as="geometry" />
        </mxCell>
        <mxCell id="jMbkGNXLHr5RiGjJXChH-5" value="" style="endArrow=none;dashed=1;html=1;dashPattern=1 3;strokeWidth=2;startArrow=none;startFill=0;" parent="jMbkGNXLHr5RiGjJXChH-4" source="jMbkGNXLHr5RiGjJXChH-6" edge="1">
          <mxGeometry width="50" height="50" relative="1" as="geometry">
            <mxPoint x="15.857142857142858" y="77.14285714285714" as="sourcePoint" />
            <mxPoint x="16.285714285714285" as="targetPoint" />
          </mxGeometry>
        </mxCell>
        <mxCell id="jMbkGNXLHr5RiGjJXChH-6" value="Multiply with&amp;nbsp; exitation signal" style="verticalLabelPosition=middle;shadow=0;dashed=0;align=left;html=1;verticalAlign=middle;shape=mxgraph.electrical.abstract.multiplier;strokeColor=#000000;labelPosition=right;labelBackgroundColor=none;" parent="jMbkGNXLHr5RiGjJXChH-4" vertex="1">
          <mxGeometry x="3.4285714285714284" y="17.142857142857142" width="25.714285714285715" height="25.71428571428571" as="geometry" />
        </mxCell>
        <mxCell id="jMbkGNXLHr5RiGjJXChH-7" value="" style="endArrow=none;dashed=1;html=1;dashPattern=1 3;strokeWidth=2;startArrow=classic;startFill=1;" parent="jMbkGNXLHr5RiGjJXChH-4" target="jMbkGNXLHr5RiGjJXChH-6" edge="1">
          <mxGeometry width="50" height="50" relative="1" as="geometry">
            <mxPoint x="16.285714285714285" y="60" as="sourcePoint" />
            <mxPoint x="15.857142857142858" y="-17.142857142857142" as="targetPoint" />
          </mxGeometry>
        </mxCell>
        <mxCell id="jMbkGNXLHr5RiGjJXChH-13" style="edgeStyle=orthogonalEdgeStyle;rounded=0;orthogonalLoop=1;jettySize=auto;html=1;exitX=1;exitY=0.25;exitDx=0;exitDy=0;endArrow=none;endFill=0;strokeColor=#FFB366;strokeWidth=2;" parent="itG-f2Ae2NfoAcJiITjj-1" source="itG-f2Ae2NfoAcJiITjj-40" edge="1">
          <mxGeometry relative="1" as="geometry">
            <mxPoint x="390" y="-827" as="targetPoint" />
          </mxGeometry>
        </mxCell>
      </root>
    </mxGraphModel>
  </diagram>
  <diagram id="TYuTQqUcB36hguIp-KHt" name="FW">
    <mxGraphModel dx="660" dy="1746" grid="1" gridSize="10" guides="1" tooltips="1" connect="1" arrows="1" fold="1" page="1" pageScale="1" pageWidth="827" pageHeight="1169" math="0" shadow="0">
      <root>
        <mxCell id="nUeD5XcNd2WbeRozVrF2-0" />
        <mxCell id="nUeD5XcNd2WbeRozVrF2-1" parent="nUeD5XcNd2WbeRozVrF2-0" />
        <mxCell id="UK_s9Fev-M7nmUGAOpY5-0" value="Arduino synchronous detector" style="verticalLabelPosition=bottom;verticalAlign=top;html=1;shape=mxgraph.basic.rect;fillColor2=none;strokeWidth=1;size=20;indent=5;dashed=1;align=left;labelPosition=center;dashPattern=1 4;" vertex="1" parent="nUeD5XcNd2WbeRozVrF2-1">
          <mxGeometry x="126.25" y="-380" width="600" height="280" as="geometry" />
        </mxCell>
        <mxCell id="UK_s9Fev-M7nmUGAOpY5-2" value="&lt;div&gt;&lt;span&gt;&amp;nbsp; Arduino&lt;/span&gt;&lt;/div&gt;" style="verticalLabelPosition=top;verticalAlign=bottom;html=1;shape=mxgraph.basic.rect;fillColor2=none;strokeWidth=1;size=20;indent=5;dashed=1;align=left;fillColor=#f5f5f5;strokeColor=#666666;fontColor=#333333;labelPosition=center;" vertex="1" parent="nUeD5XcNd2WbeRozVrF2-1">
          <mxGeometry x="140" y="-1100" width="250" height="220" as="geometry" />
        </mxCell>
        <mxCell id="UK_s9Fev-M7nmUGAOpY5-3" style="edgeStyle=orthogonalEdgeStyle;rounded=0;orthogonalLoop=1;jettySize=auto;html=1;exitX=1;exitY=0.5;exitDx=0;exitDy=0;exitPerimeter=0;entryX=0;entryY=0.5;entryDx=0;entryDy=0;entryPerimeter=0;" edge="1" parent="nUeD5XcNd2WbeRozVrF2-1" source="UK_s9Fev-M7nmUGAOpY5-18" target="UK_s9Fev-M7nmUGAOpY5-7">
          <mxGeometry relative="1" as="geometry">
            <mxPoint x="332.25" y="-1047.0100000000002" as="sourcePoint" />
          </mxGeometry>
        </mxCell>
        <mxCell id="UK_s9Fev-M7nmUGAOpY5-4" style="rounded=0;orthogonalLoop=1;jettySize=auto;html=1;exitX=1;exitY=0.5;exitDx=0;exitDy=0;exitPerimeter=0;" edge="1" parent="nUeD5XcNd2WbeRozVrF2-1" target="UK_s9Fev-M7nmUGAOpY5-18" source="UK_s9Fev-M7nmUGAOpY5-9">
          <mxGeometry relative="1" as="geometry">
            <mxPoint x="61.24999999999994" y="-1047" as="sourcePoint" />
            <mxPoint x="257.25000000000006" y="-1047.0100000000002" as="targetPoint" />
          </mxGeometry>
        </mxCell>
        <mxCell id="UK_s9Fev-M7nmUGAOpY5-7" value="Low pass filter&lt;br&gt;&amp;amp; decimatin" style="verticalLabelPosition=bottom;shadow=0;dashed=0;align=center;html=1;verticalAlign=top;shape=mxgraph.electrical.logic_gates.lowpass_filter;fillColor=#fff2cc;strokeColor=#d6b656;" vertex="1" parent="nUeD5XcNd2WbeRozVrF2-1">
          <mxGeometry x="301.25" y="-1071" width="52" height="46" as="geometry" />
        </mxCell>
        <mxCell id="UK_s9Fev-M7nmUGAOpY5-8" style="edgeStyle=none;rounded=0;orthogonalLoop=1;jettySize=auto;html=1;entryX=0.5;entryY=1;entryDx=0;entryDy=0;entryPerimeter=0;exitX=0.5;exitY=0;exitDx=0;exitDy=0;" edge="1" parent="nUeD5XcNd2WbeRozVrF2-1" source="UK_s9Fev-M7nmUGAOpY5-22" target="UK_s9Fev-M7nmUGAOpY5-18">
          <mxGeometry relative="1" as="geometry">
            <mxPoint x="296" y="-999.9899999999998" as="targetPoint" />
          </mxGeometry>
        </mxCell>
        <mxCell id="UK_s9Fev-M7nmUGAOpY5-9" value="ADC" style="verticalLabelPosition=middle;shadow=0;dashed=0;align=center;html=1;verticalAlign=middle;shape=mxgraph.electrical.abstract.dac;direction=west;labelPosition=center;fillColor=#dae8fc;strokeColor=#6c8ebf;" vertex="1" parent="nUeD5XcNd2WbeRozVrF2-1">
          <mxGeometry x="147.5" y="-1071" width="60" height="46" as="geometry" />
        </mxCell>
        <mxCell id="UK_s9Fev-M7nmUGAOpY5-18" value="Mutiplicator" style="verticalLabelPosition=top;shadow=0;dashed=0;align=center;html=1;verticalAlign=bottom;shape=mxgraph.electrical.abstract.multiplier;fillColor=#d5e8d4;strokeColor=#82b366;labelPosition=center;" vertex="1" parent="nUeD5XcNd2WbeRozVrF2-1">
          <mxGeometry x="237.13" y="-1064.5" width="31.75" height="33" as="geometry" />
        </mxCell>
        <mxCell id="UK_s9Fev-M7nmUGAOpY5-19" style="edgeStyle=none;rounded=0;orthogonalLoop=1;jettySize=auto;html=1;exitX=0.5;exitY=0;exitDx=0;exitDy=0;entryX=0.019;entryY=0.552;entryDx=0;entryDy=0;entryPerimeter=0;endArrow=classic;endFill=1;" edge="1" parent="nUeD5XcNd2WbeRozVrF2-1" source="UK_s9Fev-M7nmUGAOpY5-22" target="UK_s9Fev-M7nmUGAOpY5-2">
          <mxGeometry relative="1" as="geometry">
            <Array as="points">
              <mxPoint x="254.25000000000006" y="-978" />
            </Array>
            <mxPoint x="-63.75" y="-978.325" as="targetPoint" />
          </mxGeometry>
        </mxCell>
        <mxCell id="UK_s9Fev-M7nmUGAOpY5-20" value="Exitation" style="edgeLabel;html=1;align=center;verticalAlign=middle;resizable=0;points=[];labelBackgroundColor=none;" vertex="1" connectable="0" parent="UK_s9Fev-M7nmUGAOpY5-19">
          <mxGeometry x="-0.3219" y="1" relative="1" as="geometry">
            <mxPoint x="-54" y="-6" as="offset" />
          </mxGeometry>
        </mxCell>
        <mxCell id="UK_s9Fev-M7nmUGAOpY5-21" value="+ / -1" style="group;labelPosition=center;verticalLabelPosition=top;align=center;verticalAlign=bottom;labelBorderColor=none;labelBackgroundColor=#ffffff;" vertex="1" connectable="0" parent="nUeD5XcNd2WbeRozVrF2-1">
          <mxGeometry x="230.75" y="-950" width="47.5" height="47.5" as="geometry" />
        </mxCell>
        <mxCell id="UK_s9Fev-M7nmUGAOpY5-22" value="" style="ellipse;whiteSpace=wrap;html=1;aspect=fixed;fillColor=#ffe6cc;strokeColor=#d79b00;" vertex="1" parent="UK_s9Fev-M7nmUGAOpY5-21">
          <mxGeometry width="47.5" height="47.5" as="geometry" />
        </mxCell>
        <mxCell id="UK_s9Fev-M7nmUGAOpY5-23" value="" style="group" vertex="1" connectable="0" parent="UK_s9Fev-M7nmUGAOpY5-21">
          <mxGeometry x="13.5" y="8.75" width="30" height="30" as="geometry" />
        </mxCell>
        <mxCell id="UK_s9Fev-M7nmUGAOpY5-24" style="edgeStyle=none;rounded=0;orthogonalLoop=1;jettySize=auto;html=1;endArrow=none;endFill=0;fontColor=#000000;" edge="1" parent="UK_s9Fev-M7nmUGAOpY5-23" source="UK_s9Fev-M7nmUGAOpY5-25">
          <mxGeometry relative="1" as="geometry">
            <mxPoint x="-10" y="15" as="targetPoint" />
            <Array as="points">
              <mxPoint x="30" y="15" />
            </Array>
          </mxGeometry>
        </mxCell>
        <mxCell id="UK_s9Fev-M7nmUGAOpY5-25" value="" style="pointerEvents=1;verticalLabelPosition=bottom;shadow=0;dashed=0;align=center;html=1;verticalAlign=top;shape=mxgraph.electrical.waveforms.square_wave;fillColor=#dae8fc;strokeColor=#6c8ebf;" vertex="1" parent="UK_s9Fev-M7nmUGAOpY5-23">
          <mxGeometry width="20" height="30" as="geometry" />
        </mxCell>
      </root>
    </mxGraphModel>
  </diagram>
</mxfile>
